<?xml version="1.0" encoding="utf-8"?>
<!-- Generator: Adobe Illustrator 25.0.0, SVG Export Plug-In . SVG Version: 6.00 Build 0)  -->
<svg version="1.1" id="_x34_0d64b11-b73c-480c-a7d0-f1c9d01d0b28"
	 xmlns="http://www.w3.org/2000/svg" xmlns:xlink="http://www.w3.org/1999/xlink" x="0px" y="0px" viewBox="0 0 1144 703.2"
	 style="enable-background:new 0 0 1144 703.2;" xml:space="preserve">
<style type="text/css">
	.st0{opacity:0.1;fill:#6C63FF;enable-background:new    ;}
	.st1{opacity:0.1;fill:#F1E6FF;enable-background:new    ;}
	.st2{fill:#6F35A5;}
	.st3{fill:url(#SVGID_1_);}
	.st4{fill:#3F3D56;}
	.st5{opacity:5.000000e-02;enable-background:new    ;}
	.st6{fill:#FBBEBE;}
	.st7{fill:#CB8C8E;}
	.st8{fill:#F4F6FB;}
	.st9{fill:#E3E8F4;}
	.st10{opacity:0.1;enable-background:new    ;}
	.st11{opacity:0.1;}
	.st12{fill:#00A66C;}
	.st13{fill:#6C63FF;}
	.st14{fill:#5F3839;}
	.st15{opacity:0.5;fill:#6C63FF;enable-background:new    ;}
	.st16{opacity:0.2;fill:#6C63FF;enable-background:new    ;}
	.st17{opacity:0.3;fill:#6C63FF;enable-background:new    ;}
</style>
<path class="st0" d="M687.7,488.2c22.1-1.3,49.5-16.3,70.8-22.9c25.2-7.8,50.6-15.4,76-22.6c88.5-25.2,178-46.6,268.4-64.4
	c8.4-1.7,16.9-3.3,25.4-4.9c-13.2-28.5-33.6-53-59.3-71.2c0.7-6.2,1-12.5,1-18.8c0-99.1-79.2-179.5-177-179.5
	c-30.1,0-59.7,7.7-85.9,22.5C738,81,647.7,53.5,548.9,53.5c-140.4,0-263.7,55.6-333.5,139.4l328.3,55.5l201.3,34
	c-229.5,6.9-459.8,13.7-688.6-2.4c-62.3,60.3-73.2,156.2-26.1,229l0,0c0,3.6,0.2,7.1,0.4,10.7c5.8,1.7,11.5,3.3,16.5,4.4
	c81.1,17.1,162.7,31.5,244.8,43c-60.5,37.3-134.2,42.6-204,58.4c33.8,27.9,79.7,45.1,130.3,45.1h753.1
	c81.5,0,147.6-56.8,147.6-126.8l0,0c12.2-20.2,20.4-42.6,24-65.9C992.1,492.2,839.3,479.5,687.7,488.2z"/>
<path class="st1" d="M1144,447.8c0.2-58.6-28.2-113.6-76-147.4c0.7-6.2,1-12.5,1-18.8c0-99.1-79.2-179.5-177-179.5
	c-30.1,0-59.7,7.7-85.9,22.5c-69.2-45.5-159.5-73.1-258.3-73.1c-160.8,0-299.1,72.9-360.5,177.5c-3.4-0.2-6.8-0.3-10.3-0.3
	c-97.7,0-177,80.4-177,179.5c-0.1,35,10,69.3,29.1,98.7l0,0c0,89.2,84.2,161.5,188,161.5h753.1c81.5,0,147.6-56.8,147.6-126.8l0,0
	C1135,513.4,1144.1,480.9,1144,447.8z"/>
<path class="st0" d="M833.2,0c0,0-75,38.6-36.4,84.3c0,0,3.6,10,14.2,9.2c0,0-2.1-3.8,6-6.9c2.9-1.1,5.6-2.5,8.1-4.3
	c3.4-2.3,6-5.7,7.3-9.7l0,0c0,0,15.4-20.5,3.6-58.4c0,0,1.6-10.7,0.2-12.5L827,14.2c0,0,9.4,6.3,10.5,15.6c0,0-9.8-15.6-11.9-13.8
	c-0.4,0.4-4.5,6.8-4.5,6.8s16.3,11.1,17.5,25.5c0,0-9.2-20.2-19.1-23l-5.6,10.1c0,0,17.8,10.9,19.8,27.2c0,0-10.3-20.7-20.9-24.9
	l-4.2,10.7c0,0,17.2,11,18.7,24.6c0,0-14.3-22.8-19.5-22c0,0-3.2,10.1-2.8,13.1c0,0,12.1,8.1,12.3,16.1c0,0-11.2-14.2-12.9-13.2
	c0,0-0.8,14.2,2.7,21.6c0,0-5.9-10.6-4.9-21.6c0,0-5.9,5-7.2,11.6c0,0-3.2-7.8,7.4-15c0,0,1-11.1,2.2-12.4c0,0-11.5,5.6-16.4,12.5
	c0,0,1.8-10.3,17.4-15.3l4-10.9c0,0-15.6,6.6-20.4,12.4c0,0,3.5-10.2,21.7-15l5.4-10c0,0-13.9,4.6-20.7,9.9c0,0,5.3-8.8,22.3-12.7
	l4.4-6.2c0,0-10.1,3.6-12.9,4.9s-3.4,0.6-3.4,0.6c5.1-4.4,11.3-7.2,18-8.2C824,13,833.9,0.7,833.2,0z"/>
<path class="st0" d="M733.7,46.9c0,0,5.8,37.7,30.9,27.6c0,0,4.8-0.1,6-4.8c0,0-2,0.4-2.1-3.5c-0.1-1.4-0.3-2.8-0.7-4.1
	c-0.5-1.8-1.6-3.4-3.1-4.5l0,0c0,0-6.6-9.5-24.5-9.9c0,0-4.4-2.2-5.3-1.9l4,5.7c0,0,4.1-3.1,8.2-2.3c0,0-8.1,2-7.6,3.1
	c0.1,0.2,2.3,2.9,2.3,2.9s7.1-5.4,13.4-3.9c0,0-9.9,1.1-12.6,4.9l3.5,3.9c0,0,7.2-6.1,14.5-4.6c0,0-10.4,1.5-13.7,5.4l4,3.3
	c0,0,7.2-5.8,13.2-4.5c0,0-11.8,2.9-12.2,5.2c0,0,3.8,2.8,5.2,3.1c0,0,5.2-4,8.7-3c0,0-7.7,2.8-7.5,3.6c0,0,6,2.4,9.7,1.9
	c-3.4,0.5-6.8,0.2-10-1c0.8,1.9,2.2,3.6,3.9,4.7c0,0-3.8,0.3-5.4-5.3c0,0-4.6-2-5-2.7c0,0,0.8,5.7,3,8.8c0,0-4.2-2.2-4.1-9.7
	l-4.1-3.2c0,0,0.6,7.6,2.4,10.5c0,0-3.9-2.9-3.4-11.4l-3.5-3.7c0,0,0,6.6,1.3,10.3c0,0-3-3.5-2.3-11.4l-2-2.8c0,0,0.1,4.8,0.2,6.2
	s-0.2,1.5-0.2,1.5c-1.1-2.8-1.4-5.9-0.9-8.9C738,52.7,734.1,46.7,733.7,46.9z"/>
<path class="st0" d="M885.8,63.5c0,0-37.3-7.9-36.8,19.1c0,0-1.6,4.5,2.3,7.3c0,0,0.4-1.9,4.1-0.7c1.3,0.4,2.7,0.7,4,0.8
	c1.9,0.2,3.7-0.3,5.3-1.3l0,0c0,0,11.2-2.8,18-19.4c0,0,3.6-3.3,3.6-4.3l-6.8,1.8c0,0,1.5,4.9-0.8,8.4c0,0,1-8.2-0.2-8.2
	c-0.3,0-3.5,1.1-3.5,1.1s2.5,8.5-1.2,13.9c0,0,2.6-9.7-0.1-13.5l-4.9,1.9c0,0,3.1,8.9-0.9,15.2c0,0,2.3-10.2-0.2-14.7l-4.5,2.6
	c0,0,2.9,8.7-0.5,13.9c0,0,1.5-12.1-0.5-13.3c0,0-4,2.6-4.8,3.8c0,0,1.9,6.3-0.3,9.2c0,0,0.1-8.2-0.7-8.3c0,0-4.3,4.8-5.2,8.3
	c0.7-3.3,2.2-6.4,4.5-9c-2.1,0.1-4.1,0.8-5.8,2c0,0,1.1-3.7,6.9-3.1c0,0,3.5-3.6,4.3-3.7c0,0-5.6-1.3-9.3-0.3c0,0,3.6-3.1,10.5-0.4
	l4.5-2.7c0,0-7.3-2.2-10.7-1.5c0,0,4.1-2.6,11.9,0.9l4.8-2c0,0-6.2-2.3-10.1-2.4c0,0,4.3-1.6,11.5,1.9l3.3-0.9c0,0-4.5-1.6-5.9-2
	s-1.4-0.7-1.4-0.7c3,0,6,0.8,8.7,2.3C878.9,65.4,885.9,64,885.8,63.5z"/>
<ellipse class="st2" cx="672.2" cy="662.8" rx="40.2" ry="6.8"/>
<path class="st2" d="M688.8,651.6c1.8-1.5,3.2-3.5,3.8-5.8c0.5-2.3-0.5-5-2.7-5.9c-2.5-0.9-5.1,0.8-7.1,2.5s-4.3,3.7-6.9,3.3
	c2.7-2.5,4-6.2,3.2-9.8c-0.1-0.7-0.4-1.4-0.9-2c-1.4-1.5-3.8-0.8-5.5,0.3c-5.2,3.7-6.7,10.7-6.7,17.1c-0.5-2.3-0.1-4.7-0.1-7
	s-0.7-5-2.7-6.2c-1.2-0.7-2.6-1-4-0.9c-2.3-0.1-4.9,0.1-6.5,1.8c-2,2.1-1.5,5.7,0.2,8s4.3,3.8,6.8,5.4c1.9,1.2,3.6,2.7,4.8,4.6
	c0.1,0.3,0.3,0.5,0.4,0.8h14.7C683.1,656.2,686.1,654.1,688.8,651.6z"/>
<ellipse class="st2" cx="765.2" cy="683.8" rx="40.2" ry="6.8"/>
<path class="st2" d="M781.8,672.7c1.8-1.5,3.2-3.5,3.8-5.8c0.5-2.3-0.5-5-2.7-5.9c-2.5-0.9-5.1,0.8-7.1,2.5s-4.3,3.7-6.9,3.3
	c2.7-2.5,4-6.2,3.2-9.8c-0.1-0.7-0.4-1.4-0.9-2c-1.4-1.5-3.8-0.8-5.5,0.3c-5.2,3.7-6.7,10.7-6.7,17.1c-0.5-2.3-0.1-4.7-0.1-7
	s-0.7-5-2.7-6.2c-1.2-0.7-2.6-1-4-0.9c-2.3-0.1-4.9,0.1-6.5,1.8c-2,2.1-1.5,5.7,0.2,8s4.3,3.8,6.8,5.4c1.9,1.2,3.6,2.7,4.8,4.6
	c0.1,0.3,0.3,0.5,0.4,0.8h14.7C776.1,677.3,779.1,675.2,781.8,672.7z"/>
<ellipse class="st2" cx="180.2" cy="676.3" rx="40.2" ry="6.8"/>
<path class="st2" d="M196.8,665.2c1.8-1.5,3.2-3.5,3.8-5.8c0.5-2.3-0.5-5-2.7-5.9c-2.5-0.9-5.1,0.8-7.1,2.5s-4.3,3.7-6.9,3.3
	c2.7-2.5,4-6.2,3.2-9.8c-0.1-0.7-0.4-1.4-0.9-2c-1.4-1.5-3.8-0.8-5.5,0.3c-5.2,3.7-6.6,10.7-6.7,17.1c-0.5-2.3-0.1-4.7-0.1-7
	s-0.7-5-2.6-6.2c-1.2-0.7-2.6-1-4-0.9c-2.3-0.1-4.9,0.2-6.5,1.9c-2,2.1-1.5,5.7,0.2,8s4.4,3.8,6.8,5.4c1.9,1.2,3.6,2.7,4.8,4.6
	c0.1,0.3,0.3,0.5,0.4,0.8h14.7C191.1,669.8,194.1,667.7,196.8,665.2z"/>
<linearGradient id="SVGID_1_" gradientUnits="userSpaceOnUse" x1="431.7214" y1="-83.0134" x2="431.7214" y2="438.8402" gradientTransform="matrix(1 0 0 -1 -28 607.62)">
	<stop  offset="0" style="stop-color:#808080;stop-opacity:0.25"/>
	<stop  offset="0.54" style="stop-color:#808080;stop-opacity:0.12"/>
	<stop  offset="1" style="stop-color:#808080;stop-opacity:0.1"/>
</linearGradient>
<path class="st3" d="M561.9,661c0-0.1,0-0.2,0-0.3c0.1-1.3-0.2-2.5-0.7-3.7c-1.6-3.3-5.5-3.8-8.8-4.4c-5.5-0.9-10.7-2.9-15.4-5.8
	c-3.1-1.9-6.3-4.7-6.7-8.7c0-0.8,0.1-1.6,0-2.4c0-0.5,0-1.1,0-1.6c0-2.1-0.1-4-1.7-4.4c-9.4-2.3-17.5-10.3-20.7-20.4
	c-0.7-2.2-1.2-4.4-2.1-6.5c-2.8-6.6-9.1-10.1-13.9-15.1c-6.3-6.5-9.9-15.6-12.5-24.7s-4.5-18.5-7.9-27.3
	c-5.8-14.6-10.9-30.2-20.7-41.9c-1.5-1.8-3.1-3.6-4.8-5.4c-8.7-12.7-14.6-27.6-22.1-41.3c-1.4-2.8-3.2-5.4-5.2-7.8
	c-2.6-2.9-5.8-4.9-8.8-7.3c-14.5-11.3-23.7-29-36.1-42.9c-2.2-2.4-5.5-5.9-7.1-8.8c0-1.7,0.1-3.4,0.4-5.1c0.8-4.1,3-8.1,2.6-12.3
	c-0.1-0.8-0.2-1.7-0.2-2.5c0.1-1,0.4-1.9,0.8-2.8c0.6-1.9,1.5-3.7,2.5-5.5c1.8-2.8,3-5.9,3.5-9.2c2.5-2.4,3.6-6.7,6.7-7.8
	c1.7-0.6,4-0.2,5-1.9c0.3-0.6,0.4-1.2,0.5-1.9c0.3-3.4,0-6.8-0.9-10.1c0.3-1.7,0.3-3.5,0.2-5.2c-0.3-4.4-1.6-8.6-3.6-12.4
	c-1.3-2.4-3-4.8-5.5-5.4c-0.5-0.1-1.1-0.1-1.6-0.3c-3.2-0.9-4.3-5.8-7.1-7.4c3.7,2,7.5,4.3,10.9,2.6c4.4-2.1,4.7-8.8,4.4-14.1
	l-1.2-19.6c-0.6-10-1.4-20.6-6.5-28.9c-4.6-7.4-12.2-11.9-20-14.7c-5.2-1.9-11-3.1-16.2-1.2c0.3-0.2,0.6-0.4,0.9-0.6
	c-0.6,0.2-1.3,0.4-1.9,0.7c-2.7,1.4-5.3,3.1-7.5,5.2c1.3-3.2,1.9-6.6,1.9-10c0-5.1-1.4-10.1-4.2-14.5l5.9-4.9l-1.4-2.2l2.6-2.5
	c-0.3-0.5-0.9-0.9-1.5-0.9c-0.1,0-0.2,0-0.4,0c0.1-0.7,0-1.5-0.2-2.2l-0.2,0.2c-0.2-0.6-0.4-1.2-0.7-1.7h0.2
	c-0.1-0.2-0.3-0.4-0.4-0.6c0,0.1,0,0.2,0,0.3c-0.8-1.2-1.9-2.3-3.1-3.3c-4.5-3.7-9.6-6.7-15.2-7.1c-2.7-0.2-5.4,0.2-8.1,0
	c-3.6-0.2-7.2-1.6-10.8-1.8s-7.8,1.3-9.3,5c-0.6,1.6-0.7,3.4-1.2,5c-1.1,3.7-4,6.2-6.5,9s-4.8,6.4-4.1,10.2c0.3,1.2,0.7,2.4,1.3,3.5
	l12.7,27.4c0.1,2,0,4-0.2,6c-0.1,0.9-0.2,1.7-0.3,2.6c-0.1,0.4-0.1,0.8-0.2,1.1c-1.5,0.3-2.9,1-3.8,2.2c-0.4,0.5-0.6,1-0.7,1.6
	c0.1,0.9,0.2,1.8,0.5,2.7c0,1.2-0.3,2.3-0.8,3.4c-1.3,3-2.6,6-4.8,8.2c-0.9,0.9-1.9,1.7-2.8,2.6c-1,1.1-1.9,2.2-2.8,3.5
	c-1.9,2.6-3.8,5.3-4.4,8.6c-1.1,5.3-3.4,10.3-5,15.5c-0.2,0.4-0.5,0.8-0.9,1.1c-1,0.9-2.3,1.3-3.3,2.3c-2.2,2.1-2,5.9-1.5,9
	c1.9,11.8,5.3,23.2,6.7,35.1c0.5,4.7,0.8,9.4,1.8,14c0.4,2,1.1,3.8,2.1,5.6c-0.1,4.5,0.3,9-1.3,13.1c-0.7,1.9-1.8,3.6-2.7,5.3
	c-1.2,2.6-2.4,5.2-3.3,7.9l-5.4,14.3c-1,2.7-2.1,5.4-2.8,8.3c-2.2,8.2-2.3,17-1.9,25.6c0,0.3,0,0.5-0.2,0.8
	c-0.2,0.2-0.5,0.1-0.5-0.1c-0.1,0.5-0.4,1.3-0.4,1.8c2.4,1.2,5.1,0.8,7.8,0.5c0,0.3,0,0.5,0,0.8c0,0.1,0,0.1,0,0.2
	c0,0.8,0.1,1.6,0.2,2.4c0,0,0,0,0,0.1c0.1,0.4,0.2,0.8,0.2,1.2c0,0.1,0,0.2,0.1,0.3c0.1,0.4,0.2,0.7,0.3,1.1
	c0.1,0.2,0.1,0.4,0.2,0.5s0.1,0.4,0.2,0.7s0.1,0.3,0.1,0.4c0.7,1.7,1.5,3.4,2.2,5.1c1.3,2.6,2.1,5.4,2.5,8.3c0.1,0.7,0.1,1.3,0.1,2
	v0.7c0,0.7,0.1,1.4,0.2,2.1c0.2,1.1,0.5,2.2,0.8,3.3c0.2,0.7,0.3,1.3,0.4,2s0.2,1.5,0.3,2.3c0.8,5.7,1.3,11.3,1.7,17
	c0.1,1.4,0.2,2.8,0.2,4.1c0.5,10,0.4,20,0.2,30.1c-0.1,3.3-0.4,6.6-1,9.8c-1.7,9.5-5.1,18.7-7.4,28.1c-0.2,1-0.5,2-0.7,3
	c-0.5,2.1-0.8,4.3-1,6.5c0,2.9,0.2,5.8,0.8,8.6c0.5,3.5,0.9,6.9,1.1,10.4c-1.8,3.3-3,6.8-3.5,10.5c-1.2,11.1-10.6,19.5-11.9,30.6
	c-0.1,0.7-0.1,1.4-0.1,2.1c0,0.5,0,0.9,0,1.4c-0.1,1.2,0,2.4,0.3,3.5c1,2.4,3.2,4.1,5.8,4.4c2.5,0.3,4.9-0.3,7.3-0.7
	c1.1-0.2,2.2-0.3,3.3-0.4c0,0.4,0,0.8,0,1.1c-0.5,0.9-1,1.9-1.3,2.9c-0.6,1.2-1,2.5-1.1,3.8c0,1.6,0.3,3.1,1.1,4.4
	c2.5,4.5,7.4,6.6,12.1,7s9.4-0.6,14.1-0.9h0.8c0.2,0.4,0.4,0.9,0.6,1.3c2.5,4.5,7.4,6.6,12.1,7s9.4-0.6,14.1-0.9
	c1.4-0.1,2.8-0.1,4.2-0.2c2.9-0.2,5.7-0.7,8.5-1.5c2,2.8,4.3,5.4,6.8,7.8c8.2,7,19.6,6.6,29.9,5.2s21.9-3.9,31.3,1
	c7.2-0.8,11.5,10.6,18.7,10.9c3.3,0.1,6.3-2.2,8.7-4.8c0.8-1.1,1.9-1.9,3.1-2.5c1-0.3,2.1-0.3,3.1-0.1c5.6,1,10.6,4.1,14.1,8.5
	c1.8,2.3,3.7,5.2,6.4,5.2c2.5,0,4.6-2.3,7-2c1.6,0.2,3,1.6,4.4,2.5c4.5,2.7,10,0.2,14.3-2.7s8.9-6.5,13.9-5.9
	c3.3,0.3,6.2,2.4,9.2,3.7c9.4,4.1,20.9,1,27.7-7.4c1.1-1.3,2.2-2.9,3.8-3.2c1.1-0.1,2.1,0,3.1,0.5c5.7,1.9,11.6,3.6,17.4,2.3
	s11.3-6.5,11.4-13.1c0-0.4,0-0.8,0-1.2c0-0.2,0-0.5,0-0.8C561.9,661.5,561.9,661.2,561.9,661z M334.9,285.3c-0.4,1.1-1.1,2-2,2.6
	c-0.1-0.4-0.2-0.9-0.2-1.3c-0.4-1.9-0.8-3.7-1.2-5.5c1.3,0.9,2.8,1.6,4.2,2.1C335.4,283.9,335.2,284.6,334.9,285.3L334.9,285.3z
	 M320.3,240.1c0,0.1,0,0.1,0,0.2c0,3.5,1.2,5.5,3,6.7c-2,3.9-3,8.1-3,12.5c-0.7-0.5-1.4-1-2-1.6c-1.1-1.1-2-2.4-2.6-3.9
	c0.3,0,0.6,0,0.8-0.1c0.5-0.4,0.5-1.2,0.4-1.8c-0.7-6.3,0.2-12.6,2.5-18.5c1.2-0.4,2.3-0.9,3.4-1.5c-1.5,2.4-2.3,5.2-2.5,8
	C320.3,240,320.2,240.1,320.3,240.1L320.3,240.1z M369.2,290.3c-0.5,1.9-0.8,3.9-0.9,5.9c-1.8-2.8-4.5-4.9-7.6-6
	c-0.4-0.1-0.7-0.2-1.1-0.3c0.2-0.2,0.5-0.4,0.8-0.6c2.9-2,6.1-0.6,9.4,1.1C369.6,290.4,369.4,290.4,369.2,290.3L369.2,290.3z"/>
<path class="st4" d="M250.4,653.2c0,1.6,0.4,3.2,1.3,4.5c2.8,4.6,8.4,6.7,13.7,7.1s10.7-0.6,16-0.9c1.6-0.1,3.2-0.1,4.8-0.2
	c8.3-0.5,16.2-3.4,24-6.3c1.3-0.5,2.8-1.2,2.8-2.6c-0.1-0.9-0.5-1.8-1.3-2.4c-1-0.9-2.2-1.6-3.4-2.2c-4.3-1.9-9.5-1.4-13.7-3.8
	c-0.9-0.5-1.7-1.2-2.7-1.6c-1.1-0.4-2.3-0.7-3.5-0.8c-5.2-0.6-10.4-0.4-15.5,0.5c-3.9,0.7-7.7,1.9-11.7,2.1c-1.5,0.1-3,0-4.5-0.3
	c-1-0.2-2.3-1.1-3.2-0.5s-1.5,2.5-1.9,3.4C251,650.5,250.6,651.9,250.4,653.2z"/>
<path class="st5" d="M250.4,653.2c0,1.6,0.4,3.2,1.3,4.5c2.8,4.6,8.4,6.7,13.7,7.1s10.7-0.6,16-0.9c1.6-0.1,3.2-0.1,4.8-0.2
	c8.3-0.5,16.2-3.4,24-6.3c1.3-0.5,2.8-1.2,2.8-2.6c-0.1-0.9-0.5-1.8-1.3-2.4c-1-0.9-2.2-1.6-3.4-2.2c-4.3-1.9-9.5-1.4-13.7-3.8
	c-0.9-0.5-1.7-1.2-2.7-1.6c-1.1-0.4-2.3-0.7-3.5-0.8c-5.2-0.6-10.4-0.4-15.5,0.5c-3.9,0.7-7.7,1.9-11.7,2.1c-1.5,0.1-3,0-4.5-0.3
	c-1-0.2-2.3-1.1-3.2-0.5s-1.5,2.5-1.9,3.4C251,650.5,250.6,651.9,250.4,653.2z"/>
<path class="st4" d="M281.7,660.7c0,1.6,0.4,3.2,1.3,4.5c2.8,4.6,8.4,6.7,13.7,7.1s10.7-0.6,16-0.9c1.6-0.1,3.2-0.1,4.8-0.2
	c8.3-0.5,16.2-3.4,24-6.3c1.3-0.5,2.8-1.2,2.8-2.6c-0.1-0.9-0.6-1.8-1.3-2.3c-1-0.9-2.2-1.6-3.4-2.2c-4.3-1.9-9.5-1.4-13.7-3.8
	c-0.9-0.5-1.7-1.2-2.7-1.6c-1.1-0.4-2.3-0.7-3.5-0.8c-5.2-0.6-10.4-0.4-15.5,0.5c-3.9,0.7-7.7,1.9-11.7,2.1c-1.5,0.1-3,0-4.5-0.3
	c-1-0.2-2.3-1.1-3.2-0.5s-1.5,2.5-1.9,3.4C282.3,658,281.9,659.4,281.7,660.7z"/>
<path class="st6" d="M265.4,286.4c-0.4-1-1-1.9-1.9-2.5c-2.1-1.2-4.6,1-5.5,3.2s-1.2,4.8-3,6.4c-1.1,1-2.6,1.4-3.7,2.3
	c-2.5,2.1-2.2,6-1.7,9.2c2.2,12,6.1,23.7,7.6,35.8c0.6,4.8,0.9,9.6,2,14.2c0.7,2.7,1.8,5.5,4,7.3s5.7,2.2,7.8,0.3
	c-3.7-10.1-5.6-20.8-5.5-31.5c0.1-7,1-14,1.2-21.1c0.2-6.2-0.1-12.4-0.4-18.5c0-1.6-0.3-3.2-0.9-4.6c-0.7-1.5-2.1-2.4-3.8-2.4"/>
<circle class="st7" cx="310.3" cy="214.1" r="25.2"/>
<circle class="st6" cx="344.2" cy="264.5" r="25.2"/>
<path class="st6" d="M354.6,289c0.2,2,1,4.3,2.9,4.8c0.9,0.1,1.8,0.2,2.7,0.1c1.4,0.3,2.7,1.2,3.3,2.5c0.6,1.3,0.8,2.8,0.7,4.2
	c-0.2,2.2-0.9,4.3-2.1,6.2c-2.3,3.2-5.5,5.6-9.3,6.8c-3.7,1.1-7.6,1.9-11.5,2.1c-1.7,0.3-3.5,0.2-5.2-0.2c-1.1-0.3-2.1-0.9-3-1.5
	c-2.8-1.9-5.3-4.3-7.4-7.1c-1.5-1.9-2.6-4.1-3.2-6.5c-0.6-2.4-0.2-4.9,0.9-7c0.4-0.7,1-1.3,1.7-1.6c2.1-0.8,4.1,1.9,6.4,1.9
	c1.8,0,3.2-1.5,4-3.2s1.2-3.5,2.4-4.8c1.4-1.6,3.5-2.3,5.5-2.9c3.3-0.9,7.7-2.2,11.2-1.8c1.9,0.2,0.7,1.3,0.2,2.7
	C354.4,285.6,354.3,287.3,354.6,289z"/>
<path class="st8" d="M330.8,315.4c3.1-1.4,4.8-4.7,7.5-6.7c2.3-1.6,5.2-2.2,7.8-3.3c2.7-1.1,5.1-2.6,7.2-4.6c1.9-1.8,3.6-4,6-4.9
	c1.8-0.6,3.8-0.6,5.7,0c5.2,1.4,9.2,5.8,11.5,10.6s3.2,10.2,4.1,15.6l1.3,8c1,4.9,1.4,9.9,1.4,14.8c-0.2,5-1.5,10-4.5,14
	c-1.2,1.7-2.1,3.6-2.9,5.5c-0.4,0.9-0.7,1.9-0.9,2.8c0,0.8,0.1,1.7,0.2,2.5c0.4,4.3-2,8.3-2.9,12.5c-0.5,2.8-0.6,5.7-0.4,8.6
	c0,0.4,0.1,0.7,0.2,1.1c0.2,0.3,0.5,0.5,0.9,0.7c0.7,0.4,1.3,0.7,2,1c-5.5,1.2-11.2,1.8-16.8,1.8c-9.9-0.2-19.6-3-29.4-4.1
	c-0.4-4.5,0.9-8.9,1.1-13.4c0.1-3-0.1-5.9-0.5-8.8c-0.8-8-0.7-16,0.2-24c0.3-2.8,0.8-5.6,0.9-8.4c0.1-3.3-0.1-6.7,0.1-10
	c0.2-3.2,1-6.3,1.1-9.5C331.7,316.5,331.4,315.7,330.8,315.4z"/>
<path class="st9" d="M341.9,386.4c10.4,0.1,19.5,0.4,29.8,1.1c1.8,3-2.5,11.1-0.1,13.6c14.2,14.2,17.3,33.3,33.8,44.8
	c3.4,2.4,13,4.3,16,7.2c2.4,2.3-1.2,0.7,0.5,3.5c10,16.3,32.5,32.4,45.6,46.5c11.1,11.9,17,27.8,23.5,42.6c3.9,8.9,6,18.5,9,27.8
	s7.1,18.5,14.2,25.1c5.4,5.1,12.6,8.7,15.8,15.3c0.9,2.2,1.7,4.4,2.3,6.6c3.8,10.5,12.7,18.3,23.6,20.8c2.9,0.6,1.6,5.5,1.9,8.5
	c0.4,4.1,4.1,6.9,7.7,8.9c5.4,3,11.4,5,17.5,5.9c3.8,0.6,8.2,1.1,10,4.5c0.6,1.2,0.9,2.5,0.8,3.8c-0.1,6.7-6.4,12-13,13.3
	s-13.3-0.5-19.8-2.4c-1.1-0.4-2.3-0.6-3.5-0.5c-1.8,0.3-3,1.9-4.3,3.3c-8,8.6-20.4,11.6-31.5,7.5c-3.5-1.4-6.8-3.4-10.5-3.8
	c-5.7-0.5-10.9,3.1-15.9,6s-11.2,5.5-16.3,2.8c-1.7-0.9-3.2-2.3-5-2.5c-2.8-0.3-5.2,2.1-8,2c-3.1-0.1-5.2-3-7.3-5.3
	c-4.2-4.6-9.9-7.7-16.1-8.6c-1.2-0.2-2.4-0.2-3.5,0.1c-1.4,0.6-2.6,1.5-3.5,2.6c-2.7,2.6-6.1,5-9.9,4.8
	c-8.2-0.3-13.1-11.9-21.3-11.1c-10.7-5-23.9-2.4-35.6-1s-24.7,1.8-34.1-5.3c-4.9-3.8-8.3-9.3-12.9-13.5c-7.3-6.6-17.1-9.5-26.6-12.2
	c-15-4.3-30.6-8.6-46-6.3c-2.8,0.4-5.6,1-8.4,0.7s-5.6-1.8-6.6-4.5c-0.4-1.3-0.5-2.8-0.3-4.2c1.5-11.3,12.2-19.8,13.5-31.2
	c0.7-5.6,3.7-10.5,6.9-15.2c2.7-4.2,5.2-8.5,7.5-12.9c5.3-10,10.7-20,14.7-30.6c4.2-11.1,6.9-22.7,9.6-34.3
	c2.6-11.2,3.8-22.6,5.7-33.9c1.4-8.2,3.5-16.3,5.6-24.4c6.3-23.8,12.6-47.8,23-70.2C327.6,384.2,335,386.4,341.9,386.4z"/>
<path class="st9" d="M341.9,389.4c10.4,0.1,19.5-0.6,29.8,0.1c1.8,3,5.7,6.5,8.1,8.9c14.2,14.2,24.7,32.2,41.1,43.7
	c3.4,2.4,7.1,4.5,10,7.4c2.3,2.4,4.3,5.1,5.9,8c10,16.3,17.5,34.5,30.6,48.5c11.1,11.9,17,27.8,23.5,42.6c3.9,8.9,6,18.5,9,27.8
	s7.1,18.5,14.2,25.1c5.4,5.1,12.6,8.7,15.8,15.3c0.9,2.2,1.7,4.4,2.3,6.6c3.8,10.5,12.7,18.3,23.6,20.8c2.9,0.6,1.6,5.5,1.9,8.5
	c0.4,4.1,4.1,6.9,7.7,8.9c5.4,3,11.4,5,17.5,5.9c3.8,0.6,8.2,1.1,10,4.5c0.6,1.2,0.9,2.5,0.8,3.8c-0.1,6.7-6.4,12-13,13.3
	s-13.3-0.5-19.8-2.4c-1.1-0.4-2.3-0.6-3.5-0.5c-1.8,0.3-3,1.9-4.3,3.3c-8,8.6-20.4,11.6-31.5,7.5c-3.5-1.4-6.8-3.4-10.5-3.8
	c-5.7-0.5-10.9,3.1-15.9,6s-11.2,5.5-16.3,2.8c-1.7-0.9-3.2-2.3-5-2.5c-2.8-0.3-5.2,2.1-8,2c-3.1-0.1-5.2-3-7.3-5.3
	c-4.2-4.6-9.9-7.7-16.1-8.6c-1.2-0.2-2.4-0.2-3.5,0.1c-1.4,0.6-2.6,1.5-3.5,2.6c-2.7,2.6-6.1,5-9.9,4.8
	c-8.2-0.3-13.1-11.9-21.3-11.1c-10.7-5-23.9-2.4-35.6-1s-24.7,1.8-34.1-5.3c-4.9-3.8-8.3-9.3-12.9-13.5c-7.3-6.6-17.1-9.5-26.6-12.2
	c-15-4.3-30.6-8.6-46-6.3c-2.8,0.4-5.6,1-8.4,0.7s-5.6-1.8-6.6-4.5c-0.4-1.3-0.5-2.8-0.3-4.2c1.5-11.3,12.2-19.8,13.5-31.2
	c0.7-5.6,3.7-10.5,6.9-15.2c2.7-4.2,5.2-8.5,7.5-12.9c5.3-10,10.7-20,14.7-30.6c4.2-11.1,6.9-22.7,9.6-34.3
	c2.6-11.2,3.8-22.6,5.7-33.9c1.4-8.2,3.5-16.3,5.6-24.4c6.3-23.8,12.6-47.8,23-70.2C327.6,387.2,335,389.4,341.9,389.4z"/>
<path class="st8" d="M341.9,387.4c10.4,0.1,19.5-0.6,29.8,0.1c1.8,3,5.7,6.5,8.1,8.9c14.2,14.2,24.7,32.2,41.1,43.7
	c3.4,2.4,7.1,4.5,10,7.4c2.3,2.4,4.3,5.1,5.9,8c10,16.3,17.5,34.5,30.6,48.5c11.1,11.9,17,27.8,23.5,42.6c3.9,8.9,6,18.5,9,27.8
	s7.1,18.5,14.2,25.1c5.4,5.1,12.6,8.7,15.8,15.3c0.9,2.2,1.7,4.4,2.3,6.6c3.8,10.5,12.7,18.3,23.6,20.8c2.9,0.6,1.6,5.5,1.9,8.5
	c0.4,4.1,4.1,6.9,7.7,8.9c5.4,3,11.4,5,17.5,5.9c3.8,0.6,8.2,1.1,10,4.5c0.6,1.2,0.9,2.5,0.8,3.8c-0.1,6.7-6.4,12-13,13.3
	s-13.3-0.5-19.8-2.4c-1.1-0.4-2.3-0.6-3.5-0.5c-1.8,0.3-3,1.9-4.3,3.3c-8,8.6-20.4,11.6-31.5,7.5c-3.5-1.4-6.8-3.4-10.5-3.8
	c-5.7-0.5-10.9,3.1-15.9,6s-11.2,5.5-16.3,2.8c-1.7-0.9-3.2-2.3-5-2.5c-2.8-0.3-5.2,2.1-8,2c-3.1-0.1-5.2-3-7.3-5.3
	c-4.2-4.6-9.9-7.7-16.1-8.6c-1.2-0.2-2.4-0.2-3.5,0.1c-1.4,0.6-2.6,1.5-3.5,2.6c-2.7,2.6-6.1,5-9.9,4.8
	c-8.2-0.3-13.1-11.9-21.3-11.1c-10.7-5-23.9-2.4-35.6-1s-24.7,1.8-34.1-5.3c-4.9-3.8-8.3-9.3-12.9-13.5c-7.3-6.6-17.1-9.5-26.6-12.2
	c-15-4.3-30.6-8.6-46-6.3c-2.8,0.4-5.6,1-8.4,0.7s-5.6-1.8-6.6-4.5c-0.4-1.3-0.5-2.8-0.3-4.2c1.5-11.3,12.2-19.8,13.5-31.2
	c0.7-5.6,3.7-10.5,6.9-15.2c2.7-4.2,5.2-8.5,7.5-12.9c5.3-10,10.7-20,14.7-30.6c4.2-11.1,6.9-22.7,9.6-34.3
	c2.6-11.2,3.8-22.6,5.7-33.9c1.4-8.2,3.5-16.3,5.6-24.4c6.3-23.8,12.6-47.8,23-70.2C327.6,385.2,335,387.4,341.9,387.4z"/>
<path class="st4" d="M251.7,433.3c-3.3,3.6-2.5,9.3-0.6,13.8s4.9,8.7,5.4,13.6c0.2,1.6,0.1,3.3,0.4,4.9c0.2,1.2,0.6,2.3,0.9,3.4
	c0.4,1.4,0.6,2.9,0.8,4.4c1.1,7.1,1.8,14.3,2.2,21.5c0.5,10.2,0.4,20.4,0.3,30.6c-0.2,14.3-7,27.6-10.3,41.5c-0.6,2.1-1,4.3-1.1,6.6
	c0,3,0.3,5.9,0.9,8.8c2.9,18.2,2.3,36.8-1.8,54.8c3,2.4,5.1,6.3,4.4,10.1c6.5,1.1,13.2,2.2,19.4,0.2c3.8-1.2,7.1-3.6,11-4.3
	c3-0.5,6.5-0.3,8.6-2.5c0.9-1,1.5-2.2,1.8-3.5c7.3-21.3,5.3-44.5,4.9-67c-0.2-12.1,0-24.2-0.5-36.3c-0.9-21.6-4.3-42.9-10.1-63.7
	c-2.8-10-5.5-20-11-28.9c-1.1-2.1-2.7-3.8-4.6-5.2c-2.1-1.3-4.6-1.6-7.1-1.9C260.5,433.6,256.8,433.9,251.7,433.3z"/>
<path class="st5" d="M293.9,637.1c-0.4,1.3-1,2.5-1.8,3.5c-2.1,2.2-5.6,1.9-8.6,2.5c-0.4,0.1-0.8,0.2-1.1,0.3
	c-3.4,0.9-6.5,2.9-9.9,4c-6.2,2-13,0.9-19.4-0.2c0.7-3.7-1.4-7.7-4.4-10.1c4.1-18,4.7-36.6,1.8-54.8c-0.6-2.9-0.9-5.8-0.9-8.8
	c0.2-2.2,0.6-4.4,1.1-6.6c3.3-13.9,10.1-27.2,10.3-41.5c0.1-10.2,0.3-20.4-0.3-30.6c-0.4-7.2-1.1-14.4-2.2-21.5
	c-0.2-1.5-0.5-2.9-0.8-4.4c-0.3-1.1-0.7-2.2-0.9-3.4c-0.3-1.6-0.2-3.2-0.4-4.9c-0.5-4.9-3.5-9.1-5.4-13.5c-0.8-1.9-1.3-3.8-1.6-5.8
	c-0.5-2.9,0.3-5.8,2.2-8c3.4,0.4,6.2,0.4,9.2,0.5c1.5,0.1,3,0.2,4.7,0.3c2.4,0.3,5,0.6,7.1,1.9c1.9,1.3,3.5,3.1,4.6,5.2
	c0.5,0.9,1,1.8,1.5,2.6c4.5,8.2,6.9,17.2,9.5,26.2c5.8,20.8,9.2,42.2,10.1,63.7c0.5,12.1,0.2,24.2,0.5,36.3
	C299.2,592.6,301.2,615.8,293.9,637.1z"/>
<path class="st4" d="M330.8,441.1c0,1.8,0,3.5,0,5.3c0,16.9-0.1,33.8-0.1,50.7c0,7,0,13.9-0.7,20.8c-1.8,18-8.4,35.4-7.6,53.5
	c0.5,13.1,1,26.3-1.6,39.2c-1,4.9-2.5,9.8-3.2,14.7s-0.6,10.2,1.3,14.8c1.4,3.3,3.8,6.4,3.7,10c-0.3,3.1-2.1,5.9-4.7,7.5
	c-2.7,1.5-5.6,2.5-8.7,2.9c-3.8,0.6-7.7,0.9-11.5,0.9c-5.5-0.1-11.8-1.3-14.7-6c-1.9-3.2-1.8-7.2-0.9-10.8c0.1-0.4,0.2-0.8,0.3-1.2
	c0.9-3.2,2.3-6.2,3-9.4c1.2-5.1,0.8-10.3-1.1-15.2c-0.3-0.9-1.4-2.6-2.4-2.5c-1.5-4-1.8-8.3-2-12.5l-1.4-28.7
	c-0.3-6.2-0.6-12.6,0.7-18.7c1-5,3.1-9.8,3.7-14.8c0.3-3,0.3-6.1,0-9.2c-1.1-15.7-3.2-31.3-6.1-46.7c-0.1-0.8-0.4-1.5-0.8-2.2
	c-0.7-0.9-1.8-1.3-2.6-2.2c-1.7-1.7-1.5-4.4-1.9-6.7c-0.7-4.2-3.5-7.8-5.7-11.5c-3.5-6-5.4-12.7-5.6-19.6c-0.1-3.3,0.1-6.5,0.8-9.7
	c0.1-0.4,0.2-0.9,0.3-1.3c21.8-1.4,43.7,0,65.1,4c1.6,0.3,3.3,0.7,4.1,2.2C330.7,439.4,330.9,440.3,330.8,441.1z"/>
<path class="st9" d="M453.6,519.8c10.8,18.9,21.6,37.9,30.1,58c6.9,16.2,12.6,33.6,24.3,46.8c10.9,12.4,26,20.2,40.8,27.7
	l-13.3-11.7c-13.3-11.8-26.9-23.8-35.3-39.4c-4.6-8.5-7.5-17.8-11-26.8c-8.9-23.3-21.2-45.1-36.6-64.6c-4.3-5.6-8.9-11-13.8-16.1
	C442.2,502.6,448.8,511.5,453.6,519.8z"/>
<path class="st9" d="M398.7,649.6c3.2,6.7,6.5,13.4,11.5,18.9c0.4-3.3-1.8-6.3-3.6-9.1c-3.2-5.1-5.2-10.8-7.2-16.5
	c-1.8-5.2-3.5-12.5-7.4-16.6C390,633.5,395.7,643.5,398.7,649.6z"/>
<path class="st9" d="M361.2,524.9c0.9,5,1.5,10,2.8,14.9c1.2,4.4,2.8,8.7,4.5,12.9l21.1,52.5c-0.2-7.1-4-13.6-6.4-20.3
	c-3-8.2-4.1-17-6.5-25.5c-2-6.9-4.9-13.4-7-20.2c-2.9-9.6-4.1-19.7-6.4-29.5c-2.1-8.5-4.6-16.8-7.7-25c-1.4-3.9-3-7.9-6.1-10.5
	s-8.3-3.4-11.2-0.5c-4.1,4.1,2.1,6.6,4.2,9.3C351.8,495.2,358.3,509.6,361.2,524.9L361.2,524.9z"/>
<path class="st9" d="M389.5,416.3c1.1,1.1,2.1,2.4,2.9,3.8c1.1,2.1,1.6,4.5,3,6.4c-2.5-3.5-5.4-6.8-8.5-9.7c-1.9-1.7-4-3.1-5.9-4.7
	c-1.5-1.3-7.9-6.7-6.6-8.6C379.9,406.4,385.2,411.7,389.5,416.3z"/>
<path class="st7" d="M322.5,228.5c-0.2,2.1-1.5,3.9-2.6,5.6c-3.2,5.3-5,11.3-5.1,17.5c-0.1,1.8,0,3.6,0.2,5.4
	c0.1,0.7,0.1,1.5-0.5,1.9c-0.3,0.1-0.7,0.2-1,0.1c-0.7-0.1-1.3-0.1-2-0.2c-10.7-1.7-20-9-30.8-10.8c1.3-0.6,2.3-1.8,2.8-3.2
	c0.3-0.8,0.5-1.6,0.6-2.5c0.2-0.9,0.3-1.8,0.4-2.6c0.7-6.4-0.3-12.4-0.7-18.9c-0.4-7.6,9-5.1,14.5-5.2c4.4-0.1,8.9-0.1,13.2,1
	s8.4,3.9,10.2,7.9C322.4,225.6,322.7,227,322.5,228.5z"/>
<path class="st9" d="M314.6,258.8c-0.3,0.1-0.7,0.2-1,0.1c-0.7-0.1-1.3-0.1-2-0.2c-0.9-0.9-1.8-1.8-2.7-2.7c-2-2.2-3.8-4.7-6.1-6.5
	c-3.6-2.8-8-4.3-12.5-4.5c-2.3,0.1-4.5-0.1-6.8-0.4c0.3-0.8,0.5-1.6,0.6-2.5c0.2-0.9,0.3-1.8,0.4-2.6c1.3-0.2,2.5-0.3,3.8-0.3
	c1.5-0.2,3-0.2,4.5-0.1c2.5,0.4,4.6,1.8,6.9,2.9c3.1,1.6,6.4,2.8,9.2,4.8c0.9,0.6,1.7,1.3,2.6,2c1.1,0.9,2.3,1.9,3.4,2.8
	c-0.1,1.8,0,3.6,0.2,5.4C315.1,257.6,315.1,258.5,314.6,258.8z"/>
<path class="st10" d="M330.8,441.1c0,1.8,0,3.5,0,5.3c-4.2,0.1-8.4,0.7-12.5,1c-3.9,0.3-7.8,0.3-11.7,0.2c-3.1,0.1-6.1-0.3-9.1-1
	c-2.1-0.6-4.1-1.6-6.2-2.3c-4-1.2-8.2-1.1-12.5-0.6c-3.4,0.4-6.9,1-10.3,1.3c-2.2,0.3-4.5,0.1-6.6-0.7c-0.6-0.3-1.2-0.6-1.7-0.9
	c-0.8-0.6-1.7-1.1-2.6-1.5c-2.5-1.1-5.2-0.9-8-0.7c-0.5-2.9,0.3-5.8,2.2-8c3.4,0.4,6.2,0.4,9.2,0.5c0.1-0.4,0.2-0.9,0.3-1.3
	c21.8-1.4,43.7,0,65.1,4c1.6,0.3,3.3,0.7,4.1,2.2C330.7,439.4,330.9,440.3,330.8,441.1z"/>
<path class="st4" d="M285.4,243c-2.2,0.3-4.5,0.8-5.9,2.5c-0.4,0.4-0.7,1-0.8,1.6c0.1,0.9,0.3,1.9,0.5,2.8c0,1.2-0.3,2.4-0.9,3.4
	c-1.5,3-3,6.1-5.4,8.3c-1,0.9-2.1,1.7-3.1,2.6c-1.1,1.1-2.2,2.3-3.1,3.5c-2.1,2.6-4.3,5.4-5,8.7c-1.4,5.7-4.2,11.1-6,16.7
	s-3,11.5-2,17.3c0.5,2.7,1.4,5.4,2.1,8.1c1.1,4.3,1.4,8.8,2.5,13.1c0.7,2.7,1.7,5.3,2.5,8c1.7,5.8,2.1,11.9,1.3,17.9
	c-0.8,5.5,0.5,11.3-1.7,16.3c-0.9,1.9-1.9,3.7-3,5.4c-1.4,2.6-2.7,5.3-3.8,8l-6.2,14.6c-1.2,2.7-2.3,5.5-3.2,8.4
	c-2.6,8.4-2.6,17.3-2.2,26c0,0.3,0,0.6-0.2,0.8c-0.2,0.2-0.6,0.1-0.6-0.1c-0.1,0.5-0.4,1.4-0.5,1.9c5.2,2.3,11.7-1.2,16.9,1.2
	c1.5,0.7,2.8,1.8,4.3,2.5c2.1,0.8,4.4,1,6.6,0.7c7.6-0.6,15.5-3,22.8-0.7c2.1,0.7,4.1,1.7,6.2,2.3c3,0.7,6,1.1,9.1,1
	c3.9,0.1,7.8,0,11.7-0.2c8.4-0.6,17.2-2.4,24.9,0.9c2.5-1.8,2.7-4.7,2.8-7.8c0.2-5.8,0.4-11.6,0.6-17.4l2.1-64
	c0.3-4.4,0.1-8.8-0.5-13.2c-1.4-7.9-5.7-15-10-21.8l-19.9-32c-1.3-2.1,0-4.5,0.9-6.8c1.3-3.3,2.1-6.8,2.6-10.4
	c0.3-2.6,0.3-5.5-1.5-7.5c-1-1.1-2.4-1.7-3.5-2.6c-1.7-1.4-2.7-3.3-3.7-5.1c-2.8-5-6.8-9.2-11.7-12.2
	C296.4,242.8,291.1,242.4,285.4,243z"/>
<path class="st10" d="M305.9,272.1c-7.1,2-11.5,9.1-13.4,16.2c-2.7,9.9-2.1,20.5,0.3,30.4s6.5,19.4,10.6,28.8c1,2.3,2.1,4.5,3.3,6.7
	c3.4,5.9,8.5,10.5,14.7,13.3c6.2,2.7,13.2,3.1,19.7,0.9c1.2-0.4,2.3-0.9,3.3-1.7c3.5-2.7,4.1-7.8,4.4-12.2l0.9-15.6
	c0.1-0.8,0-1.7-0.1-2.5c-0.4-1.1-1-2.1-1.8-3c-2.9-3.8-5.1-8.1-6.4-12.7c-0.9-3.2-1.4-6.6-2.8-9.6c-0.8-1.8-2-3.5-2.9-5.3
	c-2-3.9-2.7-8.3-3.6-12.5c-0.8-3.7-1.8-7.4-2.9-11c-0.5-2-1.4-3.9-2.5-5.7c-2.8-3.7-7.6-5.1-12.1-6c-2.1-0.6-4.4-0.7-6.6-0.3
	c-2.5,0.7-4.4,2.6-6.1,4.4"/>
<path class="st4" d="M306.9,271.1c-7.1,2-11.5,9.1-13.4,16.2c-2.7,9.9-2.1,20.5,0.3,30.4s6.5,19.4,10.6,28.8c1,2.3,2.1,4.5,3.3,6.7
	c3.4,5.9,8.5,10.5,14.7,13.3c6.2,2.7,13.2,3.1,19.7,0.9c1.2-0.4,2.3-0.9,3.3-1.7c3.5-2.7,4.1-7.8,4.4-12.2l0.9-15.6
	c0.1-0.8,0-1.7-0.1-2.5c-0.4-1.1-1-2.1-1.8-3c-2.9-3.8-5.1-8.1-6.4-12.7c-0.9-3.2-1.4-6.6-2.8-9.6c-0.8-1.8-2-3.5-2.9-5.3
	c-2-3.9-2.7-8.3-3.6-12.5c-0.8-3.7-1.8-7.4-2.9-11c-0.5-2-1.4-3.9-2.5-5.7c-2.8-3.7-7.6-5.1-12.1-6c-2.1-0.6-4.4-0.7-6.6-0.3
	c-2.5,0.7-4.4,2.6-6.1,4.4"/>
<path class="st7" d="M375.9,312.8c-2.5-5.3-3-11.3-1.3-16.9c3.9,1,5,6.8,9,7.8c0.6,0.1,1.2,0.2,1.8,0.3c2.8,0.6,4.8,3,6.2,5.5
	c2.3,3.8,3.8,8.2,4.2,12.6c0.4,4.5-0.7,9-3,12.9c0.1-0.1-7-7.4-7.6-8.2c-1.2-1.5-2.5-3-3.7-4.5c-1.3-1.4-2.4-2.9-3.4-4.5
	c-0.3-0.6-0.4-1.4-0.7-2.1C377,314.8,376.4,313.8,375.9,312.8z"/>
<path class="st6" d="M357.7,371.6c-1.2,9.6-5.6,18.5-12.4,25.4c-1.5,1.5-3.4,3-5.6,2.8c-2.3-0.2-3.9-2.3-5.5-4c-3-3-7-4.8-10.3-7.4
	c-1.7-1.4-3.4-2.9-4.9-4.6c-4.9-5-9.8-10-13.7-15.8c-2.2-3.3-4.1-6.8-6.7-9.8c-2.1-2.4-4.6-4.3-6.7-6.5s-4.1-4.9-4.6-8
	c-0.5-3.3-4-5.4-6.2-7.9c-5.4-6.4-7.6-14.9-6.1-23.2c0.4-1.7,1.1-3.7,2.8-4.3c0.7-0.2,1.4-0.2,2.1-0.1c4.2,0.6,7.4,4.1,10.1,7.4
	c1.9,2.1,3.6,4.4,5.1,6.8c3.3,5.4,4.9,11.7,6.3,17.9c0.9,3.6,4.5,6.3,7.1,8.9l6.5,6.7c1.5,1.6,3.1,3.2,4.8,4.6
	c4.6,3.9,10.2,6.6,15.8,9c0.5-1.8,1.2-3.5,2.2-5.1c1-1.6,2.6-2.7,4.5-3c2.6-0.3,4.9,1.4,7,3l7.6,6
	C357.2,370.7,357.8,371.1,357.7,371.6z"/>
<path class="st10" d="M369.9,311.9c0.9,1,1.7,2.2,2.2,3.5c1.7,3.5,2.5,7.4,2.2,11.3c-0.3,2.1-0.7,4.2-1.4,6.2l-2.4,8.2
	c-3.7,12.7-7.4,25.4-12.4,37.7c-4.1-5.3-11.3-6.9-17.1-10.3c-0.6-0.3-1.1-0.7-1.5-1.2c-0.5-0.8-0.8-1.6-0.8-2.6
	c0.1-2.5,0.6-4.9,1.6-7.1c3.6-9.8,8.7-19.3,9.3-29.7c0-1.9,0.1-3.9,0.4-5.8c0.9-4.6,3.7-8.7,7.7-11.1
	C361,308.8,366.9,309,369.9,311.9z"/>
<path class="st8" d="M368.9,309.6c0.9,1,1.7,2.2,2.2,3.5c1.7,3.5,2.5,7.4,2.2,11.3c-0.3,2.1-0.7,4.2-1.4,6.2l-2.4,8.2
	c-3.7,12.7-7.4,25.4-12.4,37.7c-4.1-5.3-11.3-6.9-17.1-10.3c-0.6-0.3-1.1-0.7-1.5-1.2c-0.5-0.8-0.8-1.6-0.8-2.6
	c0.1-2.5,0.6-4.9,1.6-7.1c3.6-9.8,8.7-19.3,9.3-29.7c0-1.9,0.1-3.9,0.4-5.8c0.9-4.6,3.7-8.7,7.7-11.1
	C360,306.5,365.9,306.7,368.9,309.6z"/>
<path class="st4" d="M345.7,256.5c2,2.1,2.6,5.2,2.9,8.1c0.9,7.5,0.9,15.3-1.5,22.5s-7.3,13.8-14.2,16.8c9.7,1.6,21.2,2.5,27.7-4.8
	c1.3-1.4,2.3-3.1,4-4.2c7-4.4,15.8,7.2,23.3,3.9c5-2.2,5.4-8.9,5-14.3l-1.4-20c-0.7-10.2-1.6-21-7.4-29.4
	c-5.3-7.6-13.9-12.1-22.7-15c-6.3-2-13.4-3.3-19.5-0.8c-7.9,3.2-23,16.1-22.9,25.6C319.1,259.1,339.1,249.5,345.7,256.5z"/>
<path class="st4" d="M351.6,334.5c1.1,0,2.2-0.1,3.3-0.4c1.7-0.6,3-2.2,4.8-2.5c0.9-0.1,2.1,0,2.5-0.9c0.1-0.4,0.2-0.8,0.1-1.2
	c0.1-2.4,3.2-3.3,5.2-4.6c1.3-0.9,2.4-2,3.4-3.3l7.1-8.4c0.7-1,1.6-1.7,2.7-2c1.3-0.1,2.5,0.2,3.5,1c8.4,5.6,13.1,15.4,12.1,25.4
	c0,0.7-0.2,1.4-0.5,1.9c-1.1,1.7-3.7,1.3-5.7,1.9c-3.8,1.2-4.9,6.1-8.1,8.3c-1.5,1-3.2,1.4-4.6,2.5s-2.5,2.9-3.8,4.3
	c-2,2.3-4.9,3.6-7.6,5l-8.4,4.1c-1.6,0.9-3.4,1.6-5.1,2.1c-3.1,0.7-6.2,1-9.3,0.8l-6.1-0.1c-0.7,0.1-1.4-0.1-2-0.4
	c-0.4-0.3-0.7-0.6-0.9-1c-3.1-4.7-3.8-10.8-2.7-16.4c0.9-4.6,3.1-11,6.4-14.5C340.9,333.2,347.7,334.6,351.6,334.5z"/>
<path class="st4" d="M327.2,205c-0.4-2,0.6-3.9,2.3-4.9l7.6-5.7l-1.6-2.3l2.9-2.5c-0.5-0.7-1.3-1-2.2-0.8c0.5-3.1-2.2-5.7-4.7-7.5
	c-5.1-3.7-11-6.9-17.3-7.3c-3.1-0.2-6.1,0.2-9.2,0c-4.1-0.3-8.2-1.7-12.3-1.8s-8.8,1.5-10.5,5.2c-0.7,1.6-0.8,3.5-1.4,5.1
	c-1.2,3.7-4.5,6.3-7.4,9.1s-5.4,6.5-4.6,10.3c0.3,1.2,0.8,2.4,1.4,3.5l15.5,29.9c1.1-2,3-3.3,5.2-3.6c2.5-0.3,5,0.8,7.6,1.2
	c3.9,0.4,7.7-1.1,10.3-4c3.4-3.9,4.2-14,10.2-15c2.1-0.4,5.5,2.3,7.3,1.2C328.5,214,327.2,207.2,327.2,205z"/>
<g class="st11">
	<path d="M338.9,300.8c7-3,11.9-9.6,14.2-16.8s2.3-15,1.5-22.5c-0.3-2.9-0.9-6-2.9-8.1c-6.6-7-26.6,2.6-26.8-11.4
		c-0.1-8.1,10.9-18.6,19-23.6c-0.7,0.2-1.4,0.4-2.1,0.7c-7.9,3.2-23,16.1-22.9,25.6c0.2,14.1,20.2,4.5,26.8,11.5
		c2,2.1,2.6,5.2,2.9,8.1c0.9,7.5,0.9,15.3-1.5,22.5s-7.3,13.8-14.2,16.8c8.5,1.4,18.5,2.3,25.2-2.5
		C352.1,302.5,345.1,301.8,338.9,300.8z"/>
	<path d="M370.6,291.9c-0.7,0.5-1.4,1.1-1.9,1.7c6.1,0.4,13.1,7.5,19.2,4.9c1.1-0.5,2-1.2,2.7-2.1
		C383.9,296.1,376.5,288.1,370.6,291.9z"/>
</g>
<g class="st11">
	<path d="M335.6,184.9c-0.1-0.2-0.3-0.4-0.5-0.6c0,0.2,0,0.5,0,0.7C335.2,184.9,335.4,184.9,335.6,184.9z"/>
	<path d="M338.7,189.6c-0.5-0.7-1.3-1-2.2-0.8c0.1-0.8,0-1.5-0.2-2.2l-2.1,1.8l1.6,2.3l-7.6,5.7c-1.7,0.9-2.7,2.9-2.3,4.9
		c0,2.2,1.4,9.1-0.8,10.3c-1.8,1-5.2-1.6-7.3-1.2c-5.9,1-6.8,11-10.2,15c-2.6,2.9-6.4,4.4-10.3,4c-2.5-0.3-5-1.5-7.6-1.1
		c-2.2,0.3-4.2,1.6-5.2,3.6c-5.2-10-10.3-19.9-15.5-29.9v0.2c0.3,1.2,0.8,2.4,1.4,3.5l15.5,29.9c1.1-2,3-3.3,5.2-3.6
		c2.5-0.3,5,0.8,7.6,1.2c3.9,0.4,7.7-1.1,10.3-4c3.4-3.9,4.2-14,10.2-15c2.1-0.4,5.5,2.3,7.3,1.2c2.2-1.2,0.9-8.1,0.8-10.3
		c-0.1-1,0-2.1,0.4-3c0.5-0.8,1.1-1.4,1.9-1.9l7.6-5.7l-1.6-2.3L338.7,189.6z"/>
</g>
<path class="st10" d="M251.1,406.7c-1,4.3-1.6,8.6-3,12.8c-0.6,1.9-1.3,3.7-1.9,5.6c-0.5,1.7-0.9,3.4-1.3,5.2l-1.6,7
	c1-0.1,1.9-0.6,2.5-1.4c0.5-0.8,1-1.7,1.2-2.7l2.7-8.1l2-6c2.8-8.5,5.7-16.9,7.9-25.6c0.5-2.1,1-4.3,1.5-6.4
	c0.2-0.8,1.5-5.5,0.1-5.1c-1,0.3-2.6,4.5-3,5.4c-1,1.8-1.8,3.7-2.6,5.6C253.6,397.5,252.1,402.1,251.1,406.7z"/>
<path class="st12" d="M303.2,294.8c0,0-4.5-1.6-5.6,0.3c0,0,8.2,3,9.9,7.3c0,0,2.1-2.2-0.8-5l-0.5-4.1L303.2,294.8z"/>
<path class="st2" d="M310.7,288.6c0,0,0.2-2.1-0.8-2.3s-8.1,0.2-7,8s9.3,4.9,9.3,4.9l3.6-4.2c0,0,0.8-5.5-4.2-6.8L310.7,288.6z"/>
<path class="st10" d="M305,284.4c0,0-6.1,3.1-3.2,10.9l2.3-1.3C304.2,293.9,307.1,287.2,305,284.4z"/>
<path class="st13" d="M304.8,284.2c0,0-6.1,3.1-3.1,10.9l1.8,1C303.5,296.2,306.9,287,304.8,284.2z"/>
<path class="st10" d="M314.9,292.2c0.3,1.1,1,2,1.9,2.7c1.4,1-1.4,3.3-1.4,3.3s-3.9,4.4-7.5,2.3c-2.2-3.7-0.5-4.2-0.5-4.2
	S311.8,291.3,314.9,292.2z"/>
<path class="st2" d="M315,292.4c0.3,1.1,1,2,1.9,2.7c1.4,1-1.4,3.3-1.4,3.3s-3.9,4.4-7.5,2.3s-0.5-4.2-0.5-4.2
	S311.9,291.5,315,292.4z"/>
<path class="st14" d="M301.1,284.3c0,0-4.5,1.6-4.2,3.8c0,0,8.3-2.8,12.3-0.5c0,0,0.3-3-3.7-3.4l-3-2.8L301.1,284.3z"/>
<path class="st2" d="M303,274.8c0,0-1.1-1.8-2-1.3s-6.1,5.2-0.4,10.6s10.3-2,10.3-2l0.1-5.5c0,0-2.9-4.8-7.6-2.6L303,274.8z"/>
<path class="st10" d="M296,275.1c0,0-2.8,6.3,4.4,10.5l1-2.5C301.4,283.1,299.3,276,296,275.1z"/>
<path class="st13" d="M295.7,275.1c0,0-2.8,6.3,4.4,10.5l2-0.3C302.2,285.3,299,276,295.7,275.1z"/>
<path class="st10" d="M308.5,275c0.9,0.6,2,1,3.2,0.9c1.8-0.1,1,3.5,1,3.5s-0.2,5.9-4.5,6.5c-4-1.5-3.1-2.9-3.1-2.9
	S305.5,276.2,308.5,275z"/>
<path class="st2" d="M308.7,275.1c0.9,0.6,2,1,3.2,0.9c1.8-0.1,1,3.5,1,3.5s-0.2,5.9-4.4,6.5s-3.1-2.9-3.1-2.9
	S305.8,276.3,308.7,275.1z"/>
<path class="st12" d="M285.6,286.2c0,0,1.4-1.3,2.2,0.4l-0.7,3.7l-4.1,36.8l-2.6,4.8L285.6,286.2z"/>
<polygon class="st12" points="297.9,277.6 280.6,333.8 282.2,334.7 299.3,278 "/>
<path class="st12" d="M293.2,303.1c0,0-3.9,14.7-8.2,20.5s-3.5,10.7-3.5,10.7l1.4,0.4l11.5-30.6L293.2,303.1z"/>
<polygon class="st12" points="307.3,290.2 282.6,333.2 283.8,333.8 309.2,290.5 "/>
<polygon class="st12" points="312.8,301.5 282,333.6 282.9,334.8 314.1,302.3 "/>
<path class="st12" d="M314.7,303.9c0,0-0.4-1.8-1.8-1.5S284.4,333,284.4,333l1.1,0.9L314.7,303.9z"/>
<path class="st12" d="M284.3,284.2c0,0-4.6,1.3-4.4,3.5c0,0,8.5-2.3,12.3,0.3c0,0,0.5-3-3.5-3.6l-2.8-3L284.3,284.2z"/>
<path class="st2" d="M286.9,274.9c0,0-1-1.8-2-1.4s-6.5,4.8-1.1,10.5s10.4-1.3,10.4-1.3l0.5-5.5c0,0-2.5-4.9-7.4-3.2L286.9,274.9z"
	/>
<path class="st10" d="M279.9,274.7c0,0-3.2,6.1,3.7,10.7l1.1-2.4C284.7,283,283.1,275.8,279.9,274.7z"/>
<path class="st2" d="M279.6,274.7c0,0-3.2,6.1,3.7,10.7l2.1-0.2C285.3,285.3,282.9,275.8,279.6,274.7z"/>
<path class="st10" d="M292.4,275.5c0.9,0.7,2,1.1,3.1,1.1c1.8,0,0.7,3.5,0.7,3.5s-0.6,5.8-4.9,6.2c-3.9-1.8-2.9-3.1-2.9-3.1
	S289.4,276.5,292.4,275.5z"/>
<path class="st2" d="M292.6,275.6c0.9,0.7,2,1.1,3.1,1.2c1.8,0,0.7,3.5,0.7,3.5s-0.6,5.8-4.9,6.2s-2.9-3.1-2.9-3.1
	S289.6,276.6,292.6,275.6z"/>
<path class="st12" d="M296.1,275.6c0,0-4.6,1.3-4.4,3.5c0,0,8.5-2.3,12.3,0.3c0,0,0.5-3-3.5-3.6l-2.8-3L296.1,275.6z"/>
<path class="st2" d="M298.7,266.3c0,0-1-1.8-2-1.4s-6.5,4.8-1.1,10.5s10.4-1.3,10.4-1.3l0.5-5.5c0,0-2.5-4.9-7.4-3.2L298.7,266.3z"
	/>
<path class="st10" d="M291.7,266.1c0,0-3.2,6.1,3.7,10.7l1.1-2.4C296.5,274.4,295,267.2,291.7,266.1z"/>
<path class="st2" d="M291.4,266.1c0,0-3.2,6.1,3.7,10.7l2.1-0.2C297.2,276.6,294.7,267.2,291.4,266.1z"/>
<path class="st10" d="M304.2,266.9c0.9,0.7,2,1.1,3.1,1.1c1.8,0,0.7,3.5,0.7,3.5s-0.6,5.8-4.9,6.2c-3.9-1.8-2.9-3.1-2.9-3.1
	S301.2,267.9,304.2,266.9z"/>
<path class="st2" d="M304.4,267c0.9,0.7,2,1.1,3.1,1.1c1.8,0,0.7,3.5,0.7,3.5s-0.6,5.8-4.9,6.2s-2.9-3.1-2.9-3.1
	S301.4,268,304.4,267z"/>
<path class="st12" d="M306.1,287.6c0,0-4.5-1.6-5.6,0.3c0,0,8.2,3,9.9,7.3c0,0,2.1-2.2-0.8-5l-0.5-4.1L306.1,287.6z"/>
<path class="st2" d="M313.6,281.5c0,0,0.2-2.1-0.8-2.3s-8.1,0.2-7,8s9.3,4.9,9.3,4.9l3.6-4.2c0,0,0.8-5.5-4.2-6.8L313.6,281.5z"/>
<path class="st10" d="M308,277.3c0,0-6.1,3.1-3.1,10.9l2.3-1.3C307.1,286.8,310,280,308,277.3z"/>
<path class="st2" d="M307.8,277.1c0,0-6.1,3.1-3.2,10.9l1.8,1C306.4,289,309.8,279.9,307.8,277.1z"/>
<path class="st10" d="M317.8,285.1c0.3,1.1,1,2,1.9,2.7c1.4,1-1.4,3.3-1.4,3.3s-3.9,4.4-7.5,2.3c-2.2-3.7-0.5-4.2-0.5-4.2
	S314.7,284.2,317.8,285.1z"/>
<path class="st2" d="M317.9,285.3c0.3,1.1,1,2,1.9,2.7c1.4,1-1.4,3.3-1.4,3.3s-3.9,4.4-7.5,2.3s-0.5-4.2-0.5-4.2
	S314.8,284.4,317.9,285.3z"/>
<path class="st12" d="M313.4,299.9c0,0-4.5-1.6-5.6,0.3c0,0,8.2,3,9.9,7.3c0,0,2.1-2.2-0.8-5l-0.5-4.1L313.4,299.9z"/>
<path class="st2" d="M320.9,293.7c0,0,0.2-2.1-0.8-2.3s-8.1,0.2-6.9,8s9.3,4.9,9.3,4.9l3.6-4.2c0,0,0.8-5.5-4.2-6.8L320.9,293.7z"/>
<path class="st10" d="M315.2,289.5c0,0-6.1,3.1-3.1,10.9l2.3-1.3C314.4,299.1,317.3,292.3,315.2,289.5z"/>
<path class="st2" d="M315,289.3c0,0-6.1,3.1-3.2,10.9l1.8,1C313.6,301.3,317,292.1,315,289.3z"/>
<path class="st10" d="M325,297.3c0.3,1.1,1,2,1.9,2.7c1.4,1-1.4,3.3-1.4,3.3s-3.9,4.4-7.5,2.3c-2.2-3.7-0.5-4.2-0.5-4.2
	S322,296.4,325,297.3z"/>
<path class="st13" d="M325.1,297.6c0.3,1.1,1,2,1.9,2.7c1.4,1-1.4,3.3-1.4,3.3s-3.9,4.4-7.5,2.3s-0.5-4.2-0.5-4.2
	S322.1,296.6,325.1,297.6z"/>
<path class="st12" d="M314.3,304c0,0-4.5-1.6-5.6,0.3c0,0,8.2,3,9.9,7.3c0,0,2.1-2.2-0.8-5l-0.5-4.1L314.3,304z"/>
<path class="st2" d="M321.8,297.8c0,0,0.2-2-0.8-2.3s-8.1,0.2-7,8s9.3,4.9,9.3,4.9l3.6-4.2c0,0,0.8-5.5-4.2-6.8L321.8,297.8z"/>
<path class="st10" d="M316.1,293.6c0,0-6.1,3.1-3.1,10.9l2.3-1.3C315.3,303.2,318.2,296.4,316.1,293.6z"/>
<path class="st2" d="M315.9,293.4c0,0-6.1,3.1-3.1,10.9l1.8,1.1C314.6,305.4,318,296.2,315.9,293.4z"/>
<path class="st10" d="M325.9,301.4c0.3,1.1,1,2,1.9,2.7c1.4,1-1.4,3.3-1.4,3.3s-3.9,4.4-7.5,2.3c-2.2-3.7-0.5-4.2-0.5-4.2
	S322.9,300.5,325.9,301.4z"/>
<path class="st2" d="M326,301.7c0.3,1.1,1,2,1.9,2.7c1.4,1-1.4,3.3-1.4,3.3s-3.9,4.4-7.5,2.3s-0.5-4.2-0.5-4.2S323,300.7,326,301.7z
	"/>
<path class="st12" d="M292.3,301.3c0,0-4.5-1.6-5.6,0.3c0,0,8.2,3,9.9,7.3c0,0,2.1-2.2-0.8-5l-0.5-4.1L292.3,301.3z"/>
<path class="st2" d="M299.8,295.1c0,0,0.2-2-0.8-2.3s-8.1,0.2-7,8s9.3,4.9,9.3,4.9l3.6-4.2c0,0,0.8-5.5-4.2-6.8L299.8,295.1z"/>
<path class="st10" d="M294.1,290.9c0,0-6.1,3.1-3.1,10.9l2.3-1.3C293.3,300.5,296.2,293.7,294.1,290.9z"/>
<path class="st2" d="M293.9,290.8c0,0-6.1,3.1-3.1,10.9l1.8,1C292.5,302.7,296,293.6,293.9,290.8z"/>
<path class="st10" d="M303.9,298.8c0.3,1.1,1,2,1.9,2.7c1.4,1-1.4,3.3-1.4,3.3s-3.9,4.4-7.5,2.3c-2.2-3.7-0.5-4.2-0.5-4.2
	S300.9,297.8,303.9,298.8z"/>
<path class="st2" d="M304,299c0.3,1.1,1,2,1.9,2.7c1.4,1-1.4,3.3-1.4,3.3s-3.9,4.4-7.5,2.3s-0.5-4.2-0.5-4.2S301,298,304,299z"/>
<path class="st12" d="M294.8,287.8c0,0-4.5-1.6-5.6,0.3c0,0,8.2,3,9.9,7.3c0,0,2.1-2.2-0.8-5l-0.5-4.1L294.8,287.8z"/>
<path class="st2" d="M302.3,281.6c0,0,0.2-2-0.8-2.3s-8.1,0.2-7,8s9.3,4.9,9.3,4.9l3.6-4.2c0,0,0.8-5.5-4.2-6.8L302.3,281.6z"/>
<path class="st10" d="M296.6,277.5c0,0-6.1,3.1-3.1,10.9l2.3-1.3C295.7,287,298.6,280.2,296.6,277.5z"/>
<path class="st2" d="M296.4,277.3c0,0-6.1,3.1-3.1,10.9l1.8,1C295,289.2,298.4,280.1,296.4,277.3z"/>
<path class="st10" d="M306.4,285.3c0.3,1.1,1,2,1.9,2.7c1.4,1-1.4,3.3-1.4,3.3s-3.9,4.4-7.5,2.3c-2.2-3.7-0.5-4.2-0.5-4.2
	S303.3,284.4,306.4,285.3z"/>
<path class="st2" d="M306.5,285.5c0.3,1.1,1,2,1.9,2.7c1.4,1-1.4,3.3-1.4,3.3s-3.9,4.4-7.5,2.3s-0.5-4.2-0.5-4.2
	S303.4,284.6,306.5,285.5z"/>
<path class="st6" d="M279.7,308.2c0,0,12.4,1.4,19.1,22.9s-14.4,5.4-14.4,5.4s-5.6,1.1-6.5-10.1S279.7,308.2,279.7,308.2z"/>
<path class="st9" d="M278.1,325.3l3-1.3c0.3-0.2,0.8,0,0.9,0.3l0,0c0.2,0.3,0,0.8-0.4,0.9l-3,1.3c-0.3,0.2-0.8,0-0.9-0.3l0,0
	C277.6,325.9,277.8,325.5,278.1,325.3z"/>
<path class="st0" d="M228.7,244.1l-2-1.8c-7.2-6.6-11.9-10.9-11.9-16.2c-0.1-4.2,3.3-7.6,7.5-7.7c0.1,0,0.1,0,0.2,0
	c2.4,0,4.7,1.1,6.3,3c1.6-1.9,3.9-2.9,6.3-3c4.2,0,7.6,3.3,7.7,7.5c0,0.1,0,0.1,0,0.2c0,5.3-4.7,9.6-11.9,16.2L228.7,244.1z"/>
<path class="st0" d="M200.8,130.7l-2-1.8c-7.2-6.6-11.9-10.9-11.9-16.2c-0.1-4.2,3.3-7.6,7.5-7.7c0.1,0,0.1,0,0.2,0
	c2.4,0,4.7,1.1,6.3,2.9c1.6-1.9,3.9-2.9,6.3-2.9c4.2,0,7.6,3.3,7.7,7.5c0,0.1,0,0.1,0,0.2c0,5.3-4.7,9.6-11.9,16.2L200.8,130.7z"/>
<path class="st0" d="M410.2,185.1l-2-1.8c-7.2-6.6-11.9-10.9-11.9-16.2c-0.1-4.2,3.3-7.6,7.5-7.7c0.1,0,0.1,0,0.2,0
	c2.4,0,4.7,1.1,6.3,3c1.6-1.9,3.9-2.9,6.3-3c4.2-0.1,7.6,3.3,7.7,7.5c0,0.1,0,0.1,0,0.2c0,5.3-4.8,9.6-11.9,16.2L410.2,185.1z"/>
<path class="st15" d="M823.9,171.4c-4-5.4-12.3,0.5-8.5,6.1c1,1.5,2,2.9,3.1,4.3c12.3,16.6,18.7,36.8,24.2,56.8
	c1.3,4.9,2.7,10.1,1.1,15c2.2-13,0.8-26.4-2.5-39.1s-8.5-24.9-13.8-36.9C826.5,175.4,825.3,173.4,823.9,171.4z"/>
<path class="st2" d="M744,206.4c-8.3-0.2-9.4,12.4-1.1,13c2.2,0.2,4.4,0.2,6.4,0.3c25.4,0.7,49.5,9.9,72.6,19.8
	c5.7,2.4,11.6,5.2,15,10.4c-10.4-12.1-24.1-20.9-38.7-27.4s-30.1-10.8-45.7-14.8C749.7,207,746.9,206.5,744,206.4z"/>
<path class="st16" d="M746.3,237.4c-5.2,0.2-4.1,7.6,1.2,7.7c1.4,0,2.8,0,4.1-0.1c16-0.6,32.5,3.8,48.4,8.6c3.9,1.2,8,2.5,10.9,5.5
	c-8.3-6.7-18.2-11.3-28.3-14.5s-20.5-5.1-30.8-6.8C750,237.5,748.2,237.3,746.3,237.4z"/>
<path class="st15" d="M853.7,376c1.5,5,8.4,2,7.2-3.1c-0.3-1.3-0.7-2.7-1.1-3.9c-4.6-15.4-4.4-32.4-3.6-49c0.2-4.1,0.5-8.4,2.6-11.9
	c-4.4,9.7-6.4,20.4-7,31s0.2,21.1,1.1,31.5C852.9,372.4,853.2,374.2,853.7,376z"/>
<path class="st16" d="M755.9,164.5c-3.2-0.5-3.4,4-0.2,4.8c0.8,0.2,1.7,0.3,2.5,0.5c9.7,1.6,18.9,6.4,27.8,11.3
	c2.2,1.2,4.5,2.5,5.8,4.7c-4.2-5-9.3-9.1-15.1-12.3c-5.6-3.1-11.5-5.8-17.5-8C758.1,165,757,164.7,755.9,164.5z"/>
<path class="st2" d="M707.1,286.4c-8,4.1-1.2,15.5,7,11.7c2.2-1,4.3-2.1,6.3-3.1c24.5-12.7,52.9-17.4,80.9-21
	c6.9-0.9,14.2-1.6,20.5,1.1c-17.3-4.9-35.7-5.3-53.6-3.2s-35.2,6.5-52.3,11.2C712.9,283.9,709.9,285,707.1,286.4z"/>
<path class="st15" d="M730,330.4c-5.8,5.4,3.2,11.7,9.3,6.6c1.6-1.4,3.1-2.8,4.5-4.1c17.5-16.5,40.7-28.2,63.8-39
	c5.7-2.6,29-5.4,35.2-5.2c-16.3,1.5-49.5,6.5-64.3,13.2s-28.5,15-41.9,23.5C734.3,326.9,732.1,328.6,730,330.4z"/>
<path class="st2" d="M771.1,400.8c-1.7,7.7,9.3,7.8,11.4,0.1c0.5-2,1-4,1.4-6c5.1-23.5,17.5-46.3,30.3-68.3
	c3.2-5.4,20.8-20.9,26-24.3c-12.6,10.5-37,33.5-45.3,47.4s-14.8,28.5-21.1,43.1C772.6,395.4,771.7,398.1,771.1,400.8z"/>
<path class="st2" d="M853.8,130.7c-3.9-8-15.1-1.4-11.6,6.8c0.9,2.1,2,4.2,3,6.2c12.1,24.4,16.2,52.7,19.3,80.5
	c0.8,6.8,1.4,14.1-1.3,20.4c5.1-17.1,5.7-35.4,4-53s-5.9-34.9-10.2-52C856.2,136.5,855.1,133.6,853.8,130.7z"/>
<path class="st2" d="M791.3,144.4c0.2,0.1,0.4,0.2,0.7,0.2c0.4,0,0.7-0.4,0.9-0.8c1-2.1,0.4-4.9,1.9-6.7c1.5,1.8,2.8,3.9,3.7,6.1
	l5.8-1.8c0.5,2.3,0.2,4.6-1.1,6.6c1,0.4,1.9,1.1,2.7,1.8c0.8,0.8,1.1,2,0.7,3c-1.3,0.3-2.7,0.5-4.1,0.4c0.2,2.5,0.1,5.1-0.4,7.6
	c0,0.4-0.2,0.7-0.5,1c-0.5,0.2-1,0.1-1.4-0.2c-2-1.2-3.6-2.9-4.7-5l-2.1,5c-0.2,0.5-0.5,1-1,1.3c-0.7,0.2-1.4,0-1.8-0.6
	c-0.4-0.6-0.6-1.3-0.6-1.9l-0.8-4.9c0-0.3-0.1-0.5-0.3-0.7c-0.2-0.1-0.5-0.2-0.8-0.2c-2-0.1-4-0.1-6.1-0.1c-0.3-1.1,0.7-2.1,1.8-2.5
	c1-0.5,2.3-0.8,2.8-1.8c1.1-2.1-1.7-4.9-0.5-6.7C787.3,141.4,789.5,143.5,791.3,144.4z"/>
<path class="st15" d="M902.4,171.4c4-5.4,12.3,0.5,8.5,6.1c-1,1.5-2,2.9-3.1,4.3c-12.3,16.6-18.7,36.8-24.2,56.8
	c-1.3,4.9-2.7,10.1-1.1,15c-2.2-13-0.8-26.4,2.5-39.1s8.5-24.9,13.8-36.9C899.9,175.4,901,173.4,902.4,171.4z"/>
<path class="st2" d="M982.3,206.4c8.3-0.2,9.4,12.4,1.1,13c-2.2,0.2-4.4,0.2-6.4,0.3c-25.4,0.7-49.5,9.9-72.6,19.8
	c-5.7,2.4-11.6,5.2-15,10.4c10.4-12.1,24.1-20.9,38.7-27.4s30.1-10.8,45.7-14.8C976.5,207,979.4,206.5,982.3,206.4z"/>
<path class="st15" d="M980,237.4c5.2,0.2,4.1,7.6-1.2,7.7c-1.4,0-2.8,0-4.1-0.1c-16-0.6-32.5,3.8-48.4,8.6c-3.9,1.2-8,2.5-10.9,5.5
	c8.3-6.7,18.2-11.3,28.3-14.5s20.5-5.1,30.8-6.8C976.3,237.5,978.2,237.3,980,237.4z"/>
<path class="st16" d="M970.4,164.5c3.2-0.5,3.4,4,0.2,4.8c-0.8,0.2-1.7,0.3-2.5,0.5c-9.7,1.6-18.9,6.4-27.8,11.3
	c-2.2,1.2-4.5,2.5-5.8,4.7c4.2-5,9.3-9.1,15.1-12.3c5.6-3.1,11.5-5.8,17.5-8C968.2,165,969.3,164.7,970.4,164.5z"/>
<path class="st16" d="M888.2,385.5c-0.7,3.1-5,1.6-4.5-1.6c0.2-0.8,0.3-1.6,0.5-2.4c2.2-9.6,1.4-19.9,0.3-30
	c-0.3-2.5-0.6-5.1-2.1-7.2c3,5.8,4.8,12.1,5.5,18.6c0.7,6.4,0.9,12.8,0.6,19.2C888.6,383.3,888.4,384.4,888.2,385.5z"/>
<path class="st15" d="M968.4,364.8c2.5,4.2-3.6,3.9-6.2-0.3c-0.7-1.1-1.3-2.2-2-3.2c-7.5-12.8-19-25.4-30.5-37.6
	c-2.8-3-5.9-6.1-9.4-8.1c9,6.1,17.3,13.2,24.8,21.2c7.4,7.7,13.9,15.8,20.3,23.8C966.5,361.8,967.5,363.3,968.4,364.8z"/>
<path class="st16" d="M749,364.8c-2.5,4.2,3.6,3.9,6.3-0.3c0.7-1.1,1.3-2.2,2-3.2c7.5-12.8,18.9-25.4,30.5-37.6
	c2.8-3,5.9-6.1,9.4-8.1c-9,6.1-17.3,13.2-24.8,21.2c-7.4,7.7-13.9,15.8-20.3,23.8C750.9,361.8,749.9,363.3,749,364.8z"/>
<path class="st16" d="M829.2,385.5c0.7,3.1,5,1.6,4.5-1.6c-0.2-0.8-0.3-1.6-0.5-2.4c-2.2-9.6-1.4-19.9-0.3-30
	c0.3-2.5,0.6-5.1,2.1-7.2c-3,5.8-4.8,12.1-5.5,18.6c-0.7,6.4-0.9,12.8-0.6,19.2C828.9,383.3,829,384.5,829.2,385.5z"/>
<path class="st16" d="M945.2,195.9c3.2-0.5,3.4,4.1,0.2,4.8c-0.8,0.2-1.7,0.3-2.4,0.5c-9.7,1.6-18.9,6.4-27.8,11.3
	c-2.2,1.2-4.5,2.5-5.8,4.7c4.2-5,9.3-9.1,15-12.3c5.6-3.1,11.5-5.8,17.5-8C942.9,196.4,944,196,945.2,195.9z"/>
<path class="st16" d="M915.7,134.2c2.7-1.7,4.7,2.5,2,4.3c-0.7,0.5-1.4,0.9-2.1,1.3c-8.3,5.1-15.2,13-21.6,20.9
	c-1.6,1.9-3.2,4-3.6,6.5c2.1-6.2,5.2-12,9.4-17c4.1-5,8.5-9.6,13.3-13.9C913.8,135.5,914.7,134.8,915.7,134.2z"/>
<path class="st2" d="M1019.2,286.4c8,4.1,1.2,15.5-7,11.7c-2.2-1-4.3-2.1-6.3-3.1c-24.5-12.7-52.9-17.4-80.9-21
	c-6.9-0.9-14.2-1.6-20.5,1.1c17.3-4.9,35.7-5.3,53.6-3.2s35.2,6.5,52.3,11.2C1013.4,283.9,1016.4,285,1019.2,286.4z"/>
<path class="st15" d="M996.3,330.4c5.8,5.4-3.2,11.7-9.3,6.6c-1.6-1.4-3.1-2.8-4.5-4.1c-17.5-16.5-40.7-28.2-63.8-39
	c-5.7-2.6-29-5.4-35.2-5.2c16.3,1.5,49.5,6.5,64.3,13.2s28.5,15,41.9,23.5C992,326.9,994.2,328.6,996.3,330.4z"/>
<path class="st2" d="M928.5,409.6c0.7,7.8-10.2,6.6-11.3-1.3c-0.3-2.1-0.4-4.1-0.6-6.1c-2.1-24-11.5-48.2-21.5-71.6
	c-2.5-5.8-18-23.3-22.8-27.4c11.2,11.9,32.5,37.9,39,52.7s11.2,30.2,15.5,45.5C927.6,404.1,928.2,406.8,928.5,409.6z"/>
<path class="st2" d="M935,144.4c-0.2,0.1-0.4,0.2-0.7,0.2c-0.4,0-0.7-0.4-0.9-0.8c-1-2.1-0.4-4.9-1.9-6.7c-1.5,1.8-2.8,3.9-3.7,6.1
	l-5.8-1.8c-0.5,2.3-0.2,4.6,1.1,6.6c-1,0.4-1.9,1.1-2.7,1.8c-0.8,0.8-1.1,2-0.7,3c1.3,0.3,2.7,0.5,4.1,0.4c-0.2,2.5-0.1,5.1,0.4,7.6
	c0,0.4,0.2,0.7,0.5,1c0.5,0.2,1,0.1,1.4-0.2c2-1.2,3.6-2.9,4.7-5l2.1,5c0.2,0.5,0.5,1,1,1.3c0.7,0.2,1.4,0,1.8-0.6
	c0.4-0.6,0.6-1.3,0.6-1.9l0.8-4.9c0-0.3,0.1-0.5,0.3-0.7c0.2-0.2,0.5-0.3,0.8-0.2c2-0.1,4-0.1,6.1-0.1c0.3-1.1-0.7-2.1-1.8-2.5
	c-1-0.4-2.3-0.8-2.8-1.8c-1.1-2,1.7-4.9,0.5-6.7C939,141.4,936.8,143.5,935,144.4z"/>
<path class="st16" d="M952.4,381.4c-0.2,0.1-0.4,0.2-0.7,0.2c-0.4,0-0.7-0.4-0.9-0.8c-1-2.1-0.4-4.9-1.9-6.7
	c-1.5,1.8-2.8,3.9-3.7,6.1l-5.8-1.8c-0.5,2.3-0.2,4.6,1.1,6.6c-1,0.4-1.9,1.1-2.7,1.8c-0.8,0.8-1,1.9-0.7,3c1.3,0.3,2.7,0.5,4.1,0.4
	c-0.2,2.5-0.1,5.1,0.4,7.6c0,0.6,0.4,1.1,1,1.1c0.3,0,0.7-0.1,0.9-0.4c2-1.2,3.6-2.9,4.7-5l2.1,5.1c0.2,0.5,0.5,1,1,1.3
	c0.7,0.2,1.4,0,1.8-0.6c0.4-0.6,0.6-1.3,0.6-1.9l0.8-4.9c0-0.2,0.1-0.5,0.3-0.7c0.2-0.2,0.5-0.3,0.8-0.2c2,0,4-0.1,6.1-0.1
	c0.3-1.1-0.7-2.1-1.8-2.5s-2.3-0.8-2.8-1.8c-1.1-2.1,1.7-4.9,0.5-6.7C956.4,378.4,954.2,380.5,952.4,381.4z"/>
<path class="st2" d="M1001.2,222.5c-0.2,0.1-0.4,0.2-0.7,0.2c-0.4,0-0.7-0.4-0.9-0.8c-1-2.1-0.4-4.9-1.9-6.7
	c-1.5,1.8-2.8,3.9-3.7,6.1l-5.8-1.8c-0.5,2.3-0.2,4.6,1.1,6.6c-1,0.4-1.9,1.1-2.7,1.8c-0.8,0.8-1.1,2-0.7,3c1.3,0.3,2.7,0.5,4.1,0.4
	c-0.2,2.5-0.1,5.1,0.4,7.6c0,0.4,0.2,0.8,0.5,1c0.4,0.3,1,0,1.4-0.2c2-1.2,3.6-2.9,4.7-5l2.1,5.1c0.2,0.5,0.5,1,0.9,1.3
	c0.7,0.2,1.4,0,1.8-0.6c0.4-0.6,0.6-1.3,0.6-1.9l0.8-4.9c0-0.3,0.1-0.5,0.3-0.7c0.2-0.2,0.5-0.3,0.8-0.2c2,0,4-0.1,6.1-0.1
	c0.3-1.1-0.7-2.1-1.8-2.5s-2.3-0.8-2.8-1.8c-1.1-2.1,1.7-4.9,0.5-6.7C1005.1,219.5,1002.9,221.6,1001.2,222.5z"/>
<path class="st2" d="M806.2,405.1c-0.3,0.2-0.6,0.3-0.9,0.3c-0.6,0-1-0.6-1.3-1.2c-1.4-3-0.6-6.8-2.7-9.3c-2.1,2.6-3.9,5.5-5.1,8.5
	l-8-2.5c-0.8,3.1-0.2,6.5,1.5,9.2c-1.4,0.6-2.7,1.5-3.8,2.6c-1.1,1.1-1.5,2.8-1,4.3c1.9,0.5,3.8,0.6,5.7,0.6
	c-0.3,3.5-0.1,7.1,0.6,10.5c0,0.5,0.3,1,0.7,1.3c0.6,0.4,1.4,0,2-0.3c2.8-1.7,5-4.1,6.6-7l3,7.1c0.2,0.7,0.7,1.4,1.3,1.8
	c0.9,0.3,2,0,2.5-0.9c0.5-0.8,0.8-1.7,0.9-2.7l1.1-6.8c0-0.4,0.1-0.7,0.4-1c0.3-0.3,0.8-0.4,1.2-0.3c2.8-0.1,5.7-0.1,8.5-0.1
	c0.5-1.5-1-2.9-2.5-3.5s-3.2-1.1-3.9-2.5c-1.5-2.9,2.3-6.9,0.7-9.3C811.7,401,808.6,403.9,806.2,405.1z"/>
<path class="st2" d="M725,227.2c-0.3,0.2-0.6,0.3-1,0.3c-0.6,0-1-0.6-1.3-1.2c-1.4-3-0.6-6.8-2.7-9.3c-2.2,2.6-3.9,5.5-5.1,8.6
	l-8-2.5c-0.8,3.1-0.2,6.5,1.5,9.2c-1.4,0.6-2.7,1.5-3.8,2.6c-1.1,1.1-1.5,2.8-1,4.2c1.9,0.4,3.8,0.6,5.7,0.6
	c-0.3,3.5-0.1,7.1,0.6,10.5c0,0.5,0.3,1,0.7,1.3c0.6,0.4,1.4,0,2-0.3c2.8-1.7,5.1-4.1,6.6-7l3,7.1c0.2,0.7,0.7,1.4,1.3,1.8
	c0.9,0.3,2,0,2.5-0.9c0.5-0.8,0.8-1.7,0.9-2.7l1.1-6.8c0-0.4,0.1-0.7,0.4-1c0.3-0.3,0.8-0.4,1.2-0.3c2.8-0.1,5.7-0.1,8.5-0.1
	c0.5-1.5-1-2.9-2.5-3.5s-3.2-1.1-3.9-2.5c-1.5-2.9,2.3-6.9,0.7-9.3C730.6,223.1,727.5,226,725,227.2z"/>
<path class="st16" d="M971.2,337.4c-0.2,0.1-0.3,0.1-0.5,0.1c-0.3,0-0.5-0.3-0.7-0.6c-0.7-1.6-0.3-3.6-1.4-4.9
	c-1.1,1.4-2,2.9-2.7,4.5l-4.3-1.3c-0.4,1.7-0.1,3.4,0.8,4.9c-0.7,0.3-1.4,0.8-2,1.4c-0.6,0.6-0.8,1.5-0.5,2.2c1,0.2,2,0.3,3,0.3
	c-0.2,1.9,0,3.8,0.3,5.6c0,0.3,0.2,0.5,0.4,0.7c0.3,0.2,0.7,0,1-0.2c1.5-0.9,2.7-2.2,3.5-3.7l1.6,3.8c0.1,0.4,0.4,0.7,0.7,1
	c0.5,0.2,1,0,1.3-0.5c0.3-0.4,0.4-0.9,0.5-1.4l0.6-3.6c0-0.2,0.1-0.4,0.2-0.5c0.2-0.1,0.4-0.2,0.6-0.2c1.5,0,3-0.1,4.5,0
	c0.3-0.8-0.5-1.5-1.3-1.9s-1.7-0.6-2.1-1.3c-0.8-1.5,1.2-3.6,0.4-5C974.2,335.2,972.5,336.7,971.2,337.4z"/>
<path class="st16" d="M861,401c-0.2,0.1-0.3,0.1-0.5,0.1c-0.3,0-0.5-0.3-0.7-0.6c-0.7-1.6-0.3-3.6-1.4-5c-1.1,1.4-2,2.9-2.7,4.5
	l-4.3-1.3c-0.4,1.7-0.1,3.4,0.8,4.9c-0.7,0.3-1.4,0.8-2,1.4c-0.6,0.6-0.8,1.5-0.5,2.2c1,0.2,2,0.3,3,0.3c-0.2,1.9-0.1,3.8,0.3,5.6
	c0,0.3,0.1,0.5,0.4,0.7c0.3,0.2,0.7,0,1-0.2c1.5-0.9,2.7-2.2,3.5-3.7l1.6,3.8c0.1,0.4,0.4,0.7,0.7,0.9c0.5,0.2,1,0,1.3-0.5
	c0.3-0.4,0.4-0.9,0.5-1.4l0.6-3.6c0-0.2,0.1-0.4,0.2-0.5c0.2-0.1,0.4-0.2,0.6-0.2c1.5,0,3-0.1,4.5,0c0.3-0.8-0.5-1.5-1.3-1.9
	s-1.7-0.6-2.1-1.3c-0.8-1.5,1.2-3.6,0.4-5C864,398.9,862.3,400.4,861,401z"/>
<path class="st15" d="M754.4,178.3c-0.2,0.1-0.3,0.1-0.5,0.1c-0.3,0-0.5-0.3-0.7-0.6c-0.7-1.6-0.3-3.6-1.4-5c-1.1,1.4-2,2.9-2.7,4.5
	l-4.3-1.3c-0.4,1.7-0.1,3.4,0.8,4.9c-0.7,0.3-1.4,0.8-2,1.4c-0.6,0.6-0.8,1.5-0.5,2.3c1,0.2,2,0.3,3,0.3c-0.2,1.9-0.1,3.8,0.3,5.6
	c0,0.3,0.1,0.5,0.4,0.7c0.3,0.1,0.7,0.1,1-0.2c1.5-0.9,2.7-2.2,3.5-3.7l1.6,3.8c0.1,0.4,0.4,0.8,0.7,1c0.5,0.2,1,0,1.3-0.5
	c0.3-0.4,0.4-0.9,0.5-1.4l0.7-3.6c0-0.2,0.1-0.4,0.2-0.5c0.2-0.1,0.4-0.2,0.6-0.2c1.5,0,3,0,4.5,0c0.3-0.8-0.5-1.5-1.3-1.9
	s-1.7-0.6-2.1-1.3c-0.8-1.5,1.2-3.6,0.4-5C757.3,176.2,755.7,177.7,754.4,178.3z"/>
<path class="st15" d="M811.1,303.8c-0.2,0.1-0.3,0.1-0.5,0.1c-0.3,0-0.5-0.3-0.7-0.6c-0.7-1.6-0.3-3.6-1.4-5c-1.1,1.4-2,2.9-2.7,4.5
	l-4.3-1.3c-0.4,1.7-0.1,3.4,0.8,4.9c-0.7,0.3-1.4,0.8-2,1.4c-0.6,0.6-0.8,1.5-0.5,2.3c1,0.2,2,0.3,3,0.3c-0.2,1.9-0.1,3.8,0.3,5.6
	c0,0.4,0.3,0.8,0.7,0.8c0.3,0,0.5-0.1,0.7-0.3c1.5-0.9,2.7-2.2,3.5-3.7l1.6,3.8c0.1,0.4,0.4,0.7,0.7,1c0.5,0.2,1,0,1.3-0.5
	c0.3-0.4,0.4-0.9,0.5-1.4l0.6-3.6c0-0.2,0.1-0.4,0.2-0.5c0.2-0.1,0.4-0.2,0.6-0.2c1.5,0,3-0.1,4.5,0c0.2-0.8-0.5-1.5-1.3-1.9
	s-1.7-0.6-2.1-1.3c-0.8-1.5,1.2-3.6,0.4-5C814.1,301.6,812.4,303.2,811.1,303.8z"/>
<path class="st15" d="M769.9,254.9c-0.2,0.1-0.3,0.1-0.5,0.1c-0.3,0-0.5-0.3-0.7-0.6c-0.7-1.6-0.3-3.6-1.4-5c-1.1,1.4-2,2.9-2.7,4.5
	l-4.3-1.3c-0.4,1.7-0.1,3.4,0.8,4.9c-0.7,0.3-1.4,0.8-2,1.4c-0.6,0.6-0.8,1.5-0.5,2.3c1,0.2,2,0.3,3,0.3c-0.2,1.9-0.1,3.8,0.3,5.6
	c0,0.4,0.3,0.8,0.7,0.8c0.3,0,0.5-0.1,0.7-0.3c1.5-0.9,2.7-2.2,3.5-3.7l1.6,3.8c0.1,0.4,0.4,0.8,0.7,1c0.5,0.2,1,0,1.3-0.5
	c0.3-0.4,0.4-0.9,0.5-1.4l0.6-3.6c0-0.2,0.1-0.4,0.2-0.5c0.2-0.1,0.4-0.2,0.6-0.2c1.5,0,3-0.1,4.5,0c0.3-0.8-0.5-1.5-1.3-1.9
	s-1.7-0.6-2.1-1.3c-0.8-1.5,1.2-3.6,0.4-5C772.9,252.7,771.2,254.2,769.9,254.9z"/>
<path class="st15" d="M946.9,266.4c-0.2,0.1-0.3,0.1-0.5,0.1c-0.3,0-0.5-0.3-0.7-0.6c-0.7-1.6-0.3-3.6-1.4-5
	c-1.1,1.4-2.1,2.9-2.7,4.5l-4.3-1.3c-0.4,1.7-0.1,3.4,0.8,4.9c-0.7,0.3-1.4,0.8-2,1.4c-0.6,0.6-0.8,1.5-0.5,2.3c1,0.2,2,0.3,3,0.3
	c-0.2,1.9-0.1,3.8,0.3,5.6c0,0.4,0.3,0.8,0.7,0.8c0.3,0,0.5-0.1,0.7-0.3c1.5-0.9,2.7-2.2,3.5-3.7l1.6,3.8c0.1,0.4,0.4,0.7,0.7,1
	c0.5,0.2,1,0,1.3-0.5c0.3-0.4,0.4-0.9,0.5-1.4l0.6-3.6c0-0.2,0.1-0.4,0.2-0.5c0.2-0.1,0.4-0.2,0.6-0.2c1.5,0,3-0.1,4.5,0
	c0.2-0.8-0.5-1.5-1.3-1.9s-1.7-0.6-2.1-1.3c-0.8-1.5,1.2-3.6,0.4-5C949.8,264.2,948.2,265.8,946.9,266.4z"/>
<path class="st16" d="M861,256.8c-0.2,0.1-0.3,0.1-0.5,0.1c-0.3,0-0.5-0.3-0.7-0.6c-0.7-1.6-0.3-3.6-1.4-4.9c-1.1,1.4-2,2.9-2.7,4.5
	l-4.2-1.3c-0.4,1.7-0.1,3.4,0.8,4.9c-0.7,0.3-1.4,0.8-2,1.4c-0.6,0.6-0.8,1.5-0.5,2.2c1,0.2,2,0.3,3,0.3c-0.2,1.9-0.1,3.8,0.3,5.6
	c0,0.3,0.1,0.5,0.4,0.7c0.3,0.2,0.7,0,1-0.2c1.5-0.9,2.8-2.2,3.6-3.7l1.6,3.8c0.1,0.4,0.4,0.7,0.7,1c0.5,0.2,1,0,1.3-0.5
	c0.2-0.5,0.4-1,0.4-1.5l0.6-3.6c0-0.2,0.1-0.4,0.2-0.5c0.2-0.1,0.4-0.2,0.6-0.2c1.5,0,3,0,4.5,0c0.3-0.8-0.5-1.5-1.3-1.9
	s-1.7-0.6-2.1-1.3c-0.8-1.5,1.2-3.6,0.4-5C864,254.6,862.3,256.1,861,256.8z"/>
<path class="st17" d="M834.1,268.5c-0.2,0.1-0.3,0.1-0.5,0.1c-0.3,0-0.5-0.3-0.7-0.6c-0.7-1.6-0.3-3.6-1.4-4.9
	c-1.1,1.4-2,2.9-2.7,4.5l-4.3-1.3c-0.4,1.7-0.1,3.4,0.8,4.9c-0.7,0.3-1.4,0.8-2,1.4c-0.6,0.6-0.8,1.5-0.5,2.2c1,0.2,2,0.3,3,0.3
	c-0.2,1.9,0,3.8,0.3,5.6c0,0.3,0.2,0.5,0.4,0.7c0.3,0.2,0.7,0,1-0.2c1.5-0.9,2.7-2.2,3.5-3.7l1.6,3.8c0.1,0.4,0.4,0.7,0.7,1
	c0.5,0.2,1,0,1.3-0.5c0.3-0.4,0.4-0.9,0.5-1.4l0.6-3.6c0-0.2,0.1-0.4,0.2-0.5c0.2-0.1,0.4-0.2,0.6-0.2c1.5,0,3-0.1,4.5,0
	c0.3-0.8-0.5-1.5-1.3-1.9s-1.7-0.6-2.1-1.3c-0.8-1.5,1.2-3.6,0.4-5C837,266.3,835.4,267.9,834.1,268.5z"/>
<path class="st16" d="M809,197.6c-0.2,0.1-0.3,0.1-0.5,0.1c-0.3,0-0.5-0.3-0.7-0.6c-0.7-1.6-0.3-3.6-1.4-4.9
	c-1.1,1.4-2.1,2.9-2.7,4.5l-4.3-1.3c-0.4,1.7-0.1,3.4,0.8,4.9c-0.7,0.3-1.4,0.8-2,1.4c-0.6,0.6-0.8,1.5-0.5,2.3c1,0.2,2,0.3,3,0.3
	c-0.2,1.9-0.1,3.8,0.3,5.6c0,0.3,0.2,0.5,0.4,0.7c0.3,0.2,0.7,0,1-0.2c1.5-0.9,2.7-2.2,3.5-3.7l1.6,3.8c0.1,0.4,0.3,0.8,0.7,1
	c0.5,0.2,1,0,1.3-0.5c0.3-0.4,0.4-0.9,0.5-1.4l0.6-3.6c0-0.2,0.1-0.4,0.2-0.5c0.2-0.1,0.4-0.2,0.6-0.2c1.5,0,3,0,4.5,0
	c0.2-0.8-0.5-1.5-1.3-1.9s-1.7-0.6-2.1-1.3c-0.8-1.5,1.2-3.6,0.4-5C811.9,195.4,810.3,196.9,809,197.6z"/>
<path class="st17" d="M858.4,290.1c-0.2,0.1-0.3,0.1-0.5,0.1c-0.3-0.1-0.6-0.3-0.7-0.6c-0.7-1.6-0.3-3.6-1.4-4.9
	c-1.1,1.4-2,2.9-2.7,4.5l-4.3-1.3c-0.4,1.7-0.1,3.4,0.8,4.9c-0.7,0.3-1.4,0.8-2,1.4c-0.6,0.6-0.8,1.5-0.5,2.3c1,0.2,2,0.3,3,0.3
	c-0.2,1.9-0.1,3.8,0.3,5.6c0,0.3,0.1,0.5,0.4,0.7c0.3,0.1,0.7,0.1,1-0.2c1.5-0.9,2.7-2.2,3.5-3.7l1.6,3.8c0.1,0.4,0.4,0.7,0.7,1
	c0.5,0.2,1,0,1.3-0.5c0.3-0.4,0.4-0.9,0.5-1.4l0.6-3.6c0-0.4,0.3-0.7,0.7-0.7c0.1,0,0.1,0,0.2,0c1.5,0,3,0,4.5,0
	c0.3-0.8-0.5-1.5-1.3-1.9s-1.7-0.6-2.1-1.3c-0.8-1.5,1.2-3.6,0.4-5C861.4,288,859.7,289.5,858.4,290.1z"/>
</svg>
