<svg id="_40d64b11-b73c-480c-a7d0-f1c9d01d0b28" data-name="40d64b11-b73c-480c-a7d0-f1c9d01d0b28" xmlns="http://www.w3.org/2000/svg" xmlns:xlink="http://www.w3.org/1999/xlink" viewBox="0 0 1144.02 703.24"><defs><linearGradient id="linear-gradient" x1="431.72" y1="-83.01" x2="431.72" y2="438.84" gradientTransform="matrix(1, 0, 0, -1, -28, 607.62)" gradientUnits="userSpaceOnUse"><stop offset="0" stop-color="gray" stop-opacity="0.25"/><stop offset="0.54" stop-color="gray" stop-opacity="0.12"/><stop offset="1" stop-color="gray" stop-opacity="0.1"/></linearGradient></defs><path d="M687.72,488.17c22.1-1.26,49.52-16.26,70.84-22.88q37.85-11.76,76-22.6,132.77-37.77,268.44-64.4,12.66-2.48,25.36-4.86a179.7,179.7,0,0,0-59.26-71.17,181.12,181.12,0,0,0,1-18.77c0-99.14-79.23-179.51-177-179.51a174.24,174.24,0,0,0-85.9,22.54C738,81,647.68,53.45,548.86,53.45c-140.42,0-263.69,55.64-333.54,139.4l328.34,55.46,201.34,34C515.47,289.16,285.23,296,56.36,279.89a181.41,181.41,0,0,0-26.12,229h0c0,3.59.15,7.14.42,10.67,5.83,1.68,11.46,3.29,16.51,4.36q121.61,25.68,244.78,43c-60.51,37.31-134.2,42.58-204,58.38,33.8,27.9,79.7,45.06,130.28,45.06H971.32c81.55,0,147.65-56.78,147.65-126.82h0a180.16,180.16,0,0,0,24-65.88C992.07,492.19,839.29,479.54,687.72,488.17Z" transform="translate(0.02)" style="fill:#6c63ff;opacity:0.10000000149011612;isolation:isolate"/><path d="M1144,447.79a180,180,0,0,0-76-147.42,183.94,183.94,0,0,0,1-18.77c0-99.15-79.24-179.51-177-179.51a174.17,174.17,0,0,0-85.92,22.53C736.89,79.1,646.56,51.55,547.74,51.55c-160.79,0-299.1,72.94-360.46,177.55-3.41-.2-6.84-.31-10.3-.31-97.74,0-177,80.36-177,179.5A180.52,180.52,0,0,0,29.1,507h0c0,89.2,84.19,161.51,188,161.51H970.24c81.54,0,147.64-56.77,147.64-126.81h0A180.62,180.62,0,0,0,1144,447.79Z" transform="translate(0.02)" style="fill:#f1e6ff;opacity:0.10000000149011612;isolation:isolate"/><path d="M833.23,0s-75,38.56-36.4,84.26c0,0,3.62,10,14.16,9.23,0,0-2.1-3.84,6-6.89a39.18,39.18,0,0,0,8.09-4.29,19.06,19.06,0,0,0,7.27-9.67h0s15.38-20.48,3.57-58.45c0,0,1.56-10.73.22-12.46L827,14.19s9.4,6.35,10.46,15.62c0,0-9.77-15.59-11.9-13.82-.43.36-4.54,6.82-4.54,6.82s16.29,11.1,17.48,25.48c0,0-9.16-20.15-19.07-23L813.8,35.41s17.8,10.89,19.78,27.21c0,0-10.3-20.72-20.86-24.91l-4.19,10.7s17.15,11,18.71,24.55c0,0-14.33-22.75-19.51-22,0,0-3.25,10.06-2.83,13.15,0,0,12.13,8.15,12.33,16.12,0,0-11.18-14.18-12.91-13.25,0,0-.75,14.23,2.69,21.64,0,0-5.87-10.58-4.92-21.64,0,0-5.9,5-7.21,11.55,0,0-3.22-7.84,7.44-15,0,0,1-11.07,2.25-12.43,0,0-11.51,5.58-16.41,12.47,0,0,1.82-10.27,17.42-15.34l4-10.85S794,44,789.14,49.77c0,0,3.48-10.19,21.67-15l5.41-10s-13.88,4.64-20.65,9.94c0,0,5.26-8.76,22.31-12.74l4.39-6.25s-10.07,3.57-12.87,4.86-3.38.64-3.38.64A36.41,36.41,0,0,1,824,13S833.92.67,833.23,0Z" transform="translate(0.02)" style="fill:#6c63ff;opacity:0.10000000149011612;isolation:isolate"/><path d="M733.74,46.92s5.84,37.66,30.94,27.62c0,0,4.79-.13,6-4.76,0,0-1.95.35-2.11-3.54a17.67,17.67,0,0,0-.68-4.08,8.58,8.58,0,0,0-3.12-4.49h0s-6.58-9.51-24.55-9.86c0,0-4.38-2.2-5.31-1.87l4,5.69s4.06-3.13,8.19-2.26c0,0-8.08,2-7.62,3.13.09.24,2.27,2.92,2.27,2.92s7.09-5.4,13.42-3.87c0,0-9.94,1.06-12.6,4.9l3.54,3.85s7.21-6.08,14.49-4.6c0,0-10.36,1.47-13.66,5.4l4,3.32s7.15-5.8,13.2-4.53c0,0-11.8,2.91-12.23,5.23,0,0,3.85,2.83,5.23,3.08,0,0,5.22-4,8.67-3,0,0-7.67,2.77-7.52,3.64,0,0,6,2.35,9.66,1.94a19.48,19.48,0,0,1-10-1,10.76,10.76,0,0,0,3.93,4.74s-3.82.26-5.37-5.33c0,0-4.6-2-5-2.74,0,0,.75,5.73,3,8.82,0,0-4.15-2.25-4.1-9.66l-4.08-3.25s.59,7.63,2.4,10.53c0,0-3.88-3-3.37-11.44l-3.51-3.74s0,6.62,1.33,10.27c0,0-3-3.5-2.29-11.38l-2-2.77s.1,4.82.25,6.21-.21,1.54-.21,1.54a16.4,16.4,0,0,1-.92-8.9S734.13,46.72,733.74,46.92Z" transform="translate(0.02)" style="fill:#6c63ff;opacity:0.10000000149011612;isolation:isolate"/><path d="M885.84,63.54S848.57,55.62,849,82.62c0,0-1.59,4.52,2.31,7.28,0,0,.37-2,4.06-.71a17.42,17.42,0,0,0,4,.81,8.64,8.64,0,0,0,5.31-1.3h0s11.24-2.77,18-19.44c0,0,3.62-3.31,3.64-4.29l-6.76,1.75s1.48,4.91-.8,8.45c0,0,1-8.25-.21-8.24-.26,0-3.54,1.09-3.54,1.09s2.52,8.54-1.17,13.92c0,0,2.56-9.67-.09-13.52l-4.86,1.93s3.12,8.9-.86,15.18c0,0,2.32-10.2-.17-14.68l-4.53,2.55s2.87,8.73-.47,13.93c0,0,1.49-12-.53-13.28,0,0-4,2.59-4.75,3.79,0,0,1.92,6.32-.29,9.17,0,0,.14-8.16-.73-8.33,0,0-4.33,4.76-5.25,8.34a19.53,19.53,0,0,1,4.47-9A10.74,10.74,0,0,0,850,80s1.12-3.66,6.9-3.12c0,0,3.52-3.58,4.34-3.71,0,0-5.63-1.34-9.31-.33,0,0,3.57-3.07,10.48-.38l4.49-2.66s-7.34-2.16-10.69-1.51c0,0,4.13-2.57,11.88.93l4.75-2s-6.18-2.34-10.07-2.42c0,0,4.35-1.56,11.45,1.92l3.32-.93s-4.54-1.63-5.89-2-1.37-.74-1.37-.74a16.35,16.35,0,0,1,8.65,2.31S885.89,64,885.84,63.54Z" transform="translate(0.02)" style="fill:#6c63ff;opacity:0.10000000149011612;isolation:isolate"/><ellipse cx="672.21" cy="662.76" rx="40.21" ry="6.8" style="fill:#6f35a5"/><path d="M688.82,651.62a11.67,11.67,0,0,0,3.83-5.79c.5-2.29-.48-5.05-2.68-5.89-2.46-.94-5.09.77-7.08,2.49s-4.28,3.68-6.88,3.32a10.5,10.5,0,0,0,3.24-9.81,4,4,0,0,0-.9-2c-1.37-1.46-3.84-.84-5.48.31-5.2,3.66-6.65,10.72-6.68,17.08-.52-2.29-.08-4.68-.09-7s-.66-5-2.65-6.23a8,8,0,0,0-4-.94c-2.33-.09-4.94.14-6.53,1.85-2,2.13-1.47,5.69.25,8s4.35,3.81,6.77,5.42a14.88,14.88,0,0,1,4.83,4.61,4.09,4.09,0,0,1,.36.83h14.66A40.78,40.78,0,0,0,688.82,651.62Z" transform="translate(0.02)" style="fill:#6f35a5"/><ellipse cx="765.21" cy="683.85" rx="40.21" ry="6.8" style="fill:#6f35a5"/><path d="M781.82,672.73a11.67,11.67,0,0,0,3.83-5.79c.5-2.3-.48-5.05-2.68-5.89-2.46-.94-5.09.76-7.08,2.49s-4.28,3.68-6.88,3.32a10.5,10.5,0,0,0,3.24-9.81,4,4,0,0,0-.9-2c-1.37-1.46-3.84-.84-5.48.31-5.2,3.66-6.65,10.72-6.68,17.08-.52-2.29-.08-4.68-.09-7s-.66-5-2.65-6.23a8,8,0,0,0-4-.94c-2.33-.09-4.94.14-6.53,1.85-2,2.13-1.47,5.69.25,8s4.35,3.8,6.77,5.42a14.88,14.88,0,0,1,4.83,4.61,4.09,4.09,0,0,1,.36.83h14.66A41,41,0,0,0,781.82,672.73Z" transform="translate(0.02)" style="fill:#6f35a5"/><ellipse cx="180.21" cy="676.35" rx="40.21" ry="6.8" style="fill:#6f35a5"/><path d="M196.82,665.23a11.67,11.67,0,0,0,3.83-5.79c.5-2.29-.48-5.05-2.68-5.89-2.46-.94-5.09.77-7.08,2.49s-4.28,3.69-6.88,3.32a10.5,10.5,0,0,0,3.24-9.81,4,4,0,0,0-.9-2c-1.37-1.46-3.84-.84-5.48.31-5.2,3.66-6.65,10.73-6.68,17.08-.52-2.29-.08-4.68-.09-7s-.66-5-2.65-6.23a8,8,0,0,0-4-.94c-2.33-.09-4.94.15-6.53,1.86-2,2.12-1.47,5.68.25,8s4.35,3.81,6.77,5.42a14.88,14.88,0,0,1,4.83,4.61,4.09,4.09,0,0,1,.36.83h14.66A40.82,40.82,0,0,0,196.82,665.23Z" transform="translate(0.02)" style="fill:#6f35a5"/><path d="M561.93,661v-.27a8,8,0,0,0-.71-3.71c-1.62-3.28-5.52-3.82-8.83-4.39A43.67,43.67,0,0,1,537,646.84c-3.13-1.91-6.34-4.72-6.73-8.67,0-.81.06-1.62,0-2.36v-1.58c0-2.11-.12-4.05-1.69-4.43-9.38-2.32-17.49-10.31-20.72-20.44-.69-2.16-1.17-4.41-2.06-6.48-2.83-6.56-9.13-10.12-13.89-15.08-6.26-6.53-9.89-15.61-12.52-24.72s-4.45-18.54-7.9-27.31c-5.75-14.63-10.94-30.21-20.69-41.9-1.47-1.77-3.09-3.58-4.8-5.41-8.67-12.66-14.56-27.63-22.07-41.29a41,41,0,0,0-5.21-7.83c-2.6-2.88-5.82-4.94-8.82-7.29-14.45-11.28-23.69-29-36.14-42.93-2.17-2.43-5.55-5.85-7.15-8.78a28.1,28.1,0,0,1,.44-5.1c.8-4.15,2.95-8.09,2.58-12.32a17.31,17.31,0,0,1-.21-2.49,9,9,0,0,1,.76-2.78,27.38,27.38,0,0,1,2.54-5.46,23.13,23.13,0,0,0,3.5-9.21c2.49-2.36,3.57-6.68,6.68-7.77,1.73-.6,4-.19,5-1.9a4.58,4.58,0,0,0,.47-1.88,28.67,28.67,0,0,0-.85-10.06,24.71,24.71,0,0,0,.2-5.23,31.4,31.4,0,0,0-3.65-12.43c-1.27-2.42-3-4.84-5.47-5.4-.54-.12-1.09-.15-1.61-.31-3.18-.93-4.28-5.84-7.15-7.36,3.69,2,7.46,4.26,10.93,2.58,4.36-2.13,4.72-8.77,4.39-14.07L384,259.52c-.62-10-1.4-20.61-6.55-28.85-4.64-7.44-12.24-11.91-20-14.7-5.24-1.89-11-3.1-16.19-1.17.31-.22.61-.44.91-.64a14,14,0,0,0-1.87.7,34.86,34.86,0,0,0-7.52,5.16,27.17,27.17,0,0,0,1.9-10,26.56,26.56,0,0,0-4.18-14.46l5.86-4.93L335,188.4l2.58-2.46a1.82,1.82,0,0,0-1.54-.86,2.16,2.16,0,0,0-.36,0,5.41,5.41,0,0,0-.18-2.19l-.18.17a6.8,6.8,0,0,0-.72-1.74h.21a6.42,6.42,0,0,0-.41-.65V181a14.41,14.41,0,0,0-3.06-3.27c-4.48-3.68-9.61-6.73-15.16-7.14-2.7-.2-5.41.23-8.11,0-3.64-.25-7.17-1.63-10.82-1.78s-7.76,1.34-9.27,5c-.65,1.6-.74,3.4-1.23,5.05-1.09,3.68-4,6.23-6.47,8.95s-4.76,6.37-4.08,10.17a14.35,14.35,0,0,0,1.26,3.48l12.67,27.36a54.66,54.66,0,0,1-.18,6q-.12,1.29-.33,2.61c-.06.37-.13.75-.22,1.13a6.3,6.3,0,0,0-3.82,2.2,3.17,3.17,0,0,0-.66,1.58,13.87,13.87,0,0,0,.48,2.71,7,7,0,0,1-.81,3.39c-1.27,3-2.62,6-4.78,8.16-.88.91-1.88,1.67-2.77,2.57a27.19,27.19,0,0,0-2.77,3.47c-1.85,2.6-3.76,5.32-4.44,8.56-1.12,5.3-3.38,10.34-5,15.51a5.29,5.29,0,0,1-.85,1.14c-1,.94-2.28,1.34-3.26,2.26-2.2,2.08-2,5.88-1.46,9.05,1.94,11.78,5.34,23.25,6.69,35.13.54,4.66.76,9.4,1.8,14a16.83,16.83,0,0,0,2.15,5.56c-.15,4.47.31,9-1.28,13.12-.74,1.86-1.77,3.56-2.67,5.34a77.65,77.65,0,0,0-3.31,7.88l-5.43,14.3c-1,2.71-2.06,5.44-2.84,8.26-2.25,8.21-2.26,17-1.94,25.55a1.14,1.14,0,0,1-.16.76c-.16.2-.54.14-.55-.13-.07.5-.35,1.35-.41,1.84,2.42,1.18,5.14.8,7.84.51v1a16.41,16.41,0,0,0,.25,2.43v.06c.07.41.16.81.25,1.21a.48.48,0,0,0,.08.32c.09.36.19.73.3,1.08.06.19.11.36.17.54s.15.44.23.65.09.27.14.4c.66,1.72,1.45,3.38,2.2,5.06a27,27,0,0,1,2.55,8.26c.06.66.08,1.32.11,2v.69a19.12,19.12,0,0,0,.18,2.13c.18,1.14.52,2.23.79,3.35.16.66.28,1.34.4,2s.23,1.53.33,2.29q1.13,8.47,1.67,17c.09,1.37.17,2.75.24,4.12.47,10,.35,20,.23,30.06a60.62,60.62,0,0,1-1,9.78c-1.67,9.47-5.12,18.67-7.4,28.07-.24,1-.46,2-.67,3a40.24,40.24,0,0,0-1,6.45,45.53,45.53,0,0,0,.78,8.64q.73,5.19,1.14,10.43a29.16,29.16,0,0,0-3.54,10.54c-1.21,11.13-10.64,19.48-11.92,30.61a12.66,12.66,0,0,0-.09,2.13,10.59,10.59,0,0,0,0,1.38,9.1,9.1,0,0,0,.3,3.52,7,7,0,0,0,5.83,4.39c2.45.31,4.9-.31,7.34-.72,1.1-.19,2.2-.31,3.3-.42a7.23,7.23,0,0,1,0,1.14,19.41,19.41,0,0,0-1.32,2.9,10.17,10.17,0,0,0-1.13,3.77,8.42,8.42,0,0,0,1.13,4.44c2.46,4.49,7.37,6.6,12.07,7s9.37-.63,14.07-.88h.8a8.71,8.71,0,0,0,.59,1.28c2.45,4.49,7.37,6.6,12.06,7s9.38-.62,14.08-.87c1.4-.07,2.81-.07,4.21-.17a41.39,41.39,0,0,0,8.48-1.55,49,49,0,0,0,6.81,7.79c8.24,7,19.63,6.6,29.93,5.23s21.91-3.91,31.3,1c7.2-.79,11.49,10.64,18.72,10.93,3.32.13,6.3-2.2,8.7-4.76a8.88,8.88,0,0,1,3.1-2.54,6.11,6.11,0,0,1,3.09-.1,23.14,23.14,0,0,1,14.14,8.54c1.82,2.28,3.68,5.15,6.41,5.21,2.45,0,4.62-2.31,7.05-2,1.65.22,3,1.63,4.43,2.5,4.48,2.65,10,.2,14.3-2.72s8.9-6.45,13.94-5.92c3.27.34,6.18,2.38,9.23,3.71,9.4,4.1,20.93,1,27.67-7.36,1.07-1.34,2.17-2.89,3.75-3.24a5.88,5.88,0,0,1,3.1.46c5.65,1.88,11.59,3.61,17.37,2.33s11.28-6.51,11.4-13.09a9.63,9.63,0,0,0,0-1.2c0-.25,0-.51,0-.77S561.9,661.24,561.93,661Zm-227-375.72a5.94,5.94,0,0,1-2,2.64c-.08-.43-.16-.86-.25-1.3-.36-1.86-.77-3.71-1.21-5.55a21,21,0,0,0,4.25,2.1c-.29.7-.53,1.45-.82,2.11Zm-14.66-45.14v.21c0,3.52,1.22,5.53,3,6.68a27,27,0,0,0-3,12.46,21.15,21.15,0,0,1-2-1.59,13.39,13.39,0,0,1-2.63-3.87,1.35,1.35,0,0,0,.84-.13c.51-.35.49-1.17.42-1.83a39.22,39.22,0,0,1,2.47-18.51,19.76,19.76,0,0,0,3.37-1.55,16.55,16.55,0,0,0-2.45,8,.34.34,0,0,0-.05.13Zm48.94,50.19a25.35,25.35,0,0,0-.85,5.94,15.15,15.15,0,0,0-7.61-6,10.74,10.74,0,0,0-1.12-.27,5.76,5.76,0,0,1,.75-.64c2.87-2,6.1-.6,9.4,1.15l-.6-.18Z" transform="translate(0.02)" style="fill:url(#linear-gradient)"/><path d="M250.4,653.21a7.88,7.88,0,0,0,1.29,4.52c2.79,4.57,8.39,6.71,13.72,7.11s10.67-.64,16-.89c1.6-.07,3.2-.08,4.79-.17,8.28-.5,16.19-3.43,24-6.33,1.28-.47,2.77-1.23,2.84-2.58a3.19,3.19,0,0,0-1.32-2.36,13.56,13.56,0,0,0-3.41-2.18c-4.34-1.91-9.54-1.41-13.66-3.76-.91-.52-1.74-1.16-2.69-1.59a11.3,11.3,0,0,0-3.48-.8,53.21,53.21,0,0,0-15.48.51c-3.89.71-7.72,1.86-11.67,2.14a14.91,14.91,0,0,1-4.47-.29c-1-.23-2.27-1.13-3.22-.53s-1.48,2.51-1.93,3.36A9.69,9.69,0,0,0,250.4,653.21Z" transform="translate(0.02)" style="fill:#3f3d56"/><path d="M250.4,653.21a7.88,7.88,0,0,0,1.29,4.52c2.79,4.57,8.39,6.71,13.72,7.11s10.67-.64,16-.89c1.6-.07,3.2-.08,4.79-.17,8.28-.5,16.19-3.43,24-6.33,1.28-.47,2.77-1.23,2.84-2.58a3.19,3.19,0,0,0-1.32-2.36,13.56,13.56,0,0,0-3.41-2.18c-4.34-1.91-9.54-1.41-13.66-3.76-.91-.52-1.74-1.16-2.69-1.59a11.3,11.3,0,0,0-3.48-.8,53.21,53.21,0,0,0-15.48.51c-3.89.71-7.72,1.86-11.67,2.14a14.91,14.91,0,0,1-4.47-.29c-1-.23-2.27-1.13-3.22-.53s-1.48,2.51-1.93,3.36A9.69,9.69,0,0,0,250.4,653.21Z" transform="translate(0.02)" style="opacity:0.05000000074505806;isolation:isolate"/><path d="M281.72,660.71a7.81,7.81,0,0,0,1.29,4.52c2.79,4.57,8.38,6.71,13.72,7.11s10.67-.64,16-.89c1.6-.07,3.19-.08,4.79-.17,8.28-.5,16.19-3.43,24-6.33,1.28-.48,2.77-1.23,2.84-2.59A3.17,3.17,0,0,0,343,660a13.29,13.29,0,0,0-3.41-2.18c-4.34-1.91-9.54-1.42-13.66-3.77-.91-.51-1.74-1.16-2.69-1.58a11.61,11.61,0,0,0-3.48-.81,53.21,53.21,0,0,0-15.48.52c-3.89.71-7.72,1.86-11.67,2.13a14.59,14.59,0,0,1-4.47-.28c-1-.23-2.27-1.13-3.22-.53s-1.49,2.51-1.93,3.36A9.54,9.54,0,0,0,281.72,660.71Z" transform="translate(0.02)" style="fill:#3f3d56"/><path d="M265.36,286.37a5.24,5.24,0,0,0-1.9-2.5c-2.09-1.16-4.56,1-5.47,3.17s-1.21,4.83-3,6.4c-1.09,1-2.59,1.36-3.71,2.3-2.5,2.11-2.25,6-1.66,9.2,2.21,12,6.08,23.66,7.62,35.75.61,4.75.86,9.57,2,14.2.7,2.74,1.81,5.52,4,7.3s5.69,2.21,7.75.27a88.69,88.69,0,0,1-5.49-31.55c.06-7,1-14,1.19-21.08.21-6.18-.1-12.37-.41-18.55a11.49,11.49,0,0,0-.88-4.63,4,4,0,0,0-3.77-2.37" transform="translate(0.02)" style="fill:#fbbebe"/><circle cx="310.28" cy="214.13" r="25.17" style="fill:#cb8c8e"/><circle cx="344.2" cy="264.55" r="25.25" style="fill:#fbbebe"/><path d="M354.57,289c.22,2,1,4.33,2.91,4.84a19.92,19.92,0,0,0,2.67.15,4.55,4.55,0,0,1,3.29,2.54,8.19,8.19,0,0,1,.69,4.23,13.24,13.24,0,0,1-2.06,6.18,17.76,17.76,0,0,1-9.26,6.78,49.59,49.59,0,0,1-11.46,2.11,13.73,13.73,0,0,1-5.19-.16,11,11,0,0,1-3-1.52,29.62,29.62,0,0,1-7.37-7.06,17.7,17.7,0,0,1-3.17-6.49,9.8,9.8,0,0,1,.93-7,3.42,3.42,0,0,1,1.68-1.59c2.14-.77,4.08,1.88,6.35,1.94,1.8,0,3.22-1.54,4-3.16s1.19-3.45,2.35-4.82c1.35-1.61,3.47-2.32,5.5-2.86,3.34-.88,7.72-2.21,11.2-1.84,1.91.19.66,1.33.22,2.71A12.16,12.16,0,0,0,354.57,289Z" transform="translate(0.02)" style="fill:#fbbebe"/><path d="M330.77,315.35c3.07-1.38,4.77-4.71,7.51-6.68,2.3-1.65,5.17-2.24,7.8-3.29a22.75,22.75,0,0,0,7.2-4.6c1.9-1.79,3.59-4,6-4.88a9.27,9.27,0,0,1,5.66,0c5.19,1.44,9.18,5.76,11.5,10.61s3.21,10.25,4.08,15.56l1.3,8a73.22,73.22,0,0,1,1.39,14.84,24.7,24.7,0,0,1-4.54,14,27.62,27.62,0,0,0-2.89,5.55,8.33,8.33,0,0,0-.85,2.84,15.36,15.36,0,0,0,.23,2.53c.42,4.3-2,8.31-2.94,12.53a36.19,36.19,0,0,0-.44,8.57A2.12,2.12,0,0,0,372,392a2,2,0,0,0,.85.68c.66.35,1.34.68,2,1A74.85,74.85,0,0,1,358,395.47c-9.91-.23-19.58-3-29.43-4.15-.37-4.52.87-8.88,1.15-13.4a54.22,54.22,0,0,0-.55-8.82,107,107,0,0,1,.23-24c.34-2.8.8-5.59.93-8.41.15-3.34-.15-6.69.09-10s1-6.31,1.08-9.49A1.64,1.64,0,0,0,330.77,315.35Z" transform="translate(0.02)" style="fill:#f4f6fb"/><path d="M341.93,386.41c10.36.06,19.49.36,29.82,1.07,1.82,3-2.54,11.09-.07,13.57,14.16,14.19,17.31,33.26,33.75,44.75,3.41,2.38,13,4.31,16,7.25,2.35,2.33-1.24.67.5,3.5,10,16.32,32.55,32.43,45.62,46.46,11.08,11.89,17,27.75,23.54,42.64,3.92,8.91,6,18.52,9,27.79s7.13,18.5,14.25,25.14c5.42,5.06,12.59,8.68,15.8,15.35a64.73,64.73,0,0,1,2.35,6.6,33,33,0,0,0,23.58,20.79c2.91.64,1.58,5.49,1.88,8.46.41,4.06,4.08,6.94,7.66,8.89a53.67,53.67,0,0,0,17.49,5.89c3.76.57,8.2,1.13,10,4.46a7.41,7.41,0,0,1,.81,3.78c-.13,6.7-6.4,12-13,13.32s-13.34-.46-19.76-2.37a7.45,7.45,0,0,0-3.53-.47c-1.8.35-3,1.93-4.27,3.3a29.15,29.15,0,0,1-31.47,7.49c-3.48-1.36-6.78-3.43-10.5-3.78-5.74-.54-10.93,3.06-15.87,6s-11.18,5.46-16.27,2.76c-1.68-.88-3.16-2.31-5-2.54-2.77-.32-5.24,2.08-8,2-3.1-.06-5.23-3-7.3-5.3a27,27,0,0,0-16.1-8.59,7.58,7.58,0,0,0-3.51.1,10,10,0,0,0-3.53,2.58c-2.73,2.61-6.12,5-9.89,4.84-8.23-.29-13.12-11.92-21.31-11.12-10.68-5-23.9-2.42-35.61-1s-24.68,1.83-34.06-5.32c-4.94-3.78-8.29-9.27-12.9-13.46-7.28-6.62-17.1-9.51-26.57-12.21-15-4.28-30.58-8.6-46-6.27a34.24,34.24,0,0,1-8.36.73c-2.79-.27-5.65-1.84-6.63-4.46a8.75,8.75,0,0,1-.28-4.16c1.45-11.32,12.18-19.82,13.55-31.15.69-5.62,3.71-10.54,6.93-15.19a131.68,131.68,0,0,0,7.49-12.91c5.33-10,10.68-20,14.7-30.56,4.23-11.11,6.94-22.73,9.64-34.31,2.6-11.17,3.84-22.61,5.71-33.93,1.36-8.23,3.49-16.31,5.62-24.38,6.3-23.84,12.64-47.82,23-70.18C327.57,384.16,335,386.37,341.93,386.41Z" transform="translate(0.02)" style="fill:#e3e8f4"/><path d="M341.93,389.41c10.36.06,19.49-.64,29.82.07,1.82,3,5.67,6.46,8.14,8.93,14.16,14.21,24.68,32.21,41.11,43.69,3.41,2.39,7.07,4.49,10,7.42a41.78,41.78,0,0,1,5.93,8c10,16.33,17.51,34.5,30.58,48.53,11.08,11.89,17,27.75,23.54,42.64,3.92,8.91,6,18.52,9,27.79s7.13,18.5,14.25,25.14c5.42,5.06,12.59,8.68,15.8,15.35a64.73,64.73,0,0,1,2.35,6.6A33,33,0,0,0,556,644.36c2.91.64,1.58,5.49,1.88,8.46.41,4.06,4.08,6.94,7.66,8.89a53.67,53.67,0,0,0,17.49,5.89c3.76.57,8.2,1.13,10,4.46a7.41,7.41,0,0,1,.81,3.78c-.13,6.7-6.4,12-13,13.32s-13.34-.46-19.76-2.37a7.45,7.45,0,0,0-3.53-.47c-1.8.35-3,1.93-4.27,3.3a29.15,29.15,0,0,1-31.47,7.49c-3.48-1.36-6.78-3.43-10.5-3.78-5.74-.54-10.93,3.06-15.87,6s-11.18,5.46-16.27,2.76c-1.68-.88-3.16-2.31-5-2.54-2.77-.32-5.24,2.08-8,2-3.1-.06-5.23-3-7.3-5.3a27,27,0,0,0-16.06-8.63,7.58,7.58,0,0,0-3.51.1,10,10,0,0,0-3.53,2.58c-2.73,2.61-6.12,5-9.89,4.84-8.23-.29-13.12-11.92-21.31-11.12-10.68-5-23.9-2.42-35.61-1s-24.68,1.83-34.06-5.32c-4.94-3.78-8.29-9.27-12.9-13.46-7.28-6.62-17.1-9.51-26.57-12.21-15-4.28-30.58-8.6-46-6.27a34.24,34.24,0,0,1-8.36.73c-2.79-.27-5.65-1.84-6.63-4.46a8.75,8.75,0,0,1-.28-4.16c1.45-11.32,12.18-19.82,13.55-31.15.69-5.62,3.71-10.54,6.93-15.19a131.68,131.68,0,0,0,7.49-12.91c5.33-10,10.68-20,14.7-30.56,4.23-11.11,6.94-22.73,9.64-34.31,2.6-11.17,3.84-22.61,5.71-33.93,1.36-8.23,3.49-16.31,5.62-24.38,6.3-23.84,12.64-47.82,23-70.18C327.57,387.16,335,389.37,341.93,389.41Z" transform="translate(0.02)" style="fill:#e3e8f4"/><path d="M341.93,387.41c10.36.06,19.49-.64,29.82.07,1.82,3,5.67,6.46,8.14,8.93,14.16,14.21,24.68,32.21,41.11,43.69,3.41,2.39,7.07,4.49,10,7.42a41.78,41.78,0,0,1,5.93,8c10,16.33,17.51,34.5,30.58,48.53,11.08,11.89,17,27.75,23.54,42.64,3.92,8.91,6,18.52,9,27.79s7.13,18.5,14.25,25.14c5.42,5.06,12.59,8.68,15.8,15.35a64.73,64.73,0,0,1,2.35,6.6A33,33,0,0,0,556,642.36c2.91.64,1.58,5.49,1.88,8.46.41,4.06,4.08,6.94,7.66,8.89a53.67,53.67,0,0,0,17.49,5.89c3.76.57,8.2,1.13,10,4.46a7.41,7.41,0,0,1,.81,3.78c-.13,6.7-6.4,12-13,13.32s-13.34-.46-19.76-2.37a7.45,7.45,0,0,0-3.53-.47c-1.8.35-3,1.93-4.27,3.3a29.15,29.15,0,0,1-31.47,7.49c-3.48-1.36-6.78-3.43-10.5-3.78-5.74-.54-10.93,3.06-15.87,6s-11.18,5.46-16.27,2.76c-1.68-.88-3.16-2.31-5-2.54-2.77-.32-5.24,2.08-8,2-3.1-.06-5.23-3-7.3-5.3a27,27,0,0,0-16.06-8.63,7.58,7.58,0,0,0-3.51.1,10,10,0,0,0-3.53,2.58c-2.73,2.61-6.12,5-9.89,4.84-8.23-.29-13.12-11.92-21.31-11.12-10.68-5-23.9-2.42-35.61-1s-24.68,1.83-34.06-5.32c-4.94-3.78-8.29-9.27-12.9-13.46-7.28-6.62-17.1-9.51-26.57-12.21-15-4.28-30.58-8.6-46-6.27a34.24,34.24,0,0,1-8.36.73c-2.79-.27-5.65-1.84-6.63-4.46a8.75,8.75,0,0,1-.28-4.16c1.45-11.32,12.18-19.82,13.55-31.15.69-5.62,3.71-10.54,6.93-15.19a131.68,131.68,0,0,0,7.49-12.91c5.33-10,10.68-20,14.7-30.56,4.23-11.11,6.94-22.73,9.64-34.31,2.6-11.17,3.84-22.61,5.71-33.93,1.36-8.23,3.49-16.31,5.62-24.38,6.3-23.84,12.64-47.82,23-70.18C327.57,385.16,335,387.37,341.93,387.41Z" transform="translate(0.02)" style="fill:#f4f6fb"/><path d="M251.74,433.3c-3.3,3.61-2.55,9.35-.62,13.84s4.86,8.7,5.4,13.56c.18,1.62.08,3.26.36,4.87.21,1.16.6,2.27.9,3.41a40.29,40.29,0,0,1,.84,4.38c1.06,7.12,1.78,14.3,2.16,21.5.55,10.18.41,20.39.27,30.59-.2,14.27-7,27.63-10.31,41.51a36.47,36.47,0,0,0-1.14,6.56,43.24,43.24,0,0,0,.87,8.79,144.29,144.29,0,0,1-1.75,54.78c3,2.36,5.09,6.32,4.37,10.06,6.45,1.13,13.2,2.24,19.41.19,3.75-1.23,7.12-3.57,11-4.3,3-.55,6.47-.27,8.59-2.45a9.14,9.14,0,0,0,1.84-3.5c7.32-21.3,5.27-44.49,4.86-67-.22-12.1,0-24.21-.46-36.3a281.08,281.08,0,0,0-10.08-63.72c-2.8-10-5.5-20-11-28.87a15.14,15.14,0,0,0-4.58-5.16c-2.09-1.28-4.62-1.59-7.06-1.87C260.51,433.62,256.84,433.88,251.74,433.3Z" transform="translate(0.02)" style="fill:#3f3d56"/><path d="M293.93,637.1a9.17,9.17,0,0,1-1.84,3.49c-2.12,2.19-5.6,1.9-8.59,2.46-.38.07-.76.16-1.13.26-3.41.91-6.49,2.92-9.86,4-6.22,2-13,.94-19.42-.19.72-3.74-1.37-7.71-4.37-10.07a144.24,144.24,0,0,0,1.76-54.77,41.88,41.88,0,0,1-.88-8.79,36.47,36.47,0,0,1,1.14-6.56c3.29-13.89,10.11-27.25,10.31-41.52.14-10.2.28-20.41-.26-30.59q-.59-10.8-2.17-21.5a40.72,40.72,0,0,0-.83-4.38c-.31-1.13-.7-2.25-.9-3.41-.29-1.6-.19-3.25-.37-4.87-.54-4.86-3.46-9.06-5.4-13.55a19.91,19.91,0,0,1-1.56-5.82,10,10,0,0,1,2.18-8c3.43.38,6.2.37,9.2.5,1.47.06,3,.16,4.67.35,2.44.27,5,.58,7.07,1.87a15,15,0,0,1,4.57,5.16c.54.87,1.05,1.75,1.54,2.64,4.49,8.17,6.94,17.17,9.46,26.22a281.08,281.08,0,0,1,10.08,63.72c.51,12.09.24,24.2.46,36.31C299.21,592.62,301.25,615.79,293.93,637.1Z" transform="translate(0.02)" style="opacity:0.05000000074505806;isolation:isolate"/><path d="M330.8,441.14v5.26q-.07,25.34-.13,50.67A201,201,0,0,1,330,517.9c-1.77,18-8.35,35.43-7.65,53.45.5,13.09,1,26.33-1.63,39.17-1,4.92-2.46,9.76-3.18,14.73s-.64,10.21,1.33,14.84c1.42,3.31,3.81,6.44,3.68,10a9.81,9.81,0,0,1-4.73,7.48,22.42,22.42,0,0,1-8.66,2.89,66.48,66.48,0,0,1-11.53.89c-5.53-.06-11.83-1.27-14.69-6-1.92-3.18-1.77-7.22-.85-10.83.11-.42.22-.83.34-1.24.94-3.15,2.28-6.18,3-9.38a26.12,26.12,0,0,0-1.07-15.17c-.34-.9-1.41-2.6-2.37-2.49-1.53-4-1.76-8.27-2-12.51L278.53,575c-.3-6.25-.6-12.58.68-18.7,1-5,3.13-9.76,3.73-14.83a49.07,49.07,0,0,0-.05-9.15,406,406,0,0,0-6.08-46.73,5.66,5.66,0,0,0-.77-2.22c-.66-.92-1.81-1.35-2.62-2.15-1.7-1.66-1.54-4.37-1.94-6.72-.72-4.24-3.53-7.76-5.7-11.46a42,42,0,0,1-5.63-19.57,41.06,41.06,0,0,1,.79-9.71c.08-.43.18-.86.28-1.29a261.5,261.5,0,0,1,65.14,4c1.57.29,3.33.74,4.06,2.16A5.39,5.39,0,0,1,330.8,441.14Z" transform="translate(0.02)" style="fill:#3f3d56"/><path d="M453.58,519.85c10.76,18.94,21.56,37.92,30.12,57.95,6.95,16.25,12.65,33.56,24.31,46.84,10.92,12.43,26,20.19,40.81,27.66l-13.26-11.68c-13.31-11.75-26.9-23.83-35.35-39.44-4.6-8.5-7.52-17.79-11-26.84a246.13,246.13,0,0,0-36.63-64.64,182,182,0,0,0-13.8-16.08C442.17,502.62,448.8,511.45,453.58,519.85Z" transform="translate(0.02)" style="fill:#e3e8f4"/><path d="M398.69,649.62c3.24,6.66,6.54,13.42,11.48,18.94.42-3.3-1.84-6.26-3.63-9.06-3.24-5.09-5.21-10.82-7.18-16.49-1.82-5.25-3.51-12.49-7.38-16.64C390,633.49,395.69,643.5,398.69,649.62Z" transform="translate(0.02)" style="fill:#e3e8f4"/><path d="M361.18,524.88c.94,5,1.49,10,2.75,14.89a107.3,107.3,0,0,0,4.55,12.9l21.08,52.54c-.18-7.14-4-13.6-6.43-20.3-3-8.23-4.08-17-6.53-25.46-2-6.86-4.9-13.41-7-20.24-2.92-9.63-4.15-19.69-6.44-29.49a216.24,216.24,0,0,0-7.73-25c-1.4-3.86-3-7.87-6.09-10.54s-8.27-3.43-11.19-.54c-4.11,4.07,2.12,6.62,4.17,9.27a99.42,99.42,0,0,1,18.84,42Z" transform="translate(0.02)" style="fill:#e3e8f4"/><path d="M389.47,416.34a19.24,19.24,0,0,1,2.9,3.76c1.13,2.08,1.58,4.51,3,6.44a63.25,63.25,0,0,0-8.52-9.68c-1.92-1.65-4-3.07-5.93-4.72-1.47-1.26-7.91-6.72-6.63-8.58C379.93,406.43,385.18,411.71,389.47,416.34Z" transform="translate(0.02)" style="fill:#e3e8f4"/><path d="M322.55,228.46c-.23,2.07-1.5,3.86-2.59,5.64a36.09,36.09,0,0,0-5.15,17.45,34.89,34.89,0,0,0,.24,5.41c.08.67.1,1.51-.48,1.86a1.71,1.71,0,0,1-1,.13c-.68-.06-1.34-.14-2-.25-10.69-1.71-20.05-9-30.81-10.84a5.13,5.13,0,0,0,2.75-3.25,14.38,14.38,0,0,0,.65-2.48c.16-.89.28-1.78.37-2.65.68-6.44-.3-12.36-.66-18.9-.41-7.62,9-5.11,14.52-5.21,4.43-.08,8.94-.15,13.22,1s8.35,3.85,10.19,7.89A7.91,7.91,0,0,1,322.55,228.46Z" transform="translate(0.02)" style="fill:#cb8c8e"/><path d="M314.57,258.82a1.71,1.71,0,0,1-1,.13c-.68-.06-1.34-.14-2-.25-.92-.86-1.81-1.76-2.66-2.7-2-2.22-3.8-4.66-6.12-6.55a21.23,21.23,0,0,0-12.5-4.46,41.55,41.55,0,0,1-6.78-.38,14.38,14.38,0,0,0,.65-2.48c.16-.89.28-1.78.37-2.65a34.13,34.13,0,0,1,3.78-.27,18.65,18.65,0,0,1,4.48-.09c2.47.37,4.65,1.75,6.87,2.9,3.07,1.59,6.36,2.79,9.21,4.76.88.62,1.72,1.3,2.56,2,1.14.93,2.27,1.87,3.41,2.79a34.89,34.89,0,0,0,.24,5.41C315.13,257.62,315.15,258.47,314.57,258.82Z" transform="translate(0.02)" style="fill:#e3e8f4"/><path d="M330.8,441.14v5.26c-4.16.12-8.41.73-12.55,1-3.89.28-7.79.29-11.69.24a33.73,33.73,0,0,1-9.06-1c-2.13-.62-4.13-1.64-6.25-2.28-4-1.23-8.22-1.08-12.45-.58-3.44.4-6.91,1-10.34,1.31a13.84,13.84,0,0,1-6.6-.68,12.24,12.24,0,0,1-1.7-.94,23.2,23.2,0,0,0-2.64-1.53c-2.46-1.1-5.2-.92-7.95-.66a10,10,0,0,1,2.18-8c3.43.38,6.2.37,9.2.5.08-.43.18-.86.28-1.29a261.5,261.5,0,0,1,65.14,4c1.57.29,3.33.74,4.06,2.16A5.43,5.43,0,0,1,330.8,441.14Z" transform="translate(0.02)" style="opacity:0.10000000149011612;isolation:isolate"/><path d="M285.42,243c-2.17.26-4.49.81-5.89,2.48a3,3,0,0,0-.75,1.61,13,13,0,0,0,.54,2.76,6.51,6.51,0,0,1-.92,3.44c-1.45,3-3,6.06-5.44,8.31-1,.93-2.14,1.7-3.15,2.61a27.87,27.87,0,0,0-3.15,3.54c-2.11,2.64-4.28,5.41-5.05,8.7-1.35,5.71-4.16,11.1-6,16.68s-3,11.52-2,17.3c.47,2.74,1.42,5.37,2.08,8.07,1.06,4.33,1.36,8.81,2.48,13.12.71,2.69,1.73,5.29,2.5,8A43.61,43.61,0,0,1,262,357.55c-.75,5.47.51,11.29-1.7,16.34-.91,1.86-1.91,3.68-3,5.44a75.77,75.77,0,0,0-3.77,8l-6.17,14.56a83.62,83.62,0,0,0-3.23,8.4c-2.57,8.36-2.58,17.27-2.22,26a1.13,1.13,0,0,1-.17.78c-.19.2-.62.14-.63-.13-.08.5-.4,1.37-.47,1.87,5.25,2.28,11.71-1.17,16.94,1.16,1.52.68,2.81,1.81,4.34,2.47a13.85,13.85,0,0,0,6.6.69c7.63-.63,15.46-3,22.78-.74,2.13.65,4.12,1.67,6.25,2.29a33.8,33.8,0,0,0,9.07,1c3.9.06,7.8.05,11.69-.24,8.37-.61,17.16-2.44,24.87.88,2.49-1.83,2.68-4.67,2.78-7.75q.29-8.7.56-17.39l2.07-63.95a64,64,0,0,0-.49-13.2c-1.41-7.92-5.74-15-10-21.79l-19.89-32c-1.32-2.12,0-4.49.91-6.82A44.16,44.16,0,0,0,321.68,273c.32-2.61.3-5.55-1.47-7.49-1-1.09-2.41-1.7-3.55-2.64A16.52,16.52,0,0,1,313,257.8a33,33,0,0,0-11.69-12.18C296.4,242.77,291.06,242.37,285.42,243Z" transform="translate(0.02)" style="fill:#3f3d56"/><path d="M305.94,272.06c-7.07,1.95-11.45,9.13-13.39,16.2-2.72,9.89-2.06,20.46.34,30.42s6.5,19.43,10.65,28.8a69.18,69.18,0,0,0,3.28,6.7,32.06,32.06,0,0,0,14.68,13.33,27.16,27.16,0,0,0,19.67.87,11.69,11.69,0,0,0,3.3-1.68c3.54-2.72,4.09-7.76,4.35-12.22l.89-15.63a7.88,7.88,0,0,0-.12-2.47,9,9,0,0,0-1.81-3,37.38,37.38,0,0,1-6.4-12.72c-.91-3.23-1.39-6.6-2.79-9.65-.84-1.84-2-3.52-2.91-5.33-2-3.9-2.71-8.27-3.65-12.53q-1.23-5.58-2.94-11a18.71,18.71,0,0,0-2.55-5.67c-2.75-3.72-7.63-5.06-12.15-6a14,14,0,0,0-6.58-.32c-2.46.67-4.37,2.57-6.15,4.39" transform="translate(0.02)" style="opacity:0.10000000149011612;isolation:isolate"/><path d="M306.94,271.06c-7.07,1.95-11.45,9.13-13.39,16.2-2.72,9.89-2.06,20.46.34,30.42s6.5,19.43,10.65,28.8a69.18,69.18,0,0,0,3.28,6.7,32.06,32.06,0,0,0,14.68,13.33,27.16,27.16,0,0,0,19.67.87,11.69,11.69,0,0,0,3.3-1.68c3.54-2.72,4.09-7.76,4.35-12.22l.89-15.63a7.88,7.88,0,0,0-.12-2.47,9,9,0,0,0-1.81-3,37.38,37.38,0,0,1-6.4-12.72c-.91-3.23-1.39-6.6-2.79-9.65-.84-1.84-2-3.52-2.91-5.33-2-3.9-2.71-8.27-3.65-12.53q-1.23-5.58-2.94-11a18.71,18.71,0,0,0-2.55-5.67c-2.75-3.72-7.63-5.06-12.15-6a14,14,0,0,0-6.58-.32c-2.46.67-4.37,2.57-6.15,4.39" transform="translate(0.02)" style="fill:#3f3d56"/><path d="M375.92,312.8a23.5,23.5,0,0,1-1.32-16.91c3.92,1,5,6.78,9,7.81.59.15,1.22.18,1.82.31,2.8.57,4.78,3,6.23,5.5a29.59,29.59,0,0,1,4.16,12.64,21.22,21.22,0,0,1-3,12.85c.1-.15-7-7.43-7.6-8.18q-1.87-2.19-3.66-4.47a32.46,32.46,0,0,1-3.37-4.53c-.34-.64-.41-1.38-.71-2.06C377,314.75,376.41,313.79,375.92,312.8Z" transform="translate(0.02)" style="fill:#cb8c8e"/><path d="M357.69,371.62A43.69,43.69,0,0,1,345.26,397c-1.53,1.51-3.44,3-5.58,2.79-2.31-.24-3.9-2.34-5.55-4-3-3-7-4.79-10.33-7.41a52.67,52.67,0,0,1-4.88-4.57c-4.9-5-9.83-10-13.74-15.83-2.21-3.28-4.1-6.8-6.72-9.76-2.07-2.35-4.56-4.29-6.74-6.53s-4.1-4.92-4.62-8c-.55-3.26-4-5.38-6.17-7.88a27.76,27.76,0,0,1-6.05-23.18c.35-1.74,1.08-3.69,2.76-4.29a4.49,4.49,0,0,1,2.06-.13c4.22.59,7.35,4.09,10.08,7.37a62.91,62.91,0,0,1,5.15,6.8c3.33,5.41,4.86,11.71,6.34,17.89.87,3.61,4.47,6.28,7.06,8.94l6.5,6.67c1.55,1.59,3.1,3.19,4.8,4.62,4.65,3.94,10.23,6.58,15.8,9a20,20,0,0,1,2.2-5.12,6.63,6.63,0,0,1,4.48-3c2.58-.33,4.94,1.38,7,3l7.65,6C357.19,370.72,357.75,371.1,357.69,371.62Z" transform="translate(0.02)" style="fill:#fbbebe"/><path d="M369.86,311.94a11.1,11.1,0,0,1,2.19,3.46,22.7,22.7,0,0,1,2.23,11.29,34.2,34.2,0,0,1-1.38,6.17l-2.38,8.19c-3.7,12.7-7.41,25.43-12.41,37.68-4.11-5.33-11.3-6.94-17.14-10.27a4.8,4.8,0,0,1-1.51-1.17,4.25,4.25,0,0,1-.75-2.56,19.11,19.11,0,0,1,1.58-7.14c3.64-9.77,8.69-19.31,9.28-29.71a55.9,55.9,0,0,1,.37-5.79,16.44,16.44,0,0,1,7.7-11.1C361,308.81,366.88,309,369.86,311.94Z" transform="translate(0.02)" style="opacity:0.10000000149011612;isolation:isolate"/><path d="M368.86,309.62a11.1,11.1,0,0,1,2.19,3.46,22.7,22.7,0,0,1,2.23,11.29,33.38,33.38,0,0,1-1.38,6.25l-2.38,8.19c-3.7,12.7-7.41,25.43-12.41,37.68-4.11-5.32-11.3-6.94-17.14-10.27a4.77,4.77,0,0,1-1.51-1.16,4.39,4.39,0,0,1-.75-2.56,19.16,19.16,0,0,1,1.58-7.15c3.64-9.77,8.69-19.3,9.28-29.71a55.88,55.88,0,0,1,.37-5.78,16.42,16.42,0,0,1,7.7-11.11C360,306.52,365.88,306.73,368.86,309.62Z" transform="translate(0.02)" style="fill:#f4f6fb"/><path d="M345.69,256.47c2,2.13,2.56,5.21,2.89,8.12.86,7.52.88,15.28-1.46,22.48s-7.3,13.79-14.25,16.78c9.68,1.57,21.18,2.55,27.74-4.75,1.28-1.42,2.32-3.13,3.95-4.16,6.95-4.38,15.77,7.17,23.31,3.89,5-2.16,5.36-8.92,5-14.32l-1.37-20c-.7-10.21-1.59-21-7.44-29.36-5.28-7.57-13.93-12.12-22.72-15-6.32-2-13.36-3.31-19.51-.78-7.85,3.22-23,16.08-22.91,25.59C319.09,259.09,339.09,249.49,345.69,256.47Z" transform="translate(0.02)" style="fill:#3f3d56"/><path d="M351.65,334.54a10.08,10.08,0,0,0,3.32-.43c1.7-.63,3-2.21,4.83-2.47.92-.13,2.1,0,2.5-.87a3.53,3.53,0,0,0,.13-1.25c.14-2.43,3.19-3.27,5.25-4.57a15.38,15.38,0,0,0,3.41-3.28l7.1-8.39a5.3,5.3,0,0,1,2.7-2,4.81,4.81,0,0,1,3.51,1,27.42,27.42,0,0,1,12.12,25.44,4.3,4.3,0,0,1-.52,1.95c-1.11,1.74-3.72,1.32-5.69,1.94-3.77,1.18-4.92,6.07-8.15,8.34-1.45,1-3.24,1.43-4.65,2.47s-2.49,2.86-3.77,4.27c-2,2.26-4.85,3.65-7.59,5l-8.37,4.08a32.87,32.87,0,0,1-5.13,2.14,32.44,32.44,0,0,1-9.32.79l-6.13-.08a3.64,3.64,0,0,1-2-.4,3.41,3.41,0,0,1-.89-1c-3.15-4.73-3.79-10.84-2.67-16.41.93-4.62,3.12-11,6.41-14.51C340.91,333.23,347.69,334.62,351.65,334.54Z" transform="translate(0.02)" style="fill:#3f3d56"/><path d="M327.17,205a4.55,4.55,0,0,1,2.31-4.86l7.6-5.71-1.56-2.27,2.93-2.51a2.13,2.13,0,0,0-2.16-.84c.46-3.09-2.18-5.7-4.69-7.54-5.11-3.74-11-6.85-17.26-7.27-3.07-.2-6.15.24-9.22,0-4.14-.26-8.16-1.66-12.31-1.82s-8.81,1.47-10.55,5.2c-.74,1.62-.84,3.45-1.4,5.14-1.25,3.74-4.55,6.33-7.36,9.1s-5.42,6.48-4.64,10.34a13.83,13.83,0,0,0,1.43,3.55l15.5,29.93a6.88,6.88,0,0,1,5.21-3.59c2.55-.3,5,.84,7.58,1.16a12,12,0,0,0,10.31-4c3.42-3.94,4.25-14,10.19-15,2.1-.36,5.46,2.29,7.29,1.24C328.52,214,327.21,207.19,327.17,205Z" transform="translate(0.02)" style="fill:#3f3d56"/><g style="opacity:0.10000000149011612"><path d="M338.87,300.79c6.95-3,11.9-9.6,14.25-16.79s2.32-15,1.46-22.48c-.33-2.9-.88-6-2.89-8.12-6.6-7-26.6,2.62-26.78-11.44-.11-8.11,10.92-18.65,19-23.58a17.73,17.73,0,0,0-2.13.71c-7.85,3.22-23,16.09-22.91,25.59.18,14.06,20.18,4.47,26.78,11.45,2,2.12,2.56,5.21,2.89,8.12.86,7.51.88,15.28-1.46,22.47s-7.3,13.8-14.25,16.79c8.54,1.38,18.49,2.3,25.22-2.51C352.14,302.55,345.13,301.8,338.87,300.79Z" transform="translate(0.02)"/><path d="M370.56,291.87a8.65,8.65,0,0,0-1.93,1.74c6.13.4,13.1,7.54,19.24,4.87a6.94,6.94,0,0,0,2.72-2.14C383.87,296.08,376.53,288.11,370.56,291.87Z" transform="translate(0.02)"/></g><g style="opacity:0.10000000149011612"><path d="M335.57,184.91c-.15-.22-.31-.44-.47-.65a5.34,5.34,0,0,1-.05.69A2.28,2.28,0,0,1,335.57,184.91Z" transform="translate(0.02)"/><path d="M338.71,189.62a2.13,2.13,0,0,0-2.16-.84,4.9,4.9,0,0,0-.2-2.25l-2.07,1.77,1.56,2.26-7.6,5.72a4.55,4.55,0,0,0-2.31,4.86c0,2.22,1.35,9.07-.81,10.3-1.82,1.05-5.19-1.6-7.28-1.24-5.94,1-6.77,11-10.19,15a12,12,0,0,1-10.31,4c-2.55-.31-5-1.45-7.58-1.15a6.91,6.91,0,0,0-5.22,3.59l-15.46-29.87V202a14.23,14.23,0,0,0,1.44,3.55L286,235.41a6.91,6.91,0,0,1,5.22-3.59c2.55-.3,5,.84,7.58,1.16a12,12,0,0,0,10.31-4c3.42-3.94,4.25-14,10.19-15,2.09-.36,5.46,2.29,7.28,1.24,2.16-1.23.85-8.08.81-10.3a6,6,0,0,1,.44-3A5.92,5.92,0,0,1,329.7,200l7.6-5.71-1.56-2.27Z" transform="translate(0.02)"/></g><path d="M251.06,406.73c-1,4.27-1.63,8.63-3,12.8-.6,1.88-1.34,3.71-1.93,5.59-.53,1.71-.93,3.44-1.34,5.18l-1.63,7a3.19,3.19,0,0,0,2.48-1.4,9.45,9.45,0,0,0,1.23-2.68l2.73-8.12,2-6c2.84-8.45,5.69-16.92,7.85-25.58.54-2.14,1-4.28,1.47-6.44.18-.83,1.49-5.46.15-5.07-.95.27-2.56,4.49-3,5.41-1,1.84-1.82,3.72-2.63,5.63A83.16,83.16,0,0,0,251.06,406.73Z" transform="translate(0.02)" style="opacity:0.10000000149011612;isolation:isolate"/><path d="M303.22,294.75s-4.52-1.63-5.63.31c0,0,8.22,3,9.88,7.32,0,0,2.12-2.18-.78-4.95l-.54-4.06Z" transform="translate(0.02)" style="fill:#00a66c"/><path d="M310.72,288.62s.25-2.06-.79-2.28-8.08.19-6.95,8,9.27,4.88,9.27,4.88l3.57-4.16s.76-5.51-4.24-6.84Z" transform="translate(0.02)" style="fill:#6f35a5"/><path d="M305.05,284.38s-6.14,3.1-3.16,10.89l2.31-1.34S307.09,287.17,305.05,284.38Z" transform="translate(0.02)" style="opacity:0.10000000149011612;isolation:isolate"/><path d="M304.83,284.22s-6.13,3.1-3.15,10.89l1.79,1.05S306.88,287,304.83,284.22Z" transform="translate(0.02)" style="fill:#6c63ff"/><path d="M314.85,292.22a5.3,5.3,0,0,0,1.88,2.72c1.44,1-1.43,3.31-1.43,3.31s-3.88,4.41-7.55,2.26c-2.19-3.69-.54-4.2-.54-4.2S311.79,291.28,314.85,292.22Z" transform="translate(0.02)" style="opacity:0.10000000149011612;isolation:isolate"/><path d="M315,292.43a5.3,5.3,0,0,0,1.88,2.72c1.43,1-1.44,3.31-1.44,3.31s-3.87,4.41-7.55,2.26-.54-4.19-.54-4.19S311.89,291.49,315,292.43Z" transform="translate(0.02)" style="fill:#6f35a5"/><path d="M301.08,284.32s-4.54,1.58-4.18,3.79c0,0,8.28-2.84,12.29-.53,0,0,.27-3-3.72-3.36l-3-2.82Z" transform="translate(0.02)" style="fill:#5f3839"/><path d="M303,274.81s-1.1-1.76-2-1.28-6.15,5.23-.38,10.57,10.28-2,10.28-2l.1-5.48s-2.88-4.76-7.6-2.64Z" transform="translate(0.02)" style="fill:#6f35a5"/><path d="M296,275.11s-2.82,6.27,4.41,10.45l.95-2.49S299.32,276,296,275.11Z" transform="translate(0.02)" style="opacity:0.10000000149011612;isolation:isolate"/><path d="M295.7,275.12s-2.81,6.27,4.41,10.45l2.05-.31S299.05,276,295.7,275.12Z" transform="translate(0.02)" style="fill:#6c63ff"/><path d="M308.52,275a5.37,5.37,0,0,0,3.18.94c1.76-.11,1,3.47,1,3.47s-.24,5.87-4.45,6.51c-4-1.49-3.06-2.92-3.06-2.92S305.55,276.23,308.52,275Z" transform="translate(0.02)" style="opacity:0.10000000149011612;isolation:isolate"/><path d="M308.74,275.13a5.37,5.37,0,0,0,3.18.94c1.76-.11,1,3.47,1,3.47s-.23,5.87-4.44,6.51-3.06-2.92-3.06-2.92S305.77,276.33,308.74,275.13Z" transform="translate(0.02)" style="fill:#6f35a5"/><path d="M285.65,286.19s1.44-1.26,2.23.4l-.67,3.72-4.13,36.84L280.44,332Z" transform="translate(0.02)" style="fill:#00a66c"/><polygon points="297.91 277.62 280.61 333.82 282.18 334.69 299.34 277.99 297.91 277.62" style="fill:#00a66c"/><path d="M293.16,303.1s-3.88,14.67-8.16,20.52-3.47,10.7-3.47,10.7l1.4.43,11.5-30.63Z" transform="translate(0.02)" style="fill:#00a66c"/><polygon points="307.32 290.19 282.64 333.17 283.82 333.81 309.27 290.5 307.32 290.19" style="fill:#00a66c"/><polygon points="312.77 301.54 282.03 333.58 282.95 334.77 314.08 302.26 312.77 301.54" style="fill:#00a66c"/><path d="M314.72,303.92s-.41-1.8-1.79-1.46S284.38,333,284.38,333l1.15.9Z" transform="translate(0.02)" style="fill:#00a66c"/><path d="M284.32,284.25s-4.64,1.26-4.42,3.49c0,0,8.45-2.26,12.29.32,0,0,.48-3-3.48-3.61l-2.78-3Z" transform="translate(0.02)" style="fill:#00a66c"/><path d="M286.92,274.89s-1-1.83-1.95-1.41-6.5,4.79-1.12,10.51,10.4-1.32,10.4-1.32l.53-5.46s-2.54-4.94-7.4-3.16Z" transform="translate(0.02)" style="fill:#6f35a5"/><path d="M279.87,274.71s-3.25,6.06,3.67,10.73l1.12-2.42S283.14,275.82,279.87,274.71Z" transform="translate(0.02)" style="opacity:0.10000000149011612;isolation:isolate"/><path d="M279.6,274.7s-3.25,6.06,3.67,10.73l2.07-.16S282.88,275.81,279.6,274.7Z" transform="translate(0.02)" style="fill:#6f35a5"/><path d="M292.39,275.5a5.39,5.39,0,0,0,3.11,1.12c1.76,0,.72,3.53.72,3.53s-.64,5.84-4.88,6.19c-3.91-1.76-2.85-3.13-2.85-3.13S289.35,276.49,292.39,275.5Z" transform="translate(0.02)" style="opacity:0.10000000149011612;isolation:isolate"/><path d="M292.6,275.62a5.43,5.43,0,0,0,3.11,1.16c1.76,0,.72,3.53.72,3.53s-.64,5.83-4.88,6.18-2.85-3.12-2.85-3.12S289.56,276.62,292.6,275.62Z" transform="translate(0.02)" style="fill:#6f35a5"/><path d="M296.15,275.62s-4.64,1.26-4.43,3.49c0,0,8.45-2.26,12.29.31,0,0,.49-3-3.48-3.6l-2.78-3Z" transform="translate(0.02)" style="fill:#00a66c"/><path d="M298.74,266.28s-1-1.83-1.95-1.41-6.5,4.79-1.12,10.51,10.4-1.32,10.4-1.32l.53-5.46s-2.54-4.94-7.4-3.16Z" transform="translate(0.02)" style="fill:#6f35a5"/><path d="M291.69,266.1s-3.25,6.06,3.67,10.73l1.12-2.42S295,267.21,291.69,266.1Z" transform="translate(0.02)" style="opacity:0.10000000149011612;isolation:isolate"/><path d="M291.42,266.09s-3.24,6.06,3.67,10.73l2.07-.17S294.7,267.2,291.42,266.09Z" transform="translate(0.02)" style="fill:#6f35a5"/><path d="M304.22,266.89a5.3,5.3,0,0,0,3.1,1.15c1.76,0,.72,3.53.72,3.53s-.64,5.84-4.88,6.19c-3.9-1.77-2.85-3.13-2.85-3.13S301.17,267.88,304.22,266.89Z" transform="translate(0.02)" style="opacity:0.10000000149011612;isolation:isolate"/><path d="M304.43,267a5.3,5.3,0,0,0,3.1,1.15c1.76,0,.72,3.53.72,3.53s-.64,5.84-4.88,6.19-2.85-3.13-2.85-3.13S301.38,268,304.43,267Z" transform="translate(0.02)" style="fill:#6f35a5"/><path d="M306.14,287.62s-4.52-1.63-5.63.31c0,0,8.22,3,9.89,7.32,0,0,2.12-2.18-.78-4.95l-.54-4.06Z" transform="translate(0.02)" style="fill:#00a66c"/><path d="M313.64,281.46s.25-2.06-.79-2.28-8.07.19-7,8,9.28,4.88,9.28,4.88l3.57-4.16s.75-5.51-4.25-6.84Z" transform="translate(0.02)" style="fill:#6f35a5"/><path d="M308,277.26s-6.14,3.1-3.15,10.89l2.3-1.34S310,280.05,308,277.26Z" transform="translate(0.02)" style="opacity:0.10000000149011612;isolation:isolate"/><path d="M307.76,277.1s-6.14,3.1-3.16,10.89l1.79,1.05S309.8,279.89,307.76,277.1Z" transform="translate(0.02)" style="fill:#6f35a5"/><path d="M317.77,285.1a5.41,5.41,0,0,0,1.88,2.72c1.44,1-1.43,3.31-1.43,3.31s-3.88,4.41-7.55,2.26c-2.18-3.68-.54-4.2-.54-4.2S314.71,284.16,317.77,285.1Z" transform="translate(0.02)" style="opacity:0.10000000149011612;isolation:isolate"/><path d="M317.88,285.31a5.33,5.33,0,0,0,1.88,2.73c1.44,1-1.43,3.3-1.43,3.3s-3.88,4.41-7.55,2.27-.54-4.2-.54-4.2S314.82,284.37,317.88,285.31Z" transform="translate(0.02)" style="fill:#6f35a5"/><path d="M313.39,299.87s-4.52-1.63-5.62.32c0,0,8.21,3,9.88,7.32,0,0,2.12-2.19-.78-4.95l-.54-4.07Z" transform="translate(0.02)" style="fill:#00a66c"/><path d="M320.89,293.7s.25-2.06-.79-2.27-8.07.18-6.94,8,9.27,4.89,9.27,4.89l3.57-4.17s.75-5.5-4.25-6.83Z" transform="translate(0.02)" style="fill:#6f35a5"/><path d="M315.22,289.5s-6.14,3.1-3.15,10.9l2.3-1.34S317.27,292.29,315.22,289.5Z" transform="translate(0.02)" style="opacity:0.10000000149011612;isolation:isolate"/><path d="M315,289.34s-6.14,3.1-3.16,10.89l1.79,1S317.05,292.13,315,289.34Z" transform="translate(0.02)" style="fill:#6f35a5"/><path d="M325,297.34a5.41,5.41,0,0,0,1.87,2.73c1.44,1-1.43,3.3-1.43,3.3s-3.88,4.41-7.55,2.27c-2.18-3.69-.54-4.2-.54-4.2S322,296.4,325,297.34Z" transform="translate(0.02)" style="opacity:0.10000000149011612;isolation:isolate"/><path d="M325.13,297.56a5.3,5.3,0,0,0,1.88,2.72c1.44,1-1.43,3.31-1.43,3.31S321.7,308,318,305.85s-.54-4.2-.54-4.2S322.07,296.62,325.13,297.56Z" transform="translate(0.02)" style="fill:#6c63ff"/><path d="M314.31,304s-4.52-1.63-5.63.32c0,0,8.22,3,9.88,7.32,0,0,2.13-2.19-.77-4.95l-.55-4.07Z" transform="translate(0.02)" style="fill:#00a66c"/><path d="M321.81,297.81s.25-2.05-.79-2.27-8.07.18-6.95,8,9.27,4.89,9.27,4.89l3.57-4.16s.76-5.51-4.24-6.84Z" transform="translate(0.02)" style="fill:#6f35a5"/><path d="M316.14,293.62S310,296.71,313,304.51l2.31-1.34S318.18,296.4,316.14,293.62Z" transform="translate(0.02)" style="opacity:0.10000000149011612;isolation:isolate"/><path d="M315.92,293.45s-6.13,3.1-3.15,10.89l1.79,1.06S318,296.24,315.92,293.45Z" transform="translate(0.02)" style="fill:#6f35a5"/><path d="M325.94,301.45a5.33,5.33,0,0,0,1.88,2.73c1.44,1-1.43,3.3-1.43,3.3s-3.88,4.42-7.55,2.27c-2.19-3.69-.54-4.2-.54-4.2S322.88,300.51,325.94,301.45Z" transform="translate(0.02)" style="opacity:0.10000000149011612;isolation:isolate"/><path d="M326.05,301.67a5.3,5.3,0,0,0,1.88,2.72c1.44,1-1.44,3.31-1.44,3.31s-3.87,4.41-7.54,2.26-.55-4.2-.55-4.2S323,300.73,326.05,301.67Z" transform="translate(0.02)" style="fill:#6f35a5"/><path d="M292.29,301.3s-4.52-1.64-5.63.31c0,0,8.22,3,9.88,7.32,0,0,2.12-2.18-.78-4.95l-.54-4.07Z" transform="translate(0.02)" style="fill:#00a66c"/><path d="M299.79,295.12s.25-2.05-.79-2.27-8.08.19-6.95,8,9.27,4.89,9.27,4.89l3.57-4.16s.76-5.51-4.24-6.84Z" transform="translate(0.02)" style="fill:#6f35a5"/><path d="M294.12,290.93S288,294,291,301.82l2.31-1.34S296.16,293.72,294.12,290.93Z" transform="translate(0.02)" style="opacity:0.10000000149011612;isolation:isolate"/><path d="M293.9,290.77s-6.13,3.09-3.15,10.89l1.79,1S296,293.56,293.9,290.77Z" transform="translate(0.02)" style="fill:#6f35a5"/><path d="M303.92,298.76a5.33,5.33,0,0,0,1.88,2.73c1.44,1-1.43,3.31-1.43,3.31s-3.88,4.41-7.55,2.26c-2.19-3.69-.54-4.2-.54-4.2S300.86,297.82,303.92,298.76Z" transform="translate(0.02)" style="opacity:0.10000000149011612;isolation:isolate"/><path d="M304,299a5.3,5.3,0,0,0,1.88,2.72c1.43,1-1.44,3.31-1.44,3.31s-3.87,4.41-7.55,2.26-.54-4.2-.54-4.2S301,298,304,299Z" transform="translate(0.02)" style="fill:#6f35a5"/><path d="M294.76,287.83s-4.53-1.64-5.63.31c0,0,8.22,3,9.88,7.32,0,0,2.12-2.18-.78-4.95l-.54-4.07Z" transform="translate(0.02)" style="fill:#00a66c"/><path d="M302.26,281.62s.25-2-.79-2.27-8.08.19-7,8,9.27,4.89,9.27,4.89l3.57-4.16s.75-5.51-4.25-6.84Z" transform="translate(0.02)" style="fill:#6f35a5"/><path d="M296.58,277.46s-6.13,3.09-3.15,10.89l2.31-1.34S298.63,280.25,296.58,277.46Z" transform="translate(0.02)" style="opacity:0.10000000149011612;isolation:isolate"/><path d="M296.37,277.3s-6.14,3.09-3.15,10.89l1.78,1.05S298.42,280.09,296.37,277.3Z" transform="translate(0.02)" style="fill:#6f35a5"/><path d="M306.39,285.29a5.33,5.33,0,0,0,1.88,2.73c1.44,1-1.43,3.31-1.43,3.31s-3.88,4.41-7.55,2.26c-2.19-3.69-.54-4.2-.54-4.2S303.32,284.35,306.39,285.29Z" transform="translate(0.02)" style="opacity:0.10000000149011612;isolation:isolate"/><path d="M306.49,285.51a5.3,5.3,0,0,0,1.88,2.72c1.44,1-1.43,3.31-1.43,3.31s-3.88,4.41-7.55,2.26-.54-4.2-.54-4.2S303.43,284.62,306.49,285.51Z" transform="translate(0.02)" style="fill:#6f35a5"/><path d="M279.7,308.2s12.39,1.37,19.12,22.92-14.44,5.43-14.44,5.43-5.58,1.12-6.45-10.13S279.7,308.2,279.7,308.2Z" transform="translate(0.02)" style="fill:#fbbebe"/><path d="M278.11,325.33l3-1.31a.69.69,0,0,1,.91.34h0a.68.68,0,0,1-.35.91l-3,1.31a.69.69,0,0,1-.91-.34h0A.69.69,0,0,1,278.11,325.33Z" transform="translate(0.02)" style="fill:#e3e8f4"/><path d="M228.69,244.14l-2-1.82c-7.18-6.6-11.93-10.88-11.93-16.22a7.59,7.59,0,0,1,7.46-7.72h.22a8.23,8.23,0,0,1,6.28,3,8.23,8.23,0,0,1,6.28-3,7.59,7.59,0,0,1,7.67,7.51v.21c0,5.34-4.74,9.62-11.93,16.22Z" transform="translate(0.02)" style="fill:#6c63ff;opacity:0.10000000149011612;isolation:isolate"/><path d="M200.78,130.68l-2-1.83c-7.19-6.59-11.94-10.88-11.94-16.21a7.59,7.59,0,0,1,7.46-7.72h.22a8.23,8.23,0,0,1,6.28,3,8.23,8.23,0,0,1,6.28-3,7.59,7.59,0,0,1,7.67,7.51v.21c0,5.33-4.74,9.62-11.93,16.21Z" transform="translate(0.02)" style="fill:#6c63ff;opacity:0.10000000149011612;isolation:isolate"/><path d="M410.22,185.07l-2-1.83c-7.19-6.59-11.93-10.88-11.93-16.21a7.59,7.59,0,0,1,7.46-7.72H404a8.23,8.23,0,0,1,6.28,2.95,8.23,8.23,0,0,1,6.28-2.95,7.59,7.59,0,0,1,7.68,7.5V167c0,5.33-4.75,9.62-11.93,16.21Z" transform="translate(0.02)" style="fill:#6c63ff;opacity:0.10000000149011612;isolation:isolate"/><path d="M823.93,171.45c-4-5.44-12.27.46-8.53,6.09,1,1.47,2.05,2.9,3.06,4.26,12.32,16.63,18.7,36.82,24.2,56.77,1.34,4.9,2.65,10.13,1.11,15,2.2-13,.77-26.35-2.55-39.08s-8.49-24.89-13.83-36.9A33.13,33.13,0,0,0,823.93,171.45Z" transform="translate(0.02)" style="fill:#6c63ff;opacity:0.5;isolation:isolate"/><path d="M744,206.42c-8.31-.25-9.36,12.35-1.09,13,2.17.17,4.36.22,6.44.28,25.44.69,49.5,9.92,72.61,19.84,5.68,2.43,11.63,5.16,15,10.37-10.42-12.08-24.14-20.93-38.74-27.44s-30.14-10.77-45.68-14.76A39.71,39.71,0,0,0,744,206.42Z" transform="translate(0.02)" style="fill:#6f35a5"/><path d="M746.32,237.39c-5.24.2-4.06,7.65,1.22,7.7,1.38,0,2.76-.05,4.08-.11,16-.65,32.48,3.78,48.42,8.65,3.91,1.19,8.05,2.55,10.89,5.48-8.3-6.67-18.2-11.31-28.3-14.53s-20.47-5.08-30.8-6.77A28.25,28.25,0,0,0,746.32,237.39Z" transform="translate(0.02)" style="fill:#6c63ff;opacity:0.20000000298023224;isolation:isolate"/><path d="M853.69,376c1.49,5,8.41,2,7.15-3.09-.33-1.34-.74-2.66-1.12-3.92-4.61-15.39-4.39-32.4-3.63-49.05.18-4.09.47-8.43,2.6-11.91-4.4,9.7-6.44,20.43-7.05,31s.16,21.09,1.08,31.51A28,28,0,0,0,853.69,376Z" transform="translate(0.02)" style="fill:#6c63ff;opacity:0.5;isolation:isolate"/><path d="M755.88,164.46c-3.16-.55-3.4,4-.25,4.75.83.18,1.66.32,2.45.46,9.67,1.65,18.92,6.38,27.82,11.31,2.19,1.21,4.48,2.55,5.81,4.66a53.12,53.12,0,0,0-15.06-12.27,131.25,131.25,0,0,0-17.53-8A16.6,16.6,0,0,0,755.88,164.46Z" transform="translate(0.02)" style="fill:#6c63ff;opacity:0.20000000298023224;isolation:isolate"/><path d="M707.12,286.38c-8,4.13-1.24,15.45,7,11.69,2.15-1,4.26-2.08,6.26-3.13,24.49-12.7,52.94-17.37,80.91-21,6.87-.88,14.19-1.65,20.54,1.07-17.31-4.89-35.74-5.29-53.56-3.22S733.12,278.33,716,283A46.7,46.7,0,0,0,707.12,286.38Z" transform="translate(0.02)" style="fill:#6f35a5"/><path d="M730,330.45c-5.76,5.37,3.23,11.72,9.27,6.56,1.58-1.35,3.09-2.78,4.53-4.13,17.55-16.47,40.74-28.2,63.83-39,5.67-2.65,29-5.36,35.22-5.21-16.26,1.45-49.49,6.53-64.26,13.25S750.14,317,736.67,325.44A45.23,45.23,0,0,0,730,330.45Z" transform="translate(0.02)" style="fill:#6c63ff;opacity:0.5;isolation:isolate"/><path d="M771.09,400.8c-1.68,7.68,9.32,7.79,11.36.11.53-2,1-4,1.37-6,5.08-23.49,17.49-46.29,30.35-68.29,3.15-5.4,20.81-20.89,26-24.31-12.56,10.45-37,33.52-45.34,47.44s-14.83,28.5-21.1,43.12A46.12,46.12,0,0,0,771.09,400.8Z" transform="translate(0.02)" style="fill:#6f35a5"/><path d="M853.78,130.74c-3.92-8-15.13-1.42-11.57,6.78.93,2.15,2,4.25,3,6.25,12.08,24.43,16.23,52.69,19.33,80.46.77,6.82,1.41,14.08-1.35,20.35,5.06-17.1,5.73-35.37,4-53s-5.88-34.93-10.24-52A46.81,46.81,0,0,0,853.78,130.74Z" transform="translate(0.02)" style="fill:#6f35a5"/><path d="M791.3,144.35a1.49,1.49,0,0,0,.68.2c.43,0,.74-.44.92-.84,1-2.12.42-4.88,1.92-6.68a23,23,0,0,1,3.66,6.14l5.76-1.78a8.54,8.54,0,0,1-1.09,6.59,8.79,8.79,0,0,1,2.71,1.84,3,3,0,0,1,.71,3.05,14.66,14.66,0,0,1-4.07.4,26.64,26.64,0,0,1-.43,7.56,1.42,1.42,0,0,1-.49,1,1.37,1.37,0,0,1-1.41-.24,13.28,13.28,0,0,1-4.73-5l-2.14,5a2.21,2.21,0,0,1-1,1.28,1.52,1.52,0,0,1-1.79-.61,4.74,4.74,0,0,1-.64-1.94l-.8-4.87a1.18,1.18,0,0,0-.26-.69,1.21,1.21,0,0,0-.81-.17q-3-.09-6.09-.06c-.35-1.08.73-2.09,1.76-2.54s2.28-.8,2.8-1.81c1.06-2.05-1.69-4.91-.52-6.69C787.31,141.42,789.53,143.47,791.3,144.35Z" transform="translate(0.02)" style="fill:#6f35a5"/><path d="M902.38,171.45c4-5.44,12.28.46,8.54,6.09-1,1.47-2,2.9-3.06,4.26-12.32,16.63-18.7,36.82-24.2,56.77-1.34,4.9-2.65,10.13-1.11,15-2.2-13-.77-26.35,2.55-39.08s8.49-24.89,13.83-36.9A33.67,33.67,0,0,1,902.38,171.45Z" transform="translate(0.02)" style="fill:#6c63ff;opacity:0.5;isolation:isolate"/><path d="M982.29,206.42c8.31-.25,9.36,12.35,1.09,13-2.17.17-4.36.22-6.44.28-25.44.69-49.5,9.92-72.61,19.84-5.68,2.43-11.63,5.16-15,10.37,10.42-12.08,24.14-20.93,38.74-27.44s30.13-10.77,45.68-14.76A39.71,39.71,0,0,1,982.29,206.42Z" transform="translate(0.02)" style="fill:#6f35a5"/><path d="M980,237.39c5.24.2,4.06,7.65-1.22,7.7-1.38,0-2.76-.05-4.08-.11-16.05-.65-32.48,3.78-48.42,8.65-3.91,1.19-8,2.55-10.89,5.48,8.3-6.67,18.19-11.31,28.3-14.53s20.47-5.08,30.8-6.77A28.25,28.25,0,0,1,980,237.39Z" transform="translate(0.02)" style="fill:#6c63ff;opacity:0.5;isolation:isolate"/><path d="M970.44,164.46c3.16-.55,3.4,4,.25,4.75-.83.18-1.66.32-2.45.46-9.67,1.65-18.92,6.38-27.82,11.31-2.19,1.21-4.48,2.55-5.81,4.66a53.12,53.12,0,0,1,15.06-12.27,131.25,131.25,0,0,1,17.53-8A16.6,16.6,0,0,1,970.44,164.46Z" transform="translate(0.02)" style="fill:#6c63ff;opacity:0.20000000298023224;isolation:isolate"/><path d="M888.22,385.55c-.71,3.12-5.05,1.57-4.48-1.61.15-.83.34-1.65.52-2.43,2.21-9.56,1.41-19.92.29-30-.28-2.49-.62-5.12-2.06-7.16A53.23,53.23,0,0,1,888,363a131.5,131.5,0,0,1,.58,19.24A17.27,17.27,0,0,1,888.22,385.55Z" transform="translate(0.02)" style="fill:#6c63ff;opacity:0.20000000298023224;isolation:isolate"/><path d="M968.41,364.76c2.47,4.18-3.59,3.9-6.25-.29-.7-1.09-1.34-2.19-1.95-3.24-7.52-12.78-19-25.42-30.46-37.63-2.82-3-5.88-6.15-9.44-8.15a148.82,148.82,0,0,1,24.75,21.17c7.39,7.73,13.92,15.78,20.31,23.82A38.15,38.15,0,0,1,968.41,364.76Z" transform="translate(0.02)" style="fill:#6c63ff;opacity:0.5;isolation:isolate"/><path d="M749,364.76c-2.47,4.18,3.59,3.9,6.26-.29.69-1.09,1.33-2.19,2-3.24,7.51-12.78,18.94-25.42,30.46-37.63,2.82-3,5.88-6.15,9.44-8.15a149,149,0,0,0-24.78,21.17c-7.39,7.73-13.92,15.78-20.31,23.82A39.3,39.3,0,0,0,749,364.76Z" transform="translate(0.02)" style="fill:#6c63ff;opacity:0.20000000298023224;isolation:isolate"/><path d="M829.22,385.55c.71,3.12,5,1.57,4.48-1.61-.15-.83-.34-1.65-.52-2.43-2.21-9.56-1.41-19.92-.29-30,.28-2.49.62-5.12,2.06-7.16A53.13,53.13,0,0,0,829.43,363a131.5,131.5,0,0,0-.58,19.24A17.78,17.78,0,0,0,829.22,385.55Z" transform="translate(0.02)" style="fill:#6c63ff;opacity:0.20000000298023224;isolation:isolate"/><path d="M945.16,195.85c3.15-.55,3.39,4.06.24,4.75-.82.19-1.65.32-2.44.46-9.67,1.65-18.92,6.38-27.83,11.31-2.18,1.22-4.48,2.55-5.8,4.66a53.35,53.35,0,0,1,15-12.27,133.23,133.23,0,0,1,17.54-8A18,18,0,0,1,945.16,195.85Z" transform="translate(0.02)" style="fill:#6c63ff;opacity:0.20000000298023224;isolation:isolate"/><path d="M915.66,134.22c2.73-1.69,4.67,2.49,2,4.31-.7.48-1.42.92-2.1,1.34-8.35,5.14-15.16,13-21.58,20.89-1.57,1.94-3.2,4-3.64,6.49a53.1,53.1,0,0,1,9.37-17A133.62,133.62,0,0,1,913,136.31,17.87,17.87,0,0,1,915.66,134.22Z" transform="translate(0.02)" style="fill:#6c63ff;opacity:0.20000000298023224;isolation:isolate"/><path d="M1019.2,286.38c8,4.13,1.24,15.45-7,11.69-2.16-1-4.26-2.08-6.27-3.13-24.48-12.7-52.93-17.37-80.91-21-6.86-.88-14.18-1.65-20.53,1.07,17.31-4.89,35.74-5.29,53.56-3.22s35.15,6.54,52.31,11.25A46.7,46.7,0,0,1,1019.2,286.38Z" transform="translate(0.02)" style="fill:#6f35a5"/><path d="M996.31,330.45c5.76,5.37-3.23,11.72-9.27,6.56-1.59-1.35-3.09-2.78-4.53-4.13-17.55-16.47-40.74-28.2-63.83-39-5.67-2.65-29-5.36-35.23-5.21,16.27,1.45,49.5,6.53,64.27,13.25s28.45,15.05,41.91,23.52A44.12,44.12,0,0,1,996.31,330.45Z" transform="translate(0.02)" style="fill:#6c63ff;opacity:0.5;isolation:isolate"/><path d="M928.46,409.62c.71,7.84-10.23,6.57-11.29-1.3-.27-2.06-.44-4.12-.61-6.09C914.47,378.23,905,354,895,330.59c-2.45-5.75-18-23.33-22.77-27.38,11.15,11.94,32.52,37.89,39,52.74s11.16,30.19,15.55,45.48A44.74,44.74,0,0,1,928.46,409.62Z" transform="translate(0.02)" style="fill:#6f35a5"/><path d="M935,144.35a1.49,1.49,0,0,1-.68.2c-.43,0-.74-.44-.92-.84-1-2.12-.42-4.88-1.92-6.68a23,23,0,0,0-3.66,6.14l-5.76-1.78a8.54,8.54,0,0,0,1.09,6.59,8.79,8.79,0,0,0-2.71,1.84,3,3,0,0,0-.71,3.05,14.66,14.66,0,0,0,4.07.4,26.64,26.64,0,0,0,.43,7.56,1.42,1.42,0,0,0,.49,1,1.37,1.37,0,0,0,1.41-.24,13.28,13.28,0,0,0,4.73-5l2.14,5a2.21,2.21,0,0,0,1,1.28,1.52,1.52,0,0,0,1.79-.61,4.58,4.58,0,0,0,.63-1.94l.8-4.87a1.26,1.26,0,0,1,.27-.69,1.23,1.23,0,0,1,.85-.24q3-.09,6.09-.06c.35-1.08-.73-2.09-1.76-2.54s-2.28-.8-2.8-1.81c-1.06-2,1.68-4.91.52-6.69C939,141.42,936.79,143.47,935,144.35Z" transform="translate(0.02)" style="fill:#6f35a5"/><path d="M952.38,381.35a1.26,1.26,0,0,1-.68.2c-.43,0-.74-.43-.92-.83-1-2.13-.42-4.89-1.92-6.68a23,23,0,0,0-3.66,6.13l-5.76-1.78a8.56,8.56,0,0,0,1.09,6.6,8.79,8.79,0,0,0-2.71,1.84,3,3,0,0,0-.71,3,14.67,14.67,0,0,0,4.07.41,26.64,26.64,0,0,0,.43,7.56,1.08,1.08,0,0,0,1,1.13,1.1,1.1,0,0,0,.89-.4,13.28,13.28,0,0,0,4.73-5l2.14,5.11a2.24,2.24,0,0,0,1,1.28,1.53,1.53,0,0,0,1.79-.62,4.44,4.44,0,0,0,.63-1.94l.8-4.87a.92.92,0,0,1,1.12-.93q3-.07,6.09-.06c.35-1.08-.73-2.08-1.76-2.54s-2.28-.79-2.8-1.8c-1.06-2.06,1.68-4.92.52-6.69C956.37,378.42,954.15,380.47,952.38,381.35Z" transform="translate(0.02)" style="fill:#6c63ff;opacity:0.20000000298023224;isolation:isolate"/><path d="M1001.15,222.49a1.49,1.49,0,0,1-.68.2c-.44,0-.74-.44-.92-.84-1-2.13-.42-4.89-1.93-6.68a23,23,0,0,0-3.66,6.14l-5.75-1.79a8.56,8.56,0,0,0,1.09,6.6,8.79,8.79,0,0,0-2.71,1.84,3,3,0,0,0-.71,3,14.66,14.66,0,0,0,4.07.4,26.64,26.64,0,0,0,.43,7.56,1.34,1.34,0,0,0,.49,1c.42.27,1,0,1.41-.23a13.28,13.28,0,0,0,4.73-5l2.14,5.11a2.27,2.27,0,0,0,1,1.28,1.54,1.54,0,0,0,1.8-.62,4.44,4.44,0,0,0,.63-1.94l.8-4.86a1.19,1.19,0,0,1,.27-.69,1.24,1.24,0,0,1,.85-.25q3-.08,6.09-.06c.35-1.08-.73-2.08-1.77-2.53s-2.27-.8-2.79-1.81c-1.06-2.06,1.68-4.92.52-6.69C1005.14,219.55,1002.92,221.62,1001.15,222.49Z" transform="translate(0.02)" style="fill:#6f35a5"/><path d="M806.17,405.12a1.94,1.94,0,0,1-.94.28c-.61,0-1-.61-1.29-1.16-1.36-3-.58-6.81-2.68-9.31a32.09,32.09,0,0,0-5.1,8.55l-8-2.48a11.91,11.91,0,0,0,1.52,9.18,12.18,12.18,0,0,0-3.78,2.57,4.17,4.17,0,0,0-1,4.25,20.36,20.36,0,0,0,5.66.56,37.66,37.66,0,0,0,.6,10.54,2,2,0,0,0,.69,1.34c.59.37,1.36,0,2-.33a18.72,18.72,0,0,0,6.6-7l3,7.12a3.1,3.1,0,0,0,1.33,1.78,2.15,2.15,0,0,0,2.5-.86,6.16,6.16,0,0,0,.88-2.7l1.12-6.78a1.64,1.64,0,0,1,.37-1,1.68,1.68,0,0,1,1.18-.34q4.24-.12,8.49-.09c.49-1.5-1-2.9-2.46-3.53s-3.17-1.12-3.89-2.52c-1.48-2.87,2.34-6.85.72-9.32C811.73,401,808.64,403.9,806.17,405.12Z" transform="translate(0.02)" style="fill:#6f35a5"/><path d="M725.05,227.23a2,2,0,0,1-.95.28c-.6,0-1-.61-1.28-1.17-1.37-3-.58-6.81-2.68-9.31a32.18,32.18,0,0,0-5.14,8.59l-8-2.48a11.93,11.93,0,0,0,1.51,9.19,12.31,12.31,0,0,0-3.77,2.57,4.18,4.18,0,0,0-1,4.24,20.78,20.78,0,0,0,5.67.57,37.2,37.2,0,0,0,.6,10.53,1.94,1.94,0,0,0,.69,1.34c.59.38,1.36,0,1.95-.32a18.57,18.57,0,0,0,6.6-7l3,7.12a3.18,3.18,0,0,0,1.32,1.79,2.15,2.15,0,0,0,2.5-.87,6.3,6.3,0,0,0,.89-2.7l1.11-6.78a1.83,1.83,0,0,1,.37-1,1.69,1.69,0,0,1,1.19-.34q4.25-.12,8.49-.08c.48-1.51-1-2.91-2.47-3.54s-3.16-1.11-3.89-2.52c-1.47-2.86,2.35-6.85.72-9.32C730.61,223.14,727.52,226,725.05,227.23Z" transform="translate(0.02)" style="fill:#6f35a5"/><path d="M971.21,337.39a.92.92,0,0,1-.51.15c-.32,0-.54-.32-.68-.62-.72-1.57-.31-3.61-1.42-4.94a17.14,17.14,0,0,0-2.71,4.54l-4.26-1.32a6.34,6.34,0,0,0,.8,4.88,6.54,6.54,0,0,0-2,1.37,2.2,2.2,0,0,0-.52,2.25,10.81,10.81,0,0,0,3,.3,20.23,20.23,0,0,0,.32,5.6,1.08,1.08,0,0,0,.37.71c.31.2.72,0,1-.17a9.85,9.85,0,0,0,3.5-3.72l1.59,3.78a1.68,1.68,0,0,0,.7.95,1.14,1.14,0,0,0,1.33-.46,3.15,3.15,0,0,0,.47-1.43l.59-3.61a.85.85,0,0,1,.2-.5.89.89,0,0,1,.63-.18c1.5-.05,3-.06,4.51-.05.26-.8-.54-1.54-1.31-1.88s-1.68-.59-2.07-1.33c-.78-1.53,1.25-3.64.39-5S972.52,336.74,971.21,337.39Z" transform="translate(0.02)" style="fill:#6c63ff;opacity:0.20000000298023224;isolation:isolate"/><path d="M861,401a1,1,0,0,1-.5.15c-.33,0-.55-.33-.69-.62-.72-1.58-.3-3.62-1.42-4.95a17.14,17.14,0,0,0-2.71,4.54l-4.26-1.32a6.33,6.33,0,0,0,.81,4.89,6.51,6.51,0,0,0-2,1.36,2.22,2.22,0,0,0-.52,2.25,10.81,10.81,0,0,0,3,.3,19.86,19.86,0,0,0,.32,5.6,1,1,0,0,0,.36.71c.31.2.72,0,1-.17A9.8,9.8,0,0,0,857.9,410l1.58,3.79a1.67,1.67,0,0,0,.71.94,1.11,1.11,0,0,0,1.32-.45,3.23,3.23,0,0,0,.47-1.44l.6-3.6a.94.94,0,0,1,.19-.51.89.89,0,0,1,.63-.18c1.5,0,3-.06,4.51,0,.26-.8-.54-1.54-1.31-1.88s-1.68-.59-2.06-1.33c-.79-1.53,1.24-3.64.38-4.95C864,398.85,862.32,400.36,861,401Z" transform="translate(0.02)" style="fill:#6c63ff;opacity:0.20000000298023224;isolation:isolate"/><path d="M754.36,178.33a1,1,0,0,1-.5.15c-.32,0-.55-.33-.68-.62-.73-1.57-.31-3.62-1.43-5a17.19,17.19,0,0,0-2.71,4.55l-4.26-1.32a6.3,6.3,0,0,0,.81,4.88,6.51,6.51,0,0,0-2,1.36,2.24,2.24,0,0,0-.52,2.26,10.81,10.81,0,0,0,3,.3,19.79,19.79,0,0,0,.32,5.59,1,1,0,0,0,.36.72,1,1,0,0,0,1-.18,10,10,0,0,0,3.51-3.71l1.58,3.78a1.69,1.69,0,0,0,.71,1,1.14,1.14,0,0,0,1.33-.46,3.5,3.5,0,0,0,.47-1.44l.65-3.62a.88.88,0,0,1,.2-.51,1,1,0,0,1,.63-.18h4.5c.26-.8-.54-1.54-1.3-1.88s-1.69-.59-2.07-1.34c-.79-1.52,1.24-3.64.38-5C757.31,176.16,755.68,177.68,754.36,178.33Z" transform="translate(0.02)" style="fill:#6c63ff;opacity:0.5;isolation:isolate"/><path d="M811.12,303.82a1,1,0,0,1-.5.15c-.32,0-.55-.33-.68-.62-.73-1.58-.31-3.62-1.43-5a16.49,16.49,0,0,0-2.7,4.55l-4.27-1.28a6.35,6.35,0,0,0,.81,4.88,6.81,6.81,0,0,0-2,1.36,2.24,2.24,0,0,0-.52,2.26,10.81,10.81,0,0,0,3,.3,19.79,19.79,0,0,0,.32,5.59.79.79,0,0,0,.75.83.81.81,0,0,0,.65-.29,10,10,0,0,0,3.51-3.71l1.58,3.78a1.74,1.74,0,0,0,.71.95,1.14,1.14,0,0,0,1.33-.46,3.23,3.23,0,0,0,.47-1.44l.59-3.6a.88.88,0,0,1,.2-.51.9.9,0,0,1,.63-.18c1.5,0,3-.06,4.51,0,.25-.8-.54-1.54-1.31-1.88s-1.68-.59-2.07-1.34c-.78-1.52,1.24-3.64.38-5C814.08,301.62,812.44,303.17,811.12,303.82Z" transform="translate(0.02)" style="fill:#6c63ff;opacity:0.5;isolation:isolate"/><path d="M769.93,254.9a1,1,0,0,1-.5.15c-.33,0-.55-.33-.69-.62-.72-1.58-.3-3.62-1.42-5a16.93,16.93,0,0,0-2.71,4.55l-4.26-1.32a6.34,6.34,0,0,0,.8,4.88,6.69,6.69,0,0,0-2,1.36,2.22,2.22,0,0,0-.52,2.26,10.81,10.81,0,0,0,3,.3,19.79,19.79,0,0,0,.32,5.59.78.78,0,0,0,1.4.54,9.89,9.89,0,0,0,3.5-3.71l1.59,3.78a1.73,1.73,0,0,0,.71,1,1.13,1.13,0,0,0,1.32-.46,3.23,3.23,0,0,0,.47-1.44l.6-3.6a.94.94,0,0,1,.19-.51.9.9,0,0,1,.63-.18c1.5,0,3-.06,4.51,0,.26-.8-.54-1.54-1.31-1.88s-1.68-.59-2.06-1.34c-.79-1.52,1.24-3.64.38-5C772.88,252.73,771.24,254.25,769.93,254.9Z" transform="translate(0.02)" style="fill:#6c63ff;opacity:0.5;isolation:isolate"/><path d="M946.86,266.42a1,1,0,0,1-.5.15c-.32,0-.54-.33-.68-.62-.73-1.58-.31-3.62-1.42-4.95a16.78,16.78,0,0,0-2.71,4.55l-4.26-1.32a6.34,6.34,0,0,0,.8,4.88,6.81,6.81,0,0,0-2,1.36,2.24,2.24,0,0,0-.52,2.26,11.63,11.63,0,0,0,3,.3,19.79,19.79,0,0,0,.32,5.59.79.79,0,0,0,.74.84.76.76,0,0,0,.67-.3,9.89,9.89,0,0,0,3.5-3.71l1.59,3.78a1.68,1.68,0,0,0,.7.95,1.14,1.14,0,0,0,1.33-.46,3.23,3.23,0,0,0,.47-1.44l.59-3.6a.68.68,0,0,1,.83-.69c1.5,0,3-.06,4.51-.05.25-.79-.54-1.54-1.31-1.87s-1.68-.59-2.07-1.34c-.78-1.52,1.25-3.64.38-5C949.82,264.25,948.18,265.77,946.86,266.42Z" transform="translate(0.02)" style="fill:#6c63ff;opacity:0.5;isolation:isolate"/><path d="M861,256.79a1,1,0,0,1-.5.15c-.33,0-.55-.32-.69-.62-.72-1.57-.3-3.61-1.42-4.94a17.14,17.14,0,0,0-2.71,4.54l-4.25-1.3a6.3,6.3,0,0,0,.81,4.88,6.54,6.54,0,0,0-2,1.37,2.2,2.2,0,0,0-.52,2.25,10.81,10.81,0,0,0,3,.3A19.86,19.86,0,0,0,853,269a1,1,0,0,0,.36.71c.31.2.72,0,1-.17a10,10,0,0,0,3.6-3.74l1.58,3.78a1.69,1.69,0,0,0,.71.95,1.13,1.13,0,0,0,1.32-.46,3.16,3.16,0,0,0,.39-1.47l.6-3.61a.91.91,0,0,1,.19-.5.89.89,0,0,1,.63-.19c1.5,0,3-.05,4.51,0,.26-.8-.54-1.54-1.31-1.88s-1.68-.59-2.06-1.33c-.79-1.53,1.24-3.64.38-5S862.32,256.14,861,256.79Z" transform="translate(0.02)" style="fill:#6c63ff;opacity:0.20000000298023224;isolation:isolate"/><path d="M834.07,268.51a.92.92,0,0,1-.51.15c-.32,0-.54-.32-.68-.62-.72-1.57-.31-3.61-1.42-4.94a17.14,17.14,0,0,0-2.71,4.54l-4.26-1.32a6.34,6.34,0,0,0,.8,4.88,6.54,6.54,0,0,0-2,1.37,2.22,2.22,0,0,0-.53,2.25,10.81,10.81,0,0,0,3,.3,20.23,20.23,0,0,0,.32,5.6,1.08,1.08,0,0,0,.37.71c.31.2.72,0,1-.17a9.85,9.85,0,0,0,3.5-3.72l1.59,3.78a1.68,1.68,0,0,0,.7.95,1.13,1.13,0,0,0,1.33-.46,3.15,3.15,0,0,0,.47-1.43l.59-3.6a.85.85,0,0,1,.2-.51.89.89,0,0,1,.63-.18c1.5,0,3-.06,4.51,0,.26-.8-.54-1.54-1.31-1.88s-1.68-.59-2.07-1.33c-.78-1.53,1.25-3.64.39-5S835.38,267.86,834.07,268.51Z" transform="translate(0.02)" style="fill:#6c63ff;opacity:0.30000001192092896;isolation:isolate"/><path d="M809,197.62a1,1,0,0,1-.5.15c-.32,0-.54-.32-.68-.62-.73-1.57-.31-3.62-1.42-4.94a16.72,16.72,0,0,0-2.71,4.54l-4.26-1.32a6.34,6.34,0,0,0,.8,4.88,6.23,6.23,0,0,0-2,1.36,2.25,2.25,0,0,0-.53,2.26,10.81,10.81,0,0,0,3,.3,19.79,19.79,0,0,0,.32,5.59,1.1,1.1,0,0,0,.37.72c.31.2.72,0,1-.18a9.89,9.89,0,0,0,3.5-3.71l1.59,3.78a1.67,1.67,0,0,0,.7,1,1.14,1.14,0,0,0,1.33-.46,3.15,3.15,0,0,0,.47-1.43l.59-3.61a.88.88,0,0,1,.2-.51,1,1,0,0,1,.63-.18h4.51c.25-.8-.54-1.54-1.31-1.88s-1.68-.59-2.07-1.34c-.78-1.52,1.25-3.64.38-5C811.91,195.41,810.27,196.93,809,197.62Z" transform="translate(0.02)" style="fill:#6c63ff;opacity:0.20000000298023224;isolation:isolate"/><path d="M858.42,290.14a1,1,0,0,1-.5.15.91.91,0,0,1-.68-.62c-.73-1.57-.31-3.62-1.43-4.94a17.14,17.14,0,0,0-2.71,4.54L848.84,288a6.35,6.35,0,0,0,.81,4.88,6.81,6.81,0,0,0-2,1.36,2.24,2.24,0,0,0-.52,2.26,10.81,10.81,0,0,0,3,.3,19.79,19.79,0,0,0,.32,5.59,1,1,0,0,0,.36.72,1,1,0,0,0,1-.17,10,10,0,0,0,3.51-3.72L856.9,303a1.69,1.69,0,0,0,.71.95,1.14,1.14,0,0,0,1.33-.46,3.45,3.45,0,0,0,.47-1.43l.59-3.61a.69.69,0,0,1,.65-.71l.18,0h4.5c.26-.8-.54-1.54-1.3-1.88s-1.69-.59-2.07-1.34c-.78-1.52,1.24-3.64.38-4.95C861.37,288,859.74,289.49,858.42,290.14Z" transform="translate(0.02)" style="fill:#6c63ff;opacity:0.30000001192092896;isolation:isolate"/></svg>