<?xml version="1.0" encoding="utf-8"?>
<!-- Generator: Adobe Illustrator 25.0.0, SVG Export Plug-In . SVG Version: 6.00 Build 0)  -->
<svg version="1.1" id="b20fa69d-126b-479c-8485-104b5d95d423"
	 xmlns="http://www.w3.org/2000/svg" xmlns:xlink="http://www.w3.org/1999/xlink" x="0px" y="0px" viewBox="0 0 1135.2 712.9"
	 style="enable-background:new 0 0 1135.2 712.9;" xml:space="preserve">
<style type="text/css">
	.st0{opacity:0.1;fill:#6C63FF;enable-background:new    ;}
	.st1{fill:#BE6F72;}
	.st2{opacity:0.1;enable-background:new    ;}
	.st3{fill:#3F3D56;}
	.st4{fill:#FBBEBE;}
	.st5{fill:#E3E8F4;}
	.st6{fill:#F86D70;}
	.st7{fill:#6F35A5;}
	.st8{opacity:0.2;}
	.st9{fill:#6C63FF;}
</style>
<path class="st0" d="M1128,491.1c-11.4,27.4-35.2,52.1-60.8,75.6c-22.5,20.6-46.5,40.5-72.2,59.7c-7.1,5.3-14.3,10.6-21.6,15.8
	l-5.1,3.6c-4.5,3.2-9.1,6.4-13.8,9.5l-0.6,0.4c-4.5,3.1-9.1,6.1-13.7,9.2c-15.1,9.9-31,19.7-48.6,27.9c-6,2.8-12.2,5.4-18.6,7.7
	c-3.5,1.3-7,2.4-10.6,3.5c-5.9,1.8-12,3.4-18.3,4.7c-1.1,0.2-2.1,0.4-3.2,0.6c-6.5,1.2-13.1,2.1-19.7,2.7c-24.4,2.2-49.5,0.6-74-3.2
	c-12.2-1.9-24.2-4.4-35.8-7.2c-1.4-0.3-2.8-0.7-4.3-1c-39.6-9.9-76.7-23.3-116.6-32.8c-13.7-3.3-27.7-6-42-8.3c-7-1.1-14-2.1-21-3
	c-16.6-2.1-33.3-3.4-50.2-4.1c-22.7-1-46.2-0.6-67.8,3.4c-2.9,0.5-5.7,1.1-8.5,1.8c-3.6,0.8-7.1,1.8-10.5,2.8
	c-9.2,3-18.2,6.7-26.9,11.1c-1.7,0.8-3.4,1.7-5.1,2.5l0,0c-5.3,2.7-10.5,5.5-15.8,8.1c-9.6,5-19.5,9.2-29.7,12.6
	c-5.6,1.8-11.3,3.2-17.1,4.4c-15.3,3.1-31.5,4.3-47.8,4.3c-7.9,0-15.8-0.2-23.5-0.6h-0.2c-2.7-0.1-5.3-0.3-8-0.5
	c-12.2-0.8-24.3-2.1-36.2-3.9c-40.9-6-79.7-17.3-110.9-34.6c-42.4-23.5-69.3-58.5-65.3-93.5c2.9-25.2,20.9-48.6,38-71.5
	c31.8-42.7,61.6-86.3,77.2-132.3c12.7-37.3,16.5-76.8,45.8-110.4c9.4-10.7,21.4-20.5,35.3-29.1c10.4-6.4,21.4-11.9,32.7-16.5
	c12.8-5.2,26-9.5,39.4-12.9c11.6-2.9,23.4-5.1,35.3-6.6c6.5-0.8,13-1.5,19.6-1.9c5.1-0.4,10.2-0.6,15.3-0.7h0.8
	c3.1-0.1,6.3-0.1,9.4,0c22.8,0.4,45.5,2.5,68,6.4c14.1,2.4,28,5.2,41.7,8.4c8.1,1.9,16.2,3.9,24.2,5.9c2.4,0.6,4.9,1.3,7.3,1.9
	c56.9,15.2,107,36.3,161.8,53.6c0.3,0.1,0.5,0.2,0.8,0.2l0,0c11.3,3.5,22.7,6.3,34.2,8.6c8.5,1.7,17.2,3.2,26,4.5
	c13.5,2,27.3,3.6,41.2,4.9l3.1,0.3c20.4,2,41,3.5,61,5.2c7.1,0.6,14.1,1.3,21.1,2c4.4,0.4,8.8,0.9,13.1,1.4c3.1,0.4,6.2,0.7,9.3,1.1
	s6.4,0.8,9.6,1.2c2.1,0.3,4.2,0.5,6.2,0.8c12.6,1.7,25.2,3.5,37.6,5.7c7.6,1.3,15.1,2.7,22.5,4.2c5.4,1.1,10.7,2.2,16,3.5
	c3.9,0.9,7.8,1.8,11.7,2.8c31.3,7.9,60.6,18.2,85.9,32.1C1120.5,379.3,1149.8,438.7,1128,491.1z"/>
<circle class="st0" cx="249" cy="68.8" r="21.6"/>
<circle class="st0" cx="691.1" cy="21.6" r="21.6"/>
<circle class="st0" cx="953.2" cy="70.1" r="21.6"/>
<circle class="st0" cx="36.2" cy="121.1" r="36.3"/>
<circle class="st0" cx="71" cy="300.1" r="36.2"/>
<circle class="st0" cx="1043.9" cy="234.2" r="36.3"/>
<path class="st1" d="M354.3,239.4c0.2,3,0,6.1-0.5,9.1c-2,9.3-10.5,15.7-18.7,20.5s-17.2,9.4-22.1,17.6c-5.9,9.9-4,23.1,2.9,32.4
	s17.8,14.7,29,17c20.5,4.2,43-1.7,58.3-15.9s23.1-36.4,19.3-57c-8.3,1.2-15.8-6.2-18.5-14.2s-2.1-16.6-3.2-25
	c-0.1-1.4-0.5-2.8-1.2-4c-1.2-1.6-3.2-2.3-5.2-2.8c-9.6-2.6-25.9-8.5-35.8-6.2C349.8,212.9,354.2,231.8,354.3,239.4z"/>
<path class="st2" d="M354.3,239.4c0.2,3,0,6.1-0.5,9.1c-2,9.3-10.5,15.7-18.7,20.5s-17.2,9.4-22.1,17.6c-5.9,9.9-4,23.1,2.9,32.4
	s17.8,14.7,29,17c20.5,4.2,43-1.7,58.3-15.9s23.1-36.4,19.3-57c-8.3,1.2-15.8-6.2-18.5-14.2s-2.1-16.6-3.2-25
	c-0.1-1.4-0.5-2.8-1.2-4c-1.2-1.6-3.2-2.3-5.2-2.8c-9.6-2.6-25.9-8.5-35.8-6.2C349.8,212.9,354.2,231.8,354.3,239.4z"/>
<path class="st1" d="M342.7,682.1c-9.6,5-19.5,9.2-29.7,12.6c-5.6,1.8-11.3,3.2-17.1,4.4c-0.4-7.7,0-15.4,1.2-23
	c0.8-4.4,1.9-8.7,2.2-13.1c0.4-6.4-0.9-12.8-4-18.4c11.1-1.5,21.7-4,32.9-3.3l0.7,0c1.3,0,2.6,0.3,3.9,0.7c1.7,0.8,3.2,2.1,4.2,3.7
	c0.6,0.8,1.1,1.6,1.6,2.5c3.2,5.5,4.4,11.8,4.6,18.2C343.5,671.6,343.3,676.9,342.7,682.1z"/>
<path class="st1" d="M401,657.4c-3.6,0.8-7.1,1.8-10.5,2.8c-9.2,3-18.2,6.7-26.9,11.1c-0.6-2.7-0.8-5.5-0.8-8.3
	c10.3-7.1,23.1-9.7,35.3-7.3c0.8,0.1,1.6,0.4,2.2,0.9C400.6,656.9,400.8,657.2,401,657.4z"/>
<path class="st3" d="M418.2,607c-0.7,6.5-1.7,13.1-4,19.2c-2.5,6.6-6.6,13-6.1,20c0.2,3.1,1.3,6.4,1.4,9.4c-2.9,0.5-5.7,1.1-8.5,1.8
	c-3.6,0.8-7.1,1.8-10.5,2.8c-9.2,3-18.2,6.7-26.9,11.1c-1.7,0.8-3.4,1.7-5.1,2.5l0,0c-0.7-0.1-1.4-0.2-2.1-0.3
	c-5-0.9-10.3-3.2-13.1-7.2c-0.6-0.9-1.2-1.9-1.5-3c-1.6-4.9,0.1-10.9-3.3-14.8l-0.2,0.1l-0.1,0.1c-1.9,1.7-3.9,3.2-6.1,4.4l0,0
	c-10.1,5.7-22,6.8-33,3.2c-2.1-0.7-4.2-1.7-6.2-2.8c-4.6-2.6-9-7-8.6-12.2c0.2-2.9,1.9-5.7,1.4-8.6c-0.3-2.1-1.7-3.8-2.7-5.6
	c-6.7-12,1.3-27.4-2.9-40.5c-0.1-0.3-0.2-0.6-0.3-0.9c-0.3-0.8-0.7-1.7-1-2.5c-0.9-1.9-1.8-3.8-2.6-5.8c-0.6-1.6-1.1-3.3-1.5-5.1
	c-0.9-5-1.3-10.1-1-15.2c0-13.4,2.4-27.2,5.8-40.1c0.6-2.3,1.3-5.5,2.2-9.1l0,0c0.9-3.7,2.1-7.4,3.5-10.9c2-4.6,4.7-8.3,8.4-9.1
	c5.6-1.3,14.2,1.5,19.8,2.1l22.5,2.7l44.9,5.4c7.8,0.9,15.9,2,22.3,6.4c0.4,0.3,0.8,0.6,1.2,0.9c1.7,1.3,3.2,2.9,4.5,4.6
	c0.5,0.6,0.9,1.2,1.3,1.8c1.5,2.2,2.7,4.6,3.7,7.1c5.6,13.4,5.7,28.3,5.7,42.8C419.7,576.8,419.8,592,418.2,607z"/>
<path class="st2" d="M332.1,653.3c-1.4-5.2-4.2-12.7-4.6-14.8c-1.4-6.9-2.4-13.8-3.1-20.8c-1.1-12.5-3.1-30,1.3-41.8
	c4.1,2.2,7.8,8.4,9.7,12.7c6.9,15.4-0.9,34.3,5.6,49.9c0.5,0.9,0.8,2,0.9,3c-0.1,1.3-0.6,2.6-1.4,3.7l-2.2,3.6L332.1,653.3z"/>
<path class="st1" d="M476.2,177.6c7.4-12,17.4-23.8,16.8-37.8c-0.2-5-1.9-9.9-3.1-14.8c-3.6-14.2-3.8-29-0.7-43.3
	c12.4-2,25,0.8,35.4,7.9c3.3,2.3,6.4,5.1,7.8,8.8c1.3,3.4,1.1,7.2,0.9,10.9c-0.5,8.4-1.3,17.4-6.5,24c-1.6,2.1-3.6,3.8-5.2,5.9
	c-2.3,3-3.6,6.7-4.9,10.2l-17,46.3c-8.6,23.3-17.9,47.7-36.8,63.8c-0.5,0.4-14-18.8-15.1-20.8c-4.5-7.9-2.5-11.2,2.9-17.9
	C461.5,207.7,467.3,191.9,476.2,177.6z"/>
<path class="st4" d="M281.3,571.8c-0.1,3.5-0.3,6.9-0.9,10.3c-0.2,1.3-0.4,2.5-0.6,3.8c-3.4,17.8-11.9,34.7-17.8,52.1
	c-7.8,22.9-11.3,42.8-14,65.5c-7.9,0-15.8-0.2-23.5-0.6h-0.2c-2.7-0.1-5.3-0.3-8-0.5c2.4-21.2-2-43.4,2.3-64.7
	c1.7-8.5,4.7-16.8,6.5-25.3c0.6-2.5,1-5,1.2-7.6c0.2-2.4,0.4-4.9,1.5-7.1c0.1-0.2,0.2-0.4,0.3-0.6c1-1.5,2.1-2.9,3.5-4
	c12.2-10.7,27.1-17.8,43.1-20.5C276.9,572.2,279.1,571.9,281.3,571.8z"/>
<path class="st2" d="M281.3,571.8c-0.1,3.5-0.3,6.9-0.9,10.3c-0.2,1.3-0.4,2.5-0.6,3.8c-3.4,17.8-11.9,34.7-17.8,52.1
	c-7.8,22.9-11.3,42.8-14,65.5c-7.9,0-15.8-0.2-23.5-0.6h-0.2c-2.7-0.1-5.3-0.3-8-0.5c2.4-21.2-2-43.4,2.3-64.7
	c1.7-8.5,4.7-16.8,6.5-25.3c0.6-2.5,1-5,1.2-7.6c0.2-2.4,0.4-4.9,1.5-7.1c0.1-0.2,0.2-0.4,0.3-0.6c1-1.5,2.1-2.9,3.5-4
	c12.2-10.7,27.1-17.8,43.1-20.5C276.9,572.2,279.1,571.9,281.3,571.8z"/>
<path class="st4" d="M230.6,617.3c-0.2,5.6-0.6,11.1-1.4,16.6c-2.7,22.5-3.2,46-5,68.8c-2.7-0.1-5.3-0.3-8-0.5
	c-12.2-0.8-24.3-2.1-36.2-3.9c0.9-5.1,1.8-10.3,2.8-15.4c1.1-6.3,2.3-12.7,1.9-19.1c-0.3-6-1.9-11.9-3.2-17.9
	c-2.8-12.7-4.3-26.4-8.8-38.4c-2.4-6.7-6.1-12.9-11.1-18c18.7-7.4,36.8-7.8,56.9-7c1.4-0.1,2.8,0.3,4.1,1c1,0.8,1.7,1.9,2.1,3.1
	c3,7.3,4.9,15,5.6,22.8C230.6,612.2,230.7,614.8,230.6,617.3z"/>
<circle class="st1" cx="381.6" cy="195.2" r="39"/>
<path class="st5" d="M389.7,286.3c5-8.5,9.4-19.2,19-21.5c5.4-1.4,11.1,0.5,16.4,2.3c1.5,0.4,2.9,1.2,4,2.3c0.8,1.2,1.2,2.7,1.2,4.1
	c1.7,17.6,1.6,35.4-0.2,53c-1.3,12.5-3.4,24.9-3.8,37.4c-0.5,17.4,2.3,34.7,1.4,52.1c-0.7,13.1-3.6,26.1-6.5,38.9l-12,53.8
	c-0.2,1.7-0.9,3.2-1.9,4.5c-1,0.9-2.2,1.6-3.5,2c-35.1,12.4-73.9,9.4-106.6-8.3c-4.3-2.4-8.7-5.1-11.5-9.2c-4-5.8-4.4-13.4-3.1-20.3
	s4.1-13.4,6-20.2c2.9-10.5,3.6-21.5,4.3-32.3c0.9-14.3,1.8-28.7,0.2-43c-1-9.8-3.2-19.5-4.9-29.3c-2.4-14.7-3.8-29.5-4.2-44.4
	c-0.2-8.9,0.2-18.8,6.3-25.2c3-3.1,7-5,11.1-6.5c6.8-2.5,14.5-4,21.4-1.7c6.9,2.3,12.5,9.5,10.8,16.6c-0.8,3.3-2.9,6.2-3.4,9.5
	c-0.7,4.4,1.7,8.9,5,11.9C353.2,329.2,380.7,301.8,389.7,286.3z"/>
<path class="st3" d="M391.1,246.5c5.5-2,11.4-2.4,17.1-1c3.6,0.9,7.5,2.4,10.8,0.8c1.2-0.6,2.2-1.5,3.4-2.1
	c3.3-1.5,7.6,0.3,10.5-1.8c1.8-1.3,2.4-3.8,3.1-6c3-10.5,9.2-19.8,17.6-26.7c-1,7.7-1.8,16.4,3.3,22.3c2.3,2.7,5.5,4.3,8.8,5.6
	c4.7,1.9,9.9,3.1,14.9,2.1s9.6-4.8,10.4-9.8c-0.2,7.5-7.3,12.8-9.3,20.1c-0.8,2.7-0.7,5.6-1.2,8.4c-1.4,7.1-6.4,12.8-10.9,18.5
	c-14.1,18.4-23.2,40.2-26.2,63.2c-0.2,2.7-0.8,5.4-1.7,8c-1,2-2.1,3.9-3.3,5.7c-7.3,12.4-5.1,28-2.6,42.1
	c3.9,22.1,7.8,43.8,14.1,65.4c1.1,3.7,2.3,7.5,5,10.2c-0.9,8.7-9.7,12.7-17.6,16.5c-7.8,3.7-15,8.6-21.4,14.5
	c-2.3,2.1-4.5,4.5-5.4,7.5c-0.8,2.8-0.2,5.9-1.2,8.6s-5,4.7-6.8,2.4c-2.2-8.2,1.6-16.8,1.4-25.4c-0.1-5.8-2-11.3-2.3-17.1
	c-0.3-6.5,1.7-12.9,3.7-19.1c5.7-17.2,12.5-34.3,14.5-52.3c2-18-1.7-37.7-14.5-50.5c-15.2-15.3-23.6-36.1-39.9-50.2
	c-2.6-2.2-5.5-5-5.1-8.4c0.3-1.5,1-2.9,1.9-4.1c5.6-7.9,13-14.3,19-21.9S392.2,256.1,391.1,246.5z"/>
<path class="st3" d="M337.7,262.6c-1,1-1.7,2.4-2.8,3.2c-1.4,0.8-2.9,1.3-4.5,1.4c-5.9,0.9-11.8,1.4-17.8,1.6c-5,0-10.2-0.4-15,0.9
	c-6.7,1.9-12.1,7.2-15.4,13.3s-5,13-6.2,19.9c-2.8,15.1-4.4,30.5-4.5,45.9c8.2-6.6,15.6-14.2,21.9-22.7c4.8-6.5,9.1-13.7,16-18.1
	c3.1-2,6.7-3.3,9.9-5.3c6.6-4.1,11.2-10.6,15.6-17c3.2-4.7,12.6-13.9,13.4-19.5C348.7,260.9,341.2,258.2,337.7,262.6z"/>
<path class="st3" d="M372.6,168.5c1.2,0.7,2.4,1.6,3.5,2.5c6.8,4.7,15.9,3.9,24.1,2.8c2.5-0.3,5.1-0.7,7.3-2
	c3.5-2.1,5.1-6.5,4.8-10.6c-0.3-4.1-2.4-7.8-4.9-11c-6.7-8.5-16.6-13.9-27.3-14.9c-2.8-0.4-5.6-0.1-8.2,0.9
	c-3.2,1.3-5.7,4.1-8.6,5.9c-8.8,5.4-22.3,3-28,11.6c-4.2,6.4-1.2,15-3.2,22.3c-1.5,5.5-5.7,10.4-4.9,16c0.5,3,2.3,5.6,3.8,8.3
	c3.4,6.2,5,13.2,4.6,20.2c3.8,2.7,9.2-1.5,10.3-6.1s-0.2-9.5,0.8-14.1c1.6-8.1,8.8-14.1,12-21.5
	C360.9,173.4,364.7,164.4,372.6,168.5z"/>
<path class="st4" d="M278,257.3c-0.3,1.8-0.5,3.8,0.5,5.4c2,3,6.6,1.9,10.2,2.4c5.6,0.7,9.8,6,10.8,11.6c1.1,5.6-0.2,11.3-1.6,16.7
	c-3.2,12.4-7,24.7-11.5,36.7c-11.9-1.4-24.5-6-30.8-16.2c-5.8-9.3-5.2-21.1-8.8-31.4c-2.6-7.2-7.2-13.5-11.7-19.7
	c7.3,0.9,12.6-7.5,13-14.8s-1.9-14.9-0.3-22.1c0.4-1.7,29.3,3.7,32.1,5.6C287.9,237.1,279.3,249.4,278,257.3z"/>
<path class="st2" d="M278,257.3c-0.3,1.8-0.5,3.8,0.5,5.4c2,3,6.6,1.9,10.2,2.4c5.6,0.7,9.8,6,10.8,11.6c1.1,5.6-0.2,11.3-1.6,16.7
	c-3.2,12.4-7,24.7-11.5,36.7c-11.9-1.4-24.5-6-30.8-16.2c-5.8-9.3-5.2-21.1-8.8-31.4c-2.6-7.2-7.2-13.5-11.7-19.7
	c7.3,0.9,12.6-7.5,13-14.8s-1.9-14.9-0.3-22.1c0.4-1.7,29.3,3.7,32.1,5.6C287.9,237.1,279.3,249.4,278,257.3z"/>
<circle class="st4" cx="271.6" cy="206.2" r="39"/>
<path class="st3" d="M259.6,251.7c1.4-2.2-1-5.3,0.1-7.7c0.7-1.4,2.3-2.1,3.6-3c1.6-1.3,2.9-3,3.8-4.9c6.1-11.7,7.9-25.1,5.2-38
	c-0.9-4.3-1.7-10.1,2.2-12c1.1-0.5,2.3-0.7,3.5-0.6c7.1,0.2,14,5,20.9,3.3c4.8-1.3,8.3-5.5,8.8-10.5c0.5-6.5-4.4-12-9.1-16.4
	c-8.6-7.9-21.6-9.6-33.3-9.8l-21.6-0.4c-6.9-0.1-14.7,0.1-19.5,5.1c-6.9,7.2-3.4,18.8-4.4,28.8c-0.9,7.9-4.8,15.2-11,20.1
	c-4.5,3.6-10.7,7-10.6,12.7c0,2,0.9,3.8,1.4,5.7c2.2,7.5,0.1,15.8-4.1,22.3s-10.4,11.6-16.9,16c-3.4,2.4-7,4.6-9.7,7.8
	c-3,3.7-4.8,8.2-5.1,12.9c-0.4,3.6,0.3,7.3,2.1,10.4c4.2,6.8,14.4,7.8,21.3,3.8s11.2-11.3,14-18.8c1.7-4.4,3.4-9.5,7.7-11.5
	c5.4-2.5,11.8,1.5,15.3,6.3s5.7,10.8,10.2,14.7c7.1,6.2,19.2,5.2,25.2-2.1c4.3-5.2,5.2-12.4,5-19.2
	C264.5,261.5,262.7,256.2,259.6,251.7z"/>
<path class="st6" d="M273.6,302.5c-4.5,1-9.1-1.1-12.4-4.3s-5.5-7.2-7.9-11.1c-5.9-9.9-12.6-19.2-20.1-27.9
	c-6.6-7.6-15.7-15.3-25.4-12.9c-3.3,0.9-6.3,2.6-8.9,4.8c-17.5,13.8-26.6,35.6-24.2,57.8c0.8,6.4,2.5,12.6,3.2,19
	c0.5,5.3,0.6,10.6,0.4,15.9c-0.3,16.1-0.8,33.2-9.5,46.8c-13.5,21-20.7,46.1-30.6,69c-5.3,12.4-8.5,25.6-11.7,38.7
	c-1.9,7.8-3.7,15.6-5.6,23.3l-12.1,50.9c-1.2,5.2-2.5,10.8-1.2,16c2,7.8,9.4,13.3,17.1,15.5s16,1.8,24.1,1.9
	c15.4,0.2,31,2.1,45.5,7.4c4.1,1.5,8.3,3.4,12.7,3.7s8.8-0.8,12.9-2.4c11.3-4.4,20.9-12,31.3-18.2c6.5-3.9,13.3-7.2,20.4-9.9
	c3.6-1.3,7.4-2.6,9.8-5.5c1.9-2.2,2.7-5,3.3-7.8c3.4-15.8,1.1-32.1,0-48.2s-10.7-33.1-2.8-47.1c1.6-2.8,3.5-5.5,4.3-8.7
	c1.1-4.1,0.2-8.5,1.1-12.7c0.7-3.1,2.3-5.8,3.4-8.7c1.9-5.2,2.2-10.8,2.2-16.3c0-12.1-1.3-24.2-3.8-36c-3.2-15,7.3-29.8,13.2-44
	c2.1-5.1,5.2-9.9,6.1-15.3c0.8-4.9-0.2-9.9-1-14.8c-1.1-7.6-1.6-15.3-1.4-23c0.2-6.9,0.9-13.9-0.7-20.6s-6.4-13.2-13.1-14.6
	c-1.5-0.5-3.2-0.2-4.5,0.7c-0.8,0.8-1.3,1.7-1.6,2.8c-2.2,6.7-1.8,14-3,21C281.9,294.7,280.5,301,273.6,302.5z"/>
<path class="st1" d="M179.2,345.4c0.4-2.8-0.9-6.5-3.7-6.4c-2.6,0.1-3.7,3.3-3.7,5.9s0.4,5.6-1.5,7.4c-1.6,1.6-4.3,1.6-6.2,2.9
	c-1.3,1-2.1,2.5-2.1,4.2c0,1.4,0.6,2.7,0.7,4.1s-0.9,3-2.3,2.9c-1.5,2.4-1.1,5.6,0.9,7.6c0.7,0.7,1.7,1.3,1.9,2.3
	c0.1,0.7,0,1.4-0.2,2c-0.4,2.8,1.5,5.8,4.2,6.1c-1.6,1.1-1.2,3.7,0.2,5s3.5,1.5,5.4,1.5c4.3,0,8.6-0.9,12.6-2.6
	c1.4-0.5,2.6-1.3,3.5-2.4c0.9-1.2,0.7-2.8-0.3-3.9c1.9,0.3,4.3,0.5,5.5-1c1.8-2.1-0.1-5.2-2-7.2c2.2-0.3,3.7-2.4,3.4-4.5
	c-0.2-1-0.7-1.9-1.5-2.6c-0.6-0.5-1.5-0.9-1.6-1.7s0.6-1.3,0.9-2c0.6-1.6-0.8-3.2-2.2-4.1c-3.3-2.2-8.3-2.2-11.2-4.4
	S178.8,348.4,179.2,345.4z"/>
<path class="st3" d="M385.5,193.7c-2.4,0.2-4.9,0.3-7.3,0.2c-0.9-0.1-1.6,0.5-1.8,1.4l-4.6,34.9c-0.4,2.5-1.4,4.9-3,6.9
	c-2.7,3.2-3.9,7.4-3.4,11.5v59.2c0,0-0.3,7.9,5.8,7.9c7.3,0.9,14.6,0.9,21.9,0c0,0,4.9-0.9,4.9-8.2v-58.3c0.8-4.1-0.3-8.4-3-11.6
	c-1.6-2-2.6-4.4-2.9-6.9l-4.8-35.6C387.1,194.2,386.3,193.6,385.5,193.7z"/>
<path class="st2" d="M385.5,193.7c-2.4,0.2-4.9,0.3-7.3,0.2c-0.9-0.1-1.6,0.5-1.8,1.4l-4.6,34.9c-0.4,2.5-1.4,4.9-3,6.9
	c-2.7,3.2-3.9,7.4-3.4,11.5v59.2c0,0-0.3,7.9,5.8,7.9c7.3,0.9,14.6,0.9,21.9,0c0,0,4.9-0.9,4.9-8.2v-58.3c0.8-4.1-0.3-8.4-3-11.6
	c-1.6-2-2.6-4.4-2.9-6.9l-4.8-35.6C387.1,194.2,386.3,193.6,385.5,193.7z"/>
<path class="st7" d="M378.2,249.6h7.4c6.1,0,11,4.9,11,11.1v27.7c0,6.1-4.9,11-11,11h-7.4c-6.1,0-11-4.9-11-11v-27.7
	C367.1,254.6,372.1,249.6,378.2,249.6z"/>
<path class="st3" d="M484.6,43c-2.1,1.2-4.4,2.2-6.7,3c-0.8,0.2-1.3,1.1-1.1,1.9l9.1,34c0.7,2.5,0.6,5.1-0.1,7.5
	c-1.2,4-0.8,8.3,1.3,11.9L510,156c0,0,2.8,7.4,8.4,5.1c7.1-2,13.8-4.8,20.2-8.5c0,0,4.1-2.7,1.3-9.4l-22.5-53.8
	c-0.9-4.1-3.5-7.6-7.2-9.6c-2.2-1.2-4-3-5.3-5.2l-18.2-31C486.3,42.9,485.3,42.6,484.6,43z"/>
<path class="st7" d="M499.4,97.4l6.8-2.8c5.6-2.4,12.1,0.3,14.5,5.9l10.7,25.6c2.4,5.6-0.3,12.1-5.9,14.5l-6.8,2.8
	c-5.6,2.4-12.1-0.3-14.5-5.9l-10.7-25.6C491.1,106.2,493.7,99.8,499.4,97.4z"/>
<path class="st4" d="M203.9,252.7c-10.8,4.4-15,18.2-12.5,29.5S201.6,303,209,312l20.7,25.3c5.7,7,12,14.4,20.7,16.8
	c12.8,3.6,25.6-4.6,36.6-11.9c33-22,68.2-40.3,105.2-54.8c3.6-1.4,7.3-2.8,10.3-5.3c6.2-5.2,7.9-14.7,4.5-22
	c-3.4-7.3-11.4-12-19.5-12.1s-15.9,4.2-20.7,10.6c-2.3,3.1-4,6.6-6.2,9.7c-5.6,7.8-14.4,12.7-23,17.1c-20.8,10.6-42.1,19.9-64,28
	c-4,1.5-8.5,2.9-12.3,0.9c-2.3-1.2-3.9-3.4-5.3-5.6c-6.4-10-11.5-20.9-15.1-32.2c-2.7-8.5-4.9-17.8-11.5-23.8
	c-9.3-8.6-26.1-6.5-33.1,4c0,0-8.2,12-3.2,17S203.9,252.7,203.9,252.7z"/>
<path class="st4" d="M764.8,211.3c1.5,3.9,1.5,8.1,1.3,12.3c-0.3,5.1-1.5,11-6.2,12.9c-3.1,1.2-6.8,0.3-9.6,2.2
	c-3.3,2.2-3.1,7.1-2.6,11c1.4,10.8,3,22.1,8.9,31.2c3.2,4.9,7.5,9,11.8,12.9c8.7,7.8,18.2,15.5,29.6,18.1c1.9,0.5,3.8,0.6,5.7,0.2
	c1.9-0.6,3.6-1.6,4.9-3c6.6-6.1,10-14.7,14.4-22.5c3.1-5.6,6.8-11,8.6-17.2c2.9-11-0.6-22.7-9.2-30.3c-2-1.7-4.1-3.1-6-4.8
	c-4.9-4.5-7.8-10.9-9-17.5s-1-13.3-0.4-20c-10-0.8-19.9,0.4-29.7,2.4c-4.3,0.9-10.5,1.3-14.4,3.3C758.4,205,763.6,208,764.8,211.3z"
	/>
<path class="st2" d="M764.8,211.3c1.5,3.9,1.5,8.1,1.3,12.3c-0.3,5.1-1.5,11-6.2,12.9c-3.1,1.2-6.8,0.3-9.6,2.2
	c-3.3,2.2-3.1,7.1-2.6,11c1.4,10.8,3,22.1,8.9,31.2c3.2,4.9,7.5,9,11.8,12.9c8.7,7.8,18.2,15.5,29.6,18.1c1.9,0.5,3.8,0.6,5.7,0.2
	c1.9-0.6,3.6-1.6,4.9-3c6.6-6.1,10-14.7,14.4-22.5c3.1-5.6,6.8-11,8.6-17.2c2.9-11-0.6-22.7-9.2-30.3c-2-1.7-4.1-3.1-6-4.8
	c-4.9-4.5-7.8-10.9-9-17.5s-1-13.3-0.4-20c-10-0.8-19.9,0.4-29.7,2.4c-4.3,0.9-10.5,1.3-14.4,3.3C758.4,205,763.6,208,764.8,211.3z"
	/>
<path class="st4" d="M709,240.7c-16.2-5.6-24-27.3-41-29.8c-2.7-0.4-5.4-0.2-8.1-0.9c-9.8-2.3-14-13.6-16.8-23.3
	c-9.5-32.2-22-63.6-39.7-92.2c-7.5-12-19.3-21.9-24.7-35c-1.2-3-1.9-6.4-4.1-8.8s-7-2.7-8.2,0.3c-0.3,1.1-0.4,2.2-0.2,3.3l1.2,12.4
	L547,65.1c-1.9-0.3-3.8-0.2-5.6,0.4c-2,1-3.5,2.6-4.4,4.6c-6.9,12.9,0.5,29.9,12.6,38.1c14.2,9.6,34.4,11,43.8,25.2
	c5.6,8.5,5.7,19.4,9.4,28.9c1.8,4.5,4.3,8.7,6.4,13.1c3.9,8.4,5.9,17.5,8.9,26.2c4.3,12.5,10.8,24.1,17.2,35.6
	c4.9,8.9,10,18,17.6,24.8c5,4.5,10.9,7.8,16.8,11c14.5,7.9,31.5,15.5,46.8,9.4C717.4,268.8,714,253.5,709,240.7z"/>
<path class="st4" d="M758.3,671.2c-1.2,13-9.2,24.9-11,37.4c-12.2-1.9-24.2-4.4-35.8-7.2c-1.4-0.3-2.8-0.7-4.3-1
	c6.6-18,0.8-38.2,2.6-57.3c0.2-1.8,0.4-3.7,0.7-5.5c15.1-5.1,28.7-12,44.5-10c0.3,3.2,0.6,6.4,0.9,9.6c0.6,6.4,1.3,12.8,1.9,19.2
	C758.4,661.3,758.6,666.3,758.3,671.2z"/>
<path class="st4" d="M862.5,703.9c-5.9,1.8-12,3.4-18.3,4.7c-1.1,0.2-2.1,0.4-3.2,0.6c-6.5,1.2-13.1,2.1-19.7,2.7
	c-0.7-13.9-10-26.7-11.4-41c-0.3-3.5-0.2-7.1,0.1-10.7c0.1-1.4,0.3-2.8,0.4-4.2l2.8-28.8c2.2-0.3,4.5-0.4,6.8-0.3
	c13,0.3,24.8,5.9,37.7,10.3c1,6.1,1.3,12.2,1,18.4c-0.5,15.6-3,31.4,2.8,45.8C861.8,702.2,862.2,703,862.5,703.9z"/>
<path class="st6" d="M693.7,484.5c1.8,13.6-5.2,26.7-8.2,40.1c-2,8.9-2.3,18-2.5,27.1l-1.6,54.5c-0.2,5.5-0.3,11,1.4,16.2
	c3.3,10.5,13.6,17.6,24.3,20.1s21.9,1.2,32.8-0.2c5.3-0.7,10.9-1.5,15.4-4.6c6.1-4.2,8.8-11.8,11-18.9l6.5-19.9
	c7.5,16.8,4.3,35.2,8.8,53.1c0.3,1.7,1,3.2,2,4.5c1.9,2.1,5,2.4,7.8,2.6c19.6,1.4,39.5,2.8,58.8-1c5.3-1,10.8-2.6,14.5-6.6
	c4.3-4.6,5-11.4,5-17.7c-0.3-21.6-8.1-42.5-9.8-64c-0.8-9.2-0.4-18.5-0.7-27.8c-0.3-7-0.9-13.9-2-20.8c-0.3-3.2-1.2-6.2-2.6-9.1
	c-3-5.6-9.2-8.6-15.1-11C793.6,482.5,743.2,482.7,693.7,484.5z"/>
<circle class="st4" cx="778.6" cy="173.2" r="43"/>
<path class="st5" d="M816.1,248.9c-3.2,7-8.2,14-15.7,15.8c-6.9,1.6-14.2-1.7-19.2-6.6s-8.4-11.3-11.9-17.5c-2.6-4.5-5.4-9-9.7-11.8
	c-5.9-3.8-13.6-3.7-20.5-2.6s-13.9,3.1-21,2.7c-8.8-0.6-17.8-5-26.2-2.1c2.7,12.1,1.7,25.4,1.4,37.7c0.1,1.9-0.2,3.8-0.8,5.6
	c-0.7,1.7-1.7,3.3-2.9,4.7l-8,10.3c8.6,6.4,16,14.8,19,25.1c1.7,5.9,1.2,12.1,1.1,18.2c-0.2,17.9,3.7,35.8,2.5,53.6
	c-1.4,20.9-9.8,40.7-14.1,61.2c-3.7,17.6-4.4,35.7-2.1,53.6c44.8,15.5,91,23.5,138.4,26c8.4,0.5,17.4,0.5,24.3-4.3
	c5.7-4,8.9-10.8,10-17.8s0.3-13.9-0.4-20.9c-2.1-18.8-4.1-37.5-6.2-56.3c-1.2-10.7-2.3-21.4-1.6-32.1c0.6-8,2.2-15.9,3.8-23.7
	l10-48.1c1.4-6.8,2.9-13.7,5.7-20.1c2.3-5.2,5.5-10,8.1-15.1c3.1-6.1,5.2-12.6,6.2-19.3c0.4-1.9,0.4-4-0.1-5.9
	c-1.1-3.3-4.3-5.2-7.4-6.9c-18.6-9.8-38.5-16.8-59.2-20.8C818.3,237.9,818.6,243.4,816.1,248.9z"/>
<path class="st3" d="M811.9,220.1c5-9.6,14.3-16.3,19.8-25.7c6.1-10.8,6.5-23.8,1.2-35c-1.9-3.9-4.5-7.5-6-11.6
	c-1.7-4.6-1.8-9.8-3.8-14.3c-2.7-6.2-8.4-10.7-14.6-13.3s-13-3.5-19.7-4.4l-22.7-3.1c-3.3-0.4-6.7-0.9-9.9,0s-6.2,3.5-6.4,6.8
	c-0.3,3.9,3.1,7.6,2.3,11.4c-0.3,1.4-1.1,2.7-0.6,4.1c0.4,0.9,1.1,1.6,2,2c5.4,3,11.8,3.3,17.7,5.2s11.7,6.9,11.1,13
	c-0.3,3.3-2.4,6.7-1,9.7c1.4,2.7,5,3.2,7.9,4.1c9.3,2.7,15.9,12.9,14.5,22.5c-0.4,3-1.5,5.9-1.7,8.9c-0.7,10.5,0.9,13.5,9.5,19.7
	L811.9,220.1z"/>
<path class="st1" d="M870.3,265.7c0,2-0.3,4-1.1,5.8c-3.1,6.6-12.7,6.2-19,10c-7.9,4.7-9.6,15.2-10.3,24.3
	c-0.8,10.4-1.4,20.9,0.7,31s7.2,20,15.7,26c10.4,7.2,24.5,7.5,36.3,3.1s21.7-12.9,30.3-22.2c8.1-8.8,15.4-18.6,19.8-29.8
	c0.8-2,1.5-4.1,0.8-6.1c-0.9-3-4.2-4.4-6.9-6c-6.2-3.8-10.3-10.3-12.5-17.2s-2.5-14.3-2.6-21.5c-0.1-7.5-0.1-15.8-4.9-21.6
	s-13.1-7.4-20.7-7.4c-6.2,0-23.4,0.6-27.6,6C865,244.7,870.6,259.3,870.3,265.7z"/>
<path class="st2" d="M870.3,265.7c0,2-0.3,4-1.1,5.8c-3.1,6.6-12.7,6.2-19,10c-7.9,4.7-9.6,15.2-10.3,24.3
	c-0.8,10.4-1.4,20.9,0.7,31s7.2,20,15.7,26c10.4,7.2,24.5,7.5,36.3,3.1s21.7-12.9,30.3-22.2c8.1-8.8,15.4-18.6,19.8-29.8
	c0.8-2,1.5-4.1,0.8-6.1c-0.9-3-4.2-4.4-6.9-6c-6.2-3.8-10.3-10.3-12.5-17.2s-2.5-14.3-2.6-21.5c-0.1-7.5-0.1-15.8-4.9-21.6
	s-13.1-7.4-20.7-7.4c-6.2,0-23.4,0.6-27.6,6C865,244.7,870.6,259.3,870.3,265.7z"/>
<path class="st1" d="M817,533.9c0.3,1.5,1,2.9,2.1,4.1c1,0.8,2.1,1.3,3.4,1.6c32.8,9.6,67.9,5.8,101.9,1.9
	c-4.7-14.2-9.3-28.5-10.6-43.3c-1.1-12.2,0.1-25-4.2-36.5c-1.3-3.4-75.9,12.2-83.2,13.5c-3.8,0.7-8.1,0.4-10.8,3.4
	c-3.2,3.6-3.5,12.2-3.8,16.8C810.7,508.3,813.4,521.4,817,533.9z"/>
<path class="st1" d="M891.7,692.6c-6,2.8-12.2,5.4-18.6,7.7c-3.5,1.3-7,2.4-10.6,3.5c-5.9,1.8-12,3.4-18.3,4.7
	c-3.6-9.2-7.2-18.4-10.9-27.5c-2.7-6.8-5.3-13.5-7.6-20.5c-1.6-4.7-2.8-9.5-3.8-14.4c-3.3-16.5-2.4-33.6,2.5-49.8
	c13.9,2.6,27.4,4.3,41.1,6.3c7.3,1,14.6,2.2,22,3.6c0.6,4.8,1.1,9.6,1.6,14.5c0.7,7.4,1.3,14.9,1.8,22.3
	C891.8,659.5,892.1,676.1,891.7,692.6z"/>
<path class="st2" d="M891.7,692.6c-6,2.8-12.2,5.4-18.6,7.7c-3.5,1.3-7,2.4-10.6,3.5c-5.9,1.8-12,3.4-18.3,4.7
	c-3.6-9.2-7.2-18.4-10.9-27.5c-2.7-6.8-5.3-13.5-7.6-20.5c-1.6-4.7-2.8-9.5-3.8-14.4c-3.3-16.5-2.4-33.6,2.5-49.8
	c13.9,2.6,27.4,4.3,41.1,6.3c7.3,1,14.6,2.2,22,3.6c0.6,4.8,1.1,9.6,1.6,14.5c0.7,7.4,1.3,14.9,1.8,22.3
	C891.8,659.5,892.1,676.1,891.7,692.6z"/>
<path class="st1" d="M968.6,649.3c0.1,5.8-1.6,11.6-3.1,17.3c-0.1,0.4-0.2,0.8-0.3,1.2c-3.6-1.1-6.7-3.5-8.8-6.6
	c-1.1-1.7-1.9-3.6-2.4-5.5c-4.5,3.1-9.1,6.1-13.7,9.2c-15.1,9.9-31,19.7-48.6,27.9c-6,2.8-12.2,5.4-18.6,7.7
	c-1.3-4.7-2.6-9.4-3.8-14.1c-1.3-4.9-2.3-9.8-3.1-14.8c-1.5-11.3-0.3-22.8,3.3-33.7l0,0l0.5-1.3c1.7-4.8,3.9-9.4,6.5-13.8
	c2.5-4,7.4-3.3,12.5-2c2.3,0.6,4.6,1.3,6.7,1.7c13.1,2.7,26.6-0.1,40,0.7c6.4,0.3,12.6,1.9,18.3,4.7c6.4,3.2,11.6,8.2,13.6,15
	c0.3,1,0.5,2,0.7,3C968.5,646.9,968.6,648.1,968.6,649.3z"/>
<path class="st1" d="M728.1,188.8c-20.7-20-44.1-36.9-68.1-52.8c-6.2-3.9-12.3-8.2-18-12.8c-6-5-11.2-10.9-17.6-15.4
	s-14.2-7.6-21.9-6.1s-14.4,8.8-13.3,16.5c1,6.7,7.1,11.4,12.7,15.2c10.6,7.3,21.2,14.7,32.8,20.4c4,1.8,7.9,3.9,11.6,6.2
	c7.2,4.8,12.4,12,17.8,18.7c20.5,25.5,45.6,46.8,74,63c0.3,0.2,12.2-25.3,11.7-28.6C748.6,205.4,733.5,194,728.1,188.8z"/>
<path class="st3" d="M904.7,511.9c-15.9,1-31.2,6.4-46.8,9.8s-32.5,4.8-47-2l8.8,60.1c0.5,3.3,1,6.8,0.3,10
	c-0.7,3.1-2.4,6.1-2.3,9.3c0.2,5.1,5,8.7,9.5,11c13,6.9,27.7,10.3,42.4,9.8c-1.1,4.4-2.5,8.8-3.5,13.2c7.3,7.9,19.4,8.4,29.9,10.9
	c8,1.9,15.5,5.2,23.3,7.5c9.5,2.8,19.3,4.2,29.2,4.1c6.7-0.1,13.7-1,18.9-5.2c6.4-5.1,8.3-13.8,9.7-21.9c0.8-4.5,1.5-9.1,1-13.6
	c-0.5-5.2-2.5-10.2-4.5-15l-13.7-33.3c-2.5-6-5-12.1-8-17.9C942,530,925.8,510.6,904.7,511.9z"/>
<path class="st7" d="M916.9,304.3c2.4-6.4,8.9-10.3,15.7-9.6c4,0.6,7.6,2.8,11,4.9l19.1,11.9c3.2,1.9,6.2,4,9.1,6.3
	c13.2,10.9,18.2,28.9,19.7,45.9c1.5,17,0,34.4,3.4,51.2c-8.1,6.7-17,12.3-25.1,19c-4.2,3.5-8.5,7-11.7,11.5c-2.5,3.5-4.3,7.6-7,11
	c-4.3,5.4-10.6,8.9-17.5,9.7c4.4,2.5,6.8,7.5,8,12.4s1.5,10,2.8,14.9c1.8,6.7,5.5,12.8,6.8,19.6c0.9,4.7,0.5,9.5,0.8,14.3
	c1.6,24.6,20.9,46.2,19.6,70.8c-9.1-3.3-17.8-7.9-25.7-13.5c-3.6-2.5-7-5.3-10.4-8.1l-25.5-20.7c-12.4-10-24.9-20.2-34.8-32.8
	c-6.2-7.9-11.2-16.6-17.4-24.5s-13.8-15-23.3-18.3c-1.4,2.1-3.9,3.5-5.2,5.6c-0.2,0.3-0.4,0.7-0.6,1.1c-0.2,0.9-0.1,1.9,0.3,2.8
	c1.1,4,1.8,8.2,2,12.4l0.6,7.5c0.2,2,0.2,4,0,6c-1,6.4-6.9,11.4-13.3,12.4c-0.9,0.2-1.9,0.2-2.8-0.1c-1.8-0.6-2.8-2.5-3.3-4.3
	c-2.5-8.5,1.3-17.5,1.7-26.4c0-2.3,0-4.5-0.2-6.8l-0.6-8.9c-5.8-1.2-9.2-7.5-10.7-13.2c-4.2-15.5-8.3-31.5-5.9-47.3
	c0.6-4.2,1.8-8.5,1-12.8c-1-5.7-5.1-10.3-7.2-15.6c-7-17.4,7.9-36.3,6.5-55c-0.6-7.9-5.6-14.7-8.6-22c-1.6-4.2-3.6-8.3-6-12.1
	c-3.1-4.4-7.2-7.9-11.2-11.4c-12.4-10.9-24.1-22.4-35.2-34.7c-5.7-0.6-11-3-15.2-6.9c-2.6-2.5-4.8-5.8-4.9-9.4s2.6-7.4,6.2-7.6
	c2.1-0.1,4.1,0.9,6.2,1.4c6.5,1.4,13-3.4,15.9-9.3s2.9-12.9,2.8-19.5c6.4-1.1,13,1.2,17.3,6.1c4.5,4.9,7.4,10.9,10.9,16.5
	c1.4,2.5,3.3,4.7,5.4,6.6c4.8,3.8,11.7,4.5,15.9,9c2.1,2.3,3.3,5.3,5.3,7.7c5.5,6.9,15.5,7.7,23,12.2s12.7,12.8,21,15.5
	c3,1,6.3,1.1,9.2,2.2c6.9,2.5,11,9.8,12,17.1s-0.7,14.6-2.3,21.7l-3.8,16.7c-0.8,3.7-1.5,8.1,1.2,10.8c1.3,1.1,2.8,1.8,4.4,2.2
	c7,2.3,14.8,4.5,21.4,1.3c3.1-1.5,5.5-4.1,7.8-6.8C905.4,333.5,911.9,318.4,916.9,304.3z"/>
<path class="st1" d="M995.8,644.3c-1.4,9.2-6.4,18.2-14.7,22.3c-4.9,2.4-10.7,2.8-15.9,1.1c-3.6-1.1-6.7-3.5-8.8-6.6
	c-1.1-1.7-1.9-3.6-2.4-5.5c0-0.1,0-0.2-0.1-0.3c-0.8-3.5-1.1-7.2-0.9-10.8c0-5.6,0.3-11.2,1-16.8c0.6-4.7,1.5-9.3,2.8-13.9
	c1.9-6.5,4.5-12.7,7-19c1.3-3.3,2.5-6.6,3.5-10l0,0c0.6-2,1.1-4.1,1.5-6.1l0.2-0.8c0.1-0.4,0.2-0.8,0.2-1.3c1-5.7,1.3-11.6,3.9-16.8
	c6-12.1,17.7-9,19.5,2.2c0.1,0.9,0.2,1.7,0.2,2.6c0.3,14.1-5.3,27.9-2.8,42.1c0.7,3.5,1.6,6.9,2.7,10.2c0.9,3.1,1.7,6.2,2.3,9.4
	C996.3,632.3,996.6,638.4,995.8,644.3z"/>
<path class="st7" d="M1001.3,487.4c0.3,5.8,0,11.6,1.2,17.3c2.7,13.4,13,25.3,11.9,38.9c-0.3,3.3-1.5,6.9-4.4,8.5s-7.7,1.5-8.7,4.8
	c-0.3,0.9-0.1,1.9-0.4,2.8c-0.6,1.9-3,2.8-5,2.7s-4-0.7-6.1-0.5c-7.2,0.6-9.9,10.3-16.4,13.6c-4.3,2.2-10,1-13.6-2.3
	s-5.2-8.5-4.9-13.4c0.2-3.7,1.4-7.2,2-10.9c1.1-6.5,0.5-13.1,0-19.7c-0.9-9.6-1.8-19.3-4.9-28.5c-1.5-4.3-3.5-8.4-4.8-12.8
	c-1.8-6.2-2.3-12.7-2.5-19.1c-0.4-13.5,0.5-28,8.6-38.9c6.1-8.2,14.8-14.8,21.6-22.3c4.3-4.7,5.5-6.2,10.3-2.2
	c3.9,3.3,8,7.8,8.4,12.3c1.2,11.4,0,22.7,2.1,34.3S1000.8,475.5,1001.3,487.4z"/>
<circle class="st1" cx="897.6" cy="216.2" r="51"/>
<path class="st3" d="M944.3,313.8c1.1-1.6,2.5-3.3,4.3-3.6c1.4-0.1,2.9,0.2,4.1,0.9l13.4,5.6c3.6-6,5.8-12.8,6.2-19.8
	c0.3-4.3-0.1-8.6,0.8-12.9c1.2-6.3,4.9-11.9,5.8-18.2c0.7-5.1-0.5-10.2-1.3-15.3c-2.3-15.7,0.2-31.8-1.1-47.6s-7.7-32.8-21.8-40.1
	c-4-2-8.3-3.2-12.5-4.8c-9.3-3.5-17.6-9.2-26.7-13s-19.9-5.6-28.8-1.2s-14,16.7-8.3,24.8c1.9,2.6,4.7,4.5,7.3,6.4
	c5.4,3.9,10.9,8.6,12.2,15.2c2.2,11.8-10,21-13.5,32.5c-1.3,4.5-1.4,9.2-0.3,13.8c1.5,6.8,5.1,13.3,5,20.2
	c-0.1,7.6-4.7,14.6-5.5,22.2c-0.3,2.8-0.1,5.6-0.5,8.4c-0.6,3.7-1.7,7.2-3.2,10.6c-8,20-16.1,40.2-28,58.2
	c12.7,0.2,25.3-2.7,36.6-8.6c-1.6,7.7-4.7,15-9.2,21.5c10.2-1.2,20-4.6,28.7-10c-2.1,7.6-5.2,14.8-9.1,21.6c0.3-0.6,6.6-2,7.8-2.7
	c2.4-1.4,4.3-3.4,5.5-5.9c3.4-6.1,5.5-13.4,8.7-19.7C927.7,339.1,935.5,326.1,944.3,313.8z"/>
<path class="st3" d="M557.5,7.7c-2.4,0.2-4.9,0.3-7.3,0.2c-0.9-0.1-1.6,0.5-1.8,1.4l-4.7,34.9c-0.4,2.5-1.4,4.9-3,6.9
	c-2.7,3.2-3.9,7.4-3.4,11.5v59.2c0,0-0.3,7.9,5.8,7.9c7.3,0.9,14.6,0.9,21.9,0c0,0,4.9-0.9,4.9-8.2V63.2c0.8-4.1-0.3-8.4-3-11.6
	c-1.6-2-2.6-4.4-2.9-6.9l-4.8-35.6C559.1,8.2,558.3,7.6,557.5,7.7z"/>
<path class="st7" d="M550.2,63.6h7.4c6.1,0,11,4.9,11,11.1v27.7c0,6.1-4.9,11.1-11,11.1h-7.4c-6.1,0-11-4.9-11-11.1V74.7
	C539.1,68.6,544.1,63.6,550.2,63.6z"/>
<path class="st3" d="M626.5,58.7c-2.4,0.2-4.9,0.3-7.3,0.2c-0.9-0.1-1.6,0.5-1.8,1.4l-4.7,34.9c-0.4,2.5-1.4,4.9-3,6.9
	c-2.7,3.2-3.9,7.4-3.4,11.5v59.2c0,0-0.3,7.9,5.8,7.9c7.3,0.9,14.6,0.9,21.9,0c0,0,4.9-0.9,4.9-8.2v-58.3c0.8-4.1-0.3-8.4-3-11.6
	c-1.6-2-2.6-4.4-2.9-6.9l-4.8-35.6C628.1,59.2,627.3,58.6,626.5,58.7z"/>
<path class="st7" d="M619.2,114.6h7.4c6.1,0,11,4.9,11,11.1v27.7c0,6.1-4.9,11.1-11,11.1h-7.4c-6.1,0-11-4.9-11-11.1v-27.7
	C608.1,119.6,613.1,114.6,619.2,114.6z"/>
<g class="st8">
	<path class="st3" d="M549,656.2c0,1.1-0.2,2.2-0.4,3.2c-7-1.1-14-2.1-21-3c0-0.3,0-0.6,0-0.9c0.1-3,0.9-5.9,2.5-8.5
		c2.1-3.3,5.2-5.3,8.6-5.2s6.4,2.3,8.3,5.7C548.4,650.3,549.1,653.2,549,656.2z"/>
	
		<ellipse transform="matrix(3.158516e-02 -0.9995 0.9995 3.158516e-02 -116.6992 1157.1862)" class="st3" cx="538.8" cy="638.8" rx="14" ry="10.7"/>
	
		<ellipse transform="matrix(3.158516e-02 -0.9995 0.9995 3.158516e-02 -99.0589 1141.1517)" class="st3" cx="539.4" cy="621.7" rx="14" ry="10.7"/>
	
		<ellipse transform="matrix(3.158516e-02 -0.9995 0.9995 3.158516e-02 -81.4284 1125.1075)" class="st3" cx="539.9" cy="604.6" rx="14" ry="10.7"/>
	
		<ellipse transform="matrix(3.158516e-02 -0.9995 0.9995 3.158516e-02 -63.7881 1109.073)" class="st3" cx="540.4" cy="587.5" rx="14" ry="10.7"/>
	<path class="st9" d="M504,469c-1.4-1.9-2.7-3.9-3.8-6l28.3-3.7l-30.4-0.7c-5.5-13-5.4-27.7,0.3-40.6l40.1,22.5l-36.8-28.8
		c14.9-24.1,46.5-31.5,70.6-16.6c24.1,14.9,31.5,46.5,16.6,70.6c-1.3,2.1-2.8,4.2-4.4,6.1c2.2,3,4.1,6.2,5.5,9.5l-37.1,17.8
		l39.3-11.8c5,16.6,1.3,34.6-9.8,47.9c16.8,22.8,11.9,54.9-10.9,71.7s-54.9,11.9-71.7-10.9c-14-19.1-13.2-45.3,2-63.4
		C488,513.3,488.8,487.1,504,469L504,469z"/>
	<path class="st2" d="M594.6,503.6c-0.4,11.5-4.6,22.5-12,31.3c16.8,22.8,11.9,54.9-10.9,71.7s-54.9,11.9-71.7-10.9
		c-14-19.1-13.2-45.3,2-63.4C495.5,523.4,594.8,497.8,594.6,503.6z"/>
</g>
</svg>
