<?xml version="1.0" encoding="utf-8"?>
<!-- Generator: Adobe Illustrator 25.0.0, SVG Export Plug-In . SVG Version: 6.00 Build 0)  -->
<svg version="1.1" id="fd0d1b37-5b90-41a2-b2fb-759c1923dc4a"
	 xmlns="http://www.w3.org/2000/svg" xmlns:xlink="http://www.w3.org/1999/xlink" x="0px" y="0px" viewBox="0 0 998.3 772.8"
	 style="enable-background:new 0 0 998.3 772.8;" xml:space="preserve">
<style type="text/css">
	.st0{fill:#3F3D56;}
	.st1{fill:#6F35A5;}
	.st2{fill:#2F2E41;}
	.st3{fill:#FFB9B9;}
	.st4{fill:#D0CDE1;}
	.st5{fill:#9F616A;}
	.st6{fill:#575A88;}
	.st7{opacity:0.1;enable-background:new    ;}
	.st8{fill:#F2F2F2;}
	.st9{opacity:0.1;fill:#FFFFFF;enable-background:new    ;}
	.st10{fill:#FFFFFF;}
</style>
<path class="st0" d="M443.4,175.7c-41.1,0-81.9-6.8-120.7-20.3c-52.1-18-94.7-42.8-126.7-73.8C135.4,23.1,85.7,14.3,54.6,17.2
	C21.1,20.3,1.5,37.5,1.3,37.7L0,36.2c0.2-0.2,20.1-17.8,54.3-21c20-1.9,41,1.4,62.3,9.8c26.6,10.5,53.7,29.1,80.7,55.2
	c31.8,30.8,74.2,55.4,126,73.3c95,32.9,202.2,24.9,293.9-21.8c30.4-15.5,60.4-26,89.2-31.4c36.4-6.8,70.8-5.2,102.5,4.7
	c69.5,21.6,117.1,20.5,144.7,15.7c29.8-5.1,43.3-15.5,43.4-15.6l1.2,1.6c-0.6,0.4-14,10.7-44.3,15.9c-27.8,4.8-75.7,6-145.6-15.8
	c-70.8-22-142.5,2.3-190.2,26.6c-45.3,23.2-94.8,37.2-145.6,41.1C462.8,175.3,453.1,175.7,443.4,175.7z"/>
<circle class="st1" cx="439.4" cy="180.3" r="20.3"/>
<circle class="st1" cx="753.4" cy="99.3" r="20.3"/>
<circle class="st1" cx="100.4" cy="20.3" r="20.3"/>
<path class="st0" d="M584.7,484.5v195.8h30.8V501.7h123.2v178.6h30.8V288.7h-30.8c-10.2,0-25.9,53.1-25.9,106.5
	c0,40.2,4.7,74.7,11.4,89.3H584.7z M738.7,484.5h-0.3c0.1-0.2,0.2-0.5,0.3-0.7V484.5z"/>
<path class="st2" d="M698.8,191.7L698.8,191.7c-25.3,0-45.8,22.7-45.8,50.8v35.6h11l6.3-13.2l-1.6,13.2h70.4l5.8-12l-1.4,12h7.9v-28
	C751.5,217.9,727.9,191.7,698.8,191.7z"/>
<path class="st2" d="M646.4,424.6l-28.1,11.9l-97.6,79.4c-3.6,4.4-5.8,9.8-6.3,15.5c-0.7,9.1-30.2,56.9-19.7,63.2
	s48.5,25.3,50.6,12.6s13.3-66.7,13.3-66.7l94.1-84.3L646.4,424.6z"/>
<path class="st2" d="M536.1,596.7l-11.9,35.1c0,0,12.6,13.3,6.3,24.6V695h-9.8l-2.8-20.4c0,0-11.2,20.1-16.9,20.4
	c-11.9,0.5-35.3,4.8-36-1.6s17.8-12.5,17.8-12.5l19.7-54.1l8.4-33L536.1,596.7z"/>
<path class="st2" d="M719.5,415.4c0,0,6.3,61.8-11.9,73.1s-99,47.1-99,47.1s34.4,32.3,27.4,40s-38.6,28.8-42.8,24.6
	s-51.3-54.8-45.7-70.9s83.6-68.8,83.6-68.8l9.1-33l2.8-26.7l29.5-19L719.5,415.4z"/>
<circle class="st3" cx="687.3" cy="242.2" r="29.3"/>
<path class="st3" d="M710,254.2c0,0-1.4,26.7,20.4,35.1s-54.1,63.2-54.1,63.2v-61.1c0,0,9.8-10.5,0-26.7L710,254.2z"/>
<path class="st3" d="M756.7,379.6l-5.6,27.4l-16.9,94.1c0,0,14,40-4.9,39.3s-9.8-43.6-9.8-43.6l9.8-78v-30.2L756.7,379.6z"/>
<path class="st3" d="M635.9,366.3l-6.3,24.6l-28.8,69.5c0,0-19.7,33-3.5,32.3s16.2-32.3,16.2-32.3l33-56.2v-31.6L635.9,366.3z"/>
<path class="st2" d="M631,571.4l23.2,21.8c0,0,16.2-3.5,22.5,15.5s10.5,30.9,10.5,30.9l-8.4,4.9l-10.5-14.8c0,0-6.3,26.7-12.6,28.8
	s-37.9,16.2-35.1,0l15.5-22.5c0,0,2.1-25.3-4.2-27.4s-23.2-23.2-23.2-23.2L631,571.4z"/>
<path class="st0" d="M720.6,437.2c0,0-66-23.9-70.2-21.8c-3.1,1.4-6.5,2.3-9.9,2.6l0.1-9.6c0,0,21.8-7.7,33.7-2.8
	s48.5,26.7,48.5,26.7L720.6,437.2z"/>
<path class="st4" d="M680.5,338.5c0,0,19-21.8,24.6-35.1c3.6-8.1,10.1-14.5,18.2-17.9c0,0,42.2,9.5,41.5,26.4s-26.7,42.8-26.7,42.8
	s3.5,93.4-15.5,92c-4.1-4.9-7-10.7-8.4-16.9c-2.1-9.8-67.4-20.4-67.4-20.4s-5.6,9.8-6.3,5.6s5.6-107.5,5.6-107.5l33.5-22.1
	L680.5,338.5z"/>
<path class="st4" d="M759.4,305l0.5,0.3c3.1,1.7,4.9,4.9,4.9,8.5l0,52.1c0,2.9,1.3,5.6,3.5,7.4c2.7,2.3,5.2,5.6,0,7.3
	c-8.4,2.8-41.4,16.9-42.1,11.9s-2.1-10.5,0-10.5c1.6,0,11.5-50.4,19.4-71.9c1.8-5,7.4-7.6,12.4-5.8
	C758.4,304.6,758.9,304.8,759.4,305z"/>
<path class="st4" d="M655.5,305.1l-9.8,2.8l-11.2,48.5c0,0-13.3,2.8-9.1,7.7s21.8,17.6,21.8,17.6L655.5,305.1z"/>
<path class="st2" d="M711.9,205.7c-4.5-6-11.5-9.6-18.9-9.7H692c-17.3,0-31.4,15.7-31.4,35v0h5.8l0.9-7.1l1.4,7.1h34.4l2.9-6l-0.7,6
	h6.8c3.2,15.7-1.4,31.4-13.6,47.1H710l5.8-12.1l-1.4,12.1h22l4.3-27.8C740.7,229.6,728.6,212,711.9,205.7z"/>
<path class="st0" d="M123.5,529.7c7.4-16.1,12.6-54.2,12.6-98.7c0-59-17.3-117.8-28.6-117.8h-34v433h34V548.8h136.2v197.5h34V529.7
	H123.5z M107.5,529c0.1,0.3,0.2,0.5,0.3,0.7h-0.3V529z"/>
<path class="st5" d="M265.4,450.7c0,0,41,17,28,27s-40-12-39-15s-4-10-4-10L265.4,450.7z"/>
<path class="st6" d="M229.4,316.7l13,12l3,35l10,37c0,0,17,35,14,42c-3,7,3,9,3,9l-23,9c0,0-25-28-25-34S229.4,316.7,229.4,316.7z"
	/>
<path class="st7" d="M229.4,316.7l13,12l3,35l10,37c0,0,17,35,14,42c-3,7,3,9,3,9l-23,9c0,0-25-28-25-34S229.4,316.7,229.4,316.7z"
	/>
<path class="st6" d="M352.4,676.7c0,0-5,23-6,25s19,9,19,9l24-17c0,0-10-22-10-26L352.4,676.7z"/>
<path class="st2" d="M221.4,452.7l7,8c0,0,145,18,148,46c3,28,24,160,12,164s-43,19-43,11s-20-118-16-138c0,0-173-22-177-47
	c-4-25,4-36,4-36L221.4,452.7z"/>
<path class="st7" d="M221.4,452.7l7,8c0,0,145,18,148,46c3,28,24,160,12,164s-43,19-43,11s-20-118-16-138c0,0-173-22-177-47
	c-4-25,4-36,4-36L221.4,452.7z"/>
<path class="st2" d="M350.4,699.7c0,0-4-9-6-6s-9,38-2,38s71,16,80,14s26,1,24-9s-12-11-12-11s-37-22-39-33s-13-5-13-5v7
	C382.4,694.7,361.4,710.7,350.4,699.7z"/>
<path class="st5" d="M160.4,240.7c0,0,7,34-8,37s19,23,19,23l22,12l16-16c0,0-14.5-29.5-3.5-51.5S160.4,240.7,160.4,240.7z"/>
<path class="st5" d="M209.4,296.7l-16,16l-22-12c0,0-34-20-19-23c9.6-1.9,10.2-16.7,9.4-27c-0.3-3.4-0.7-6.7-1.4-10
	c0,0,56.5-17.5,45.5,4.5c-1.7,3.4-2.8,7-3.4,10.8C199.1,275.8,209.4,296.7,209.4,296.7z"/>
<polygon class="st6" points="265.4,705.7 265.4,728.7 303.4,728.7 306.4,719.7 302.4,695.7 "/>
<path class="st2" d="M108.4,472.7c0,0,0,59,24,61s110,13,110,13s5,98,14,130s1,34,9,36s42-5,41-12s-5-184-5-184s9-38-111-56
	L108.4,472.7z"/>
<path class="st2" d="M268.4,721.7c0,0-6-13-7-9s-13,39-1,42s50,19,75,18s28-2,28-2s7-10-2-16s-46-41-48-45s-17-7-17,0
	S275.4,730.7,268.4,721.7z"/>
<path class="st7" d="M205.9,245.2c-1.7,3.4-2.8,7-3.4,10.8c-5,3-8.3,2.2-14.6,2.2c-9.3,0-13-11.9-19-18c-0.5-5.7-8.5,0.5-8.5,0.5
	S216.9,223.2,205.9,245.2z"/>
<circle class="st5" cx="185.4" cy="224.7" r="33"/>
<path class="st6" d="M242.4,328.7c0,0-5,36-8,49s-7,73-9,81s-14,10-38,7c-1.5-0.2-3-0.3-4.5-0.3c-14.8-0.5-31.7,5.1-47.3,9.4
	c-9,2.5-17.6,4.6-25.1,4.9c-11.4,0.5-14.7-12.1-14.4-25.8c0.4-12.7,4-26.4,7.4-31.2c6.1-8.7,0.1-86.6,2.3-112.3v0
	c0.3-3.9,0.9-6.6,1.7-7.7c6-8,45-28,49.4-27.2c4.4,0.8,41.6,24.2,41.6,24.2c9,0,8.7-9.8,8.7-9.8s6.3,11.8,18.3,14.8
	S242.4,328.7,242.4,328.7z"/>
<path class="st5" d="M175.6,458.4c0,0,64.4,2.1,53.1,9.7s-61.3,14.7-62.3,4.7S175.6,458.4,175.6,458.4z"/>
<path class="st7" d="M182.9,465.4c0.2,3.8-10.1,12.5-13.5,18.3c-1.9,3.2-16.2-1-33.9-8.9c-13.6-6.1-26.8-13.1-39.5-20.9
	c0.4-12.7,4-26.4,7.4-31.2c6.1-8.7,0.1-86.6,2.3-112.3v0c0.5-0.3,1.1-0.5,1.7-0.7h12c41,19-6,101-6,101s62,51,68,53
	C182.2,463.9,182.8,464.6,182.9,465.4z"/>
<path class="st6" d="M119.4,303.7h-12c0,0-11,3-20,23s-42,82-13,106c29,24,91,52,95,45s18-18,12-20s-68-53-68-53
	S160.4,322.7,119.4,303.7z"/>
<path class="st2" d="M180.4,209.4c0,0,1.4-20,19.3-11.9s16.7-14.4,11.3-18.3s-5.2-5-25-2.3s-58.1,7.2-45.7,46.9s23.6,29.5,23.6,29.5
	s-9.9-35.7,0.1-28.9l10,6.8l5.3-1.1L180.4,209.4z"/>
<path class="st0" d="M917.5,498c0-18-134.1-32.7-299.6-32.7S318.4,480,318.4,498c0,7,20.2,13.5,54.5,18.8v223.6h16.3V519.1
	c55,7.1,137,11.6,228.8,11.6c92.5,0,175.2-4.6,230.1-11.8v221.5h16.3V516.6C897.9,511.3,917.5,504.9,917.5,498z"/>
<ellipse class="st8" cx="655.5" cy="483.7" rx="61" ry="15"/>
<ellipse class="st4" cx="655.5" cy="483.7" rx="50" ry="12.3"/>
<ellipse class="st8" cx="428.5" cy="495.7" rx="61" ry="15"/>
<ellipse class="st4" cx="428.5" cy="495.7" rx="50" ry="12.3"/>
<ellipse class="st5" cx="654.1" cy="478.1" rx="29.1" ry="4.6"/>
<ellipse class="st1" cx="638.6" cy="471.4" rx="9.2" ry="5"/>
<ellipse class="st1" cx="635.1" cy="471.4" rx="9.2" ry="5"/>
<ellipse class="st1" cx="675.3" cy="472.5" rx="9.2" ry="5"/>
<ellipse class="st1" cx="654.3" cy="471.4" rx="9.2" ry="5"/>
<ellipse class="st1" cx="669.9" cy="471.4" rx="9.2" ry="5"/>
<path class="st0" d="M681.8,468.3c-16.6,5.6-35.2,5.6-55.9,0v-0.8c0-12.2,9.5-22.2,21.7-22.8c4.9-0.2,9.9-0.2,14.8,0
	c10.9,0.6,19.4,9.7,19.4,20.6V468.3z"/>
<path class="st0" d="M673.7,489.4c-12.3,1.2-24.6,1.2-36.9,0c-6-0.6-10.6-5.7-10.6-11.7h58.2C684.3,483.8,679.7,488.8,673.7,489.4z"
	/>
<path class="st4" d="M646.2,451.9c-2.7,1.1-5.7,1.1-8.4,0C640.5,450.7,643.5,450.7,646.2,451.9z"/>
<path class="st4" d="M654.6,455.3c-2.7,1.1-5.7,1.1-8.4,0C648.9,454.2,651.9,454.2,654.6,455.3z"/>
<path class="st4" d="M655.4,449.2c-2.7,1.1-5.7,1.1-8.4,0C649.7,448.1,652.7,448.1,655.4,449.2z"/>
<path class="st4" d="M671.1,449.2c-2.7,1.1-5.7,1.1-8.4,0C665.4,448.1,668.4,448.1,671.1,449.2z"/>
<path class="st4" d="M666.9,452.6c-2.7,1.1-5.7,1.1-8.4,0C661.2,451.5,664.2,451.5,666.9,452.6z"/>
<ellipse class="st5" cx="428.1" cy="490.1" rx="29.1" ry="4.6"/>
<ellipse class="st1" cx="412.6" cy="483.4" rx="9.2" ry="5"/>
<ellipse class="st1" cx="409.1" cy="483.4" rx="9.2" ry="5"/>
<ellipse class="st1" cx="449.3" cy="484.5" rx="9.2" ry="5"/>
<ellipse class="st1" cx="428.3" cy="483.4" rx="9.2" ry="5"/>
<ellipse class="st1" cx="443.9" cy="483.4" rx="9.2" ry="5"/>
<path class="st0" d="M455.8,480.3c-16.6,5.6-35.2,5.6-55.9,0v-0.8c0-12.2,9.5-22.2,21.7-22.8c4.9-0.2,9.9-0.2,14.8,0
	c10.9,0.6,19.4,9.7,19.4,20.6V480.3z"/>
<path class="st0" d="M447.7,501.4c-12.3,1.2-24.6,1.2-36.9,0c-6-0.6-10.6-5.7-10.6-11.7h58.2C458.3,495.8,453.7,500.8,447.7,501.4z"
	/>
<path class="st4" d="M420.2,463.9c-2.7,1.1-5.7,1.1-8.4,0C414.5,462.7,417.5,462.7,420.2,463.9z"/>
<path class="st4" d="M428.6,467.3c-2.7,1.1-5.7,1.1-8.4,0C422.9,466.2,425.9,466.2,428.6,467.3z"/>
<path class="st4" d="M429.4,461.2c-2.7,1.1-5.7,1.1-8.4,0C423.7,460.1,426.7,460.1,429.4,461.2z"/>
<path class="st4" d="M445.1,461.2c-2.7,1.1-5.7,1.1-8.4,0C439.4,460.1,442.4,460.1,445.1,461.2z"/>
<path class="st4" d="M440.9,464.6c-2.7,1.1-5.7,1.1-8.4,0C435.2,463.5,438.2,463.5,440.9,464.6z"/>
<path class="st1" d="M708,479.7l0.1,3.1l0.2,4c0,0-18.5,1-22.2,5c-0.1,0.1-0.2,0.2-0.2,0.3l-7.4-1.6l0-3.6c0,0,0.1-0.1,0.3-0.2
	c0,0,0.1-0.1,0.2-0.1C688,482.1,697.9,479.7,708,479.7z"/>
<path class="st7" d="M708,479.7l0.1,3.1c-8.2,0.3-23.7,5.1-23.7,5.1l-5.7-1.3C687.8,482.1,697.8,479.7,708,479.7z"/>
<path class="st9" d="M678.9,486.5l5.5,1.4l1.7,3.9c-0.1,0.1-0.2,0.2-0.2,0.3l-7.4-1.6l0-3.6c0,0,0.1-0.1,0.3-0.2
	C678.8,486.6,678.9,486.5,678.9,486.5z"/>
<path class="st1" d="M485,492.7l0.1,3.1l0.2,4c0,0-18.5,1-22.2,5c-0.1,0.1-0.2,0.2-0.2,0.3l-7.4-1.6l0-3.6c0,0,0.1-0.1,0.3-0.2
	c0,0,0.1-0.1,0.2-0.1C465,495.1,474.9,492.7,485,492.7z"/>
<path class="st7" d="M485,492.7l0.1,3.1c-8.2,0.3-23.7,5.1-23.7,5.1l-5.7-1.3C464.8,495.1,474.8,492.7,485,492.7z"/>
<path class="st9" d="M455.9,499.5l5.5,1.4l1.7,3.9c-0.1,0.1-0.2,0.2-0.2,0.3l-7.4-1.6l0-3.6c0,0,0.1-0.1,0.3-0.2
	C455.8,499.6,455.9,499.5,455.9,499.5z"/>
<path class="st0" d="M819.1,386.9c-1.6-1.6-3.4-2.8-5.4-3.8v-38.9c0-0.9-0.8-1.7-1.7-1.7l0,0h-9.6c-0.9,0-1.7,0.8-1.7,1.7l0,0v38.1
	c-7.1,2.4-11.9,9-11.9,16.5v83.4c0,4.2,3.4,7.6,7.6,7.6h20.6c4.2,0,7.6-3.4,7.6-7.6v-82.4C824.5,395,822.5,390.3,819.1,386.9z"/>
<rect x="788.6" y="411.1" class="st1" width="35.8" height="47.4"/>
<path class="st1" d="M814.4,345.2h-0.8v-0.9c0-0.9-0.8-1.7-1.7-1.7l0,0h-9.6c-0.9,0-1.7,0.8-1.7,1.7l0,0v0.9h-0.8v4h0.8v20.4h13.1
	v-20.4h0.8V345.2z"/>
<path class="st4" d="M532.1,420.6c-0.9-2-1.7-3.5-2-3.9c-16.1,4-26.8,0.6-28.5,0c-0.8,1.6-6,11.6-8.1,21.1
	c-1.9,8.6-0.8,14.4,3.3,17.2l0.1,0.1l0,0c4.5,2.9,8.7,5.6,12.7,7.7c0.5,0.3,1,0.6,1.5,0.8l0.1,0l0,0c0.5,0.7,1,1.4,1.5,2.1
	c0.9,1.2,1.4,2.6,1.5,4.1V513l-0.3,0c-10.3,0.2-16.6,1.9-16.6,3.4c0,1.6,7.6,3.5,18.5,3.5s18.5-1.8,18.5-3.5c0-1.5-6.2-3.2-16.3-3.4
	l-0.3,0l0.3-39.7c0-2.7,0.6-5.3,1.8-7.7c0.2-0.4,0.4-0.8,0.7-1.2c0.2-0.3,0.4-0.6,0.6-0.9l0-0.1l0.1,0c0.5-0.3,1-0.6,1.6-0.9l0.1,0
	c3.7-2.1,7.7-4.6,11.9-7.3c3.7-2.5,5-7.5,3.9-14.8C537.6,433.3,534.5,425.7,532.1,420.6z"/>
<path class="st1" d="M533,454.2c-4.4,2.9-8,5.1-10.8,6.6h0c-4-0.3-8.1-0.2-12.1,0.3c-2.8-1.6-6.7-3.9-11.4-7c0,0-0.1-0.1-0.1-0.1v0
	c-4.3-3-4.4-9.3-3-15.7c3.6-0.4,9.3-0.2,17,2.5c9.1,3.2,18.6,1.4,24.1-0.3C537.5,446.4,537,451.6,533,454.2z"/>
<circle class="st1" cx="506.9" cy="434.8" r="1.2"/>
<circle class="st10" cx="503.4" cy="446.3" r="1.2"/>
<circle class="st1" cx="509.9" cy="437.8" r="0.7"/>
<circle class="st10" cx="512.9" cy="452" r="0.7"/>
<circle class="st10" cx="507.6" cy="452.7" r="0.7"/>
<circle class="st1" cx="522.8" cy="427.9" r="0.7"/>
<path class="st4" d="M590.5,380.1c-0.9-2-1.7-3.5-2-3.9c-16.1,4-26.8,0.6-28.5,0c-0.8,1.6-6,11.6-8.1,21.1
	c-1.9,8.6-0.8,14.4,3.3,17.2l0.1,0.1l0,0c4.5,2.9,8.7,5.6,12.7,7.7c0.5,0.3,1,0.6,1.5,0.8l0.1,0l0,0c0.5,0.7,1,1.4,1.5,2.1
	c0.9,1.2,1.4,2.6,1.5,4.1v42.9l-0.3,0c-10.3,0.2-16.6,1.9-16.6,3.4c0,1.6,7.6,3.5,18.5,3.5s18.5-1.8,18.5-3.5
	c0-1.5-6.2-3.2-16.3-3.4l-0.3,0l0.3-39.7c0-2.7,0.6-5.3,1.8-7.7c0.2-0.4,0.4-0.8,0.7-1.2c0.2-0.3,0.4-0.6,0.6-0.9l0-0.1l0.1,0
	c0.5-0.3,1-0.6,1.6-0.9l0.1,0c3.7-2.1,7.7-4.6,11.9-7.3c3.7-2.5,5-7.5,3.9-14.8C595.9,392.8,592.9,385.3,590.5,380.1z"/>
<path class="st1" d="M591.4,413.8c-4.4,2.9-8,5.1-10.8,6.6h0c-4-0.3-8.1-0.2-12.1,0.3c-2.8-1.6-6.7-3.9-11.4-7c0,0-0.1-0.1-0.1-0.1
	v0c-4.3-3-4.4-9.3-3-15.7c3.6-0.4,9.3-0.2,17,2.5c9.1,3.2,18.6,1.4,24.1-0.3C595.9,405.9,595.4,411.2,591.4,413.8z"/>
<circle class="st1" cx="565.3" cy="394.4" r="1.2"/>
<circle class="st10" cx="561.8" cy="405.8" r="1.2"/>
<circle class="st1" cx="568.3" cy="397.3" r="0.7"/>
<circle class="st10" cx="571.3" cy="411.5" r="0.7"/>
<circle class="st10" cx="566" cy="412.3" r="0.7"/>
<circle class="st1" cx="581.2" cy="387.4" r="0.7"/>
</svg>
