<svg id="fd0d1b37-5b90-41a2-b2fb-759c1923dc4a" xmlns="http://www.w3.org/2000/svg" viewBox="0 0 998.28 772.77"><path d="M443.44,175.72a368,368,0,0,1-120.72-20.27c-52.06-18-94.7-42.82-126.75-73.78C135.35,23.11,85.65,14.28,54.64,17.19,21.07,20.33,1.53,37.52,1.34,37.7L0,36.21c.2-.18,20.14-17.76,54.32-21,20.05-1.9,41,1.41,62.31,9.84,26.56,10.52,53.72,29.09,80.73,55.18,31.84,30.76,74.23,55.43,126,73.33,95.05,32.86,202.17,24.91,293.9-21.83,30.37-15.47,60.39-26,89.22-31.39C742.84,93.58,777.32,95.15,809,105c69.55,21.64,117.06,20.49,144.66,15.72,29.79-5.15,43.3-15.45,43.43-15.56l1.23,1.58c-.56.44-14,10.72-44.32,16-27.82,4.81-75.66,6-145.59-15.78-70.8-22-142.51,2.31-190.19,26.61A384,384,0,0,1,472.54,174.6Q457.93,175.73,443.44,175.72Z" style="fill:#3f3d56"/><circle cx="439.4" cy="180.27" r="20.27" style="fill:#6f35a5"/><circle cx="753.4" cy="99.27" r="20.27" style="fill:#6f35a5"/><circle cx="100.4" cy="20.27" r="20.27" style="fill:#6f35a5"/><path d="M584.74,484.48V680.31h30.79V501.73H738.7V680.31h30.79V288.66H738.7c-10.21,0-25.87,53.13-25.87,106.53,0,40.25,4.7,74.74,11.39,89.29Zm154,0h-.3l.3-.68Z" style="fill:#3f3d56"/><path d="M698.85,191.73h0c-25.28,0-45.77,22.74-45.77,50.78v35.64h11l6.35-13.2-1.59,13.2h70.45l5.77-12-1.45,12h7.94v-28C751.51,217.89,727.93,191.73,698.85,191.73Z" style="fill:#2f2e41"/><path d="M646.41,424.55l-28.1,11.95-97.64,79.37a28.72,28.72,0,0,0-6.32,15.46c-.7,9.13-30.21,56.89-19.67,63.22s48.47,25.28,50.58,12.64,13.34-66.73,13.34-66.73l94.13-84.3Z" style="fill:#2f2e41"/><path d="M536.13,596.65l-12,35.13s12.65,13.34,6.33,24.58V695h-9.84l-2.81-20.38S506.66,694.74,501,695c-11.86.53-35.34,4.75-36-1.57S482.74,681,482.74,681l19.67-54.09,8.43-33Z" style="fill:#2f2e41"/><path d="M719.46,415.42s6.33,61.82-11.94,73.06-99,47.06-99,47.06,34.42,32.31,27.39,40-38.63,28.8-42.85,24.59-51.27-54.8-45.66-70.95S631,460.38,631,460.38l9.13-33,2.81-26.69,29.5-19Z" style="fill:#2f2e41"/><circle cx="687.28" cy="242.22" r="29.28" style="fill:#ffb9b9"/><path d="M710,254.21s-1.4,26.69,20.37,35.12-54.09,63.22-54.09,63.22V291.44s9.84-10.54,0-26.69Z" style="fill:#ffb9b9"/><path d="M756.69,379.6,751.07,407l-16.86,94.13s14,40-4.91,39.34-9.84-43.55-9.84-43.55l9.84-78v-30.2Z" style="fill:#ffb9b9"/><path d="M635.87,366.25l-6.32,24.59-28.8,69.54s-19.67,33-3.51,32.31,16.15-32.31,16.15-32.31l33-56.2V372.57Z" style="fill:#ffb9b9"/><path d="M631,571.36l23.18,21.78s16.15-3.51,22.47,15.45,10.54,30.91,10.54,30.91l-8.43,4.92-10.53-14.75s-6.33,26.69-12.65,28.8-37.93,16.15-35.12,0L635.87,636s2.11-25.29-4.21-27.4-23.18-23.18-23.18-23.18Z" style="fill:#2f2e41"/><path d="M720.58,437.2s-66-23.88-70.25-21.78a31.41,31.41,0,0,1-9.89,2.57l.06-9.59s21.77-7.73,33.72-2.81,48.46,26.69,48.46,26.69Z" style="fill:#3f3d56"/><path d="M680.48,338.5s19-21.77,24.58-35.12a34.49,34.49,0,0,1,18.23-17.92s42.18,9.49,41.48,26.35-26.69,42.85-26.69,42.85,3.51,93.43-15.46,92a40.66,40.66,0,0,1-8.42-16.86c-2.11-9.83-67.44-20.37-67.44-20.37s-5.62,9.84-6.32,5.62,5.62-107.47,5.62-107.47l33.5-22.14Z" style="fill:#d0cde1"/><path d="M759.36,305l.47.26a9.69,9.69,0,0,1,4.95,8.45v52.13a9.76,9.76,0,0,0,3.48,7.44c2.7,2.3,5.21,5.62,0,7.34-8.43,2.81-41.44,16.86-42.14,11.94s-2.11-10.53,0-10.53c1.65,0,11.48-50.37,19.37-71.91A9.7,9.7,0,0,1,758,304.38,8.18,8.18,0,0,1,759.36,305Z" style="fill:#d0cde1"/><path d="M655.54,305.14,645.71,308l-11.24,48.47s-13.35,2.81-9.13,7.72,21.77,17.57,21.77,17.57Z" style="fill:#d0cde1"/><path d="M711.85,205.72a24,24,0,0,0-18.93-9.67H692c-17.32,0-31.37,15.68-31.37,35h5.81l.94-7.14,1.37,7.14H703.2l2.88-6-.72,6h6.77q4.74,23.53-13.62,47.08h11.54l5.76-12.07-1.44,12.07h22l4.33-27.77C740.69,229.59,728.61,212,711.85,205.72Z" style="fill:#2f2e41"/><path d="M123.53,529.73c7.39-16.09,12.59-54.23,12.59-98.73,0-59-17.31-117.79-28.59-117.79h-34v433h34.05V548.79H243.7V746.25h34V529.73Zm-16-.75c.12.25.22.51.34.75h-.34Z" style="fill:#3f3d56"/><path d="M265.43,450.73s41,17,28,27-40-12-39-15-4-10-4-10Z" style="fill:#9f616a"/><path d="M229.43,316.73l13,12,3,35,10,37s17,35,14,42,3,9,3,9l-23,9s-25-28-25-34S229.43,316.73,229.43,316.73Z" style="fill:#575a88"/><path d="M229.43,316.73l13,12,3,35,10,37s17,35,14,42,3,9,3,9l-23,9s-25-28-25-34S229.43,316.73,229.43,316.73Z" style="opacity:0.10000000149011612;isolation:isolate"/><path d="M352.43,676.73s-5,23-6,25,19,9,19,9l24-17s-10-22-10-26Z" style="fill:#575a88"/><path d="M221.43,452.73l7,8s145,18,148,46,24,160,12,164-43,19-43,11-20-118-16-138c0,0-173-22-177-47s4-36,4-36Z" style="fill:#2f2e41"/><path d="M221.43,452.73l7,8s145,18,148,46,24,160,12,164-43,19-43,11-20-118-16-138c0,0-173-22-177-47s4-36,4-36Z" style="opacity:0.10000000149011612;isolation:isolate"/><path d="M350.43,699.73s-4-9-6-6-9,38-2,38,71,16,80,14,26,1,24-9-12-11-12-11-37-22-39-33-13-5-13-5v7S361.43,710.73,350.43,699.73Z" style="fill:#2f2e41"/><path d="M160.43,240.73s7,34-8,37,19,23,19,23l22,12,16-16s-14.5-29.5-3.5-51.5S160.43,240.73,160.43,240.73Z" style="fill:#9f616a"/><path d="M209.43,296.73l-16,16-22-12s-34-20-19-23c9.65-1.93,10.19-16.69,9.36-27a91.21,91.21,0,0,0-1.36-10s56.5-17.5,45.5,4.5A38.42,38.42,0,0,0,202.49,256C199.12,275.76,209.43,296.73,209.43,296.73Z" style="fill:#9f616a"/><polygon points="265.43 705.73 265.43 728.73 303.43 728.73 306.43 719.73 302.43 695.73 265.43 705.73" style="fill:#575a88"/><path d="M108.43,472.73s0,59,24,61,110,13,110,13,5,98,14,130,1,34,9,36,42-5,41-12-5-184-5-184,9-38-111-56Z" style="fill:#2f2e41"/><path d="M268.43,721.73s-6-13-7-9-13,39-1,42,50,19,75,18,28-2,28-2,7-10-2-16-46-41-48-45-17-7-17,0S275.43,730.73,268.43,721.73Z" style="fill:#2f2e41"/><path d="M205.93,245.23A38.42,38.42,0,0,0,202.49,256c-5,3-8.31,2.24-14.56,2.24-9.27,0-13-11.85-19-18-.47-5.71-8.5.5-8.5.5S216.93,223.23,205.93,245.23Z" style="opacity:0.10000000149011612;isolation:isolate"/><circle cx="185.43" cy="224.73" r="33" style="fill:#9f616a"/><path d="M242.43,328.73s-5,36-8,49-7,73-9,81-14,10-38,7c-1.5-.19-3-.3-4.54-.34-14.78-.47-31.69,5.06-47.34,9.4-9,2.5-17.59,4.6-25.12,4.94-11.4.52-14.74-12.12-14.35-25.8.37-12.73,4-26.38,7.35-31.2,6.07-8.68.1-86.61,2.34-112.31h0c.34-3.92.87-6.62,1.66-7.68,6-8,45-28,49.37-27.19s41.63,24.19,41.63,24.19c9,0,8.71-9.76,8.71-9.76s6.29,11.76,18.29,14.76S242.43,328.73,242.43,328.73Z" style="fill:#575a88"/><path d="M175.59,458.37s64.41,2.05,53.13,9.71-61.29,14.65-62.29,4.65S175.59,458.37,175.59,458.37Z" style="fill:#9f616a"/><path d="M182.89,465.39c.21,3.84-10.12,12.49-13.46,18.34-1.85,3.24-16.17-1-33.88-8.94a348.18,348.18,0,0,1-39.47-20.86c.37-12.73,4-26.38,7.35-31.2,6.07-8.68.1-86.61,2.34-112.31h0a11.35,11.35,0,0,1,1.66-.68h12c41,19-6,101-6,101s62,51,68,53A1.8,1.8,0,0,1,182.89,465.39Z" style="opacity:0.10000000149011612;isolation:isolate"/><path d="M119.43,303.73h-12s-11,3-20,23-42,82-13,106,91,52,95,45,18-18,12-20-68-53-68-53S160.43,322.73,119.43,303.73Z" style="fill:#575a88"/><path d="M180.36,209.37s1.44-20,19.31-11.87,16.7-14.36,11.3-18.34-5.23-5-25-2.3-58.08,7.18-45.69,46.88,23.62,29.49,23.62,29.49-9.85-35.73.13-28.92l10,6.8,5.27-1.11Z" style="fill:#2f2e41"/><path d="M917.54,498.05c0-18.05-134.13-32.69-299.59-32.69S318.36,480,318.36,498.05c0,7,20.16,13.47,54.47,18.79v223.6h16.34V519.14c55,7.09,137.05,11.59,228.78,11.59,92.49,0,175.18-4.58,230.14-11.76V740.44h16.34V516.62C897.9,511.35,917.54,505,917.54,498.05Z" style="fill:#3f3d56"/><ellipse cx="655.48" cy="483.73" rx="61" ry="15" style="fill:#f2f2f2"/><ellipse cx="655.48" cy="483.73" rx="50" ry="12.3" style="fill:#d0cde1"/><ellipse cx="428.48" cy="495.73" rx="61" ry="15" style="fill:#f2f2f2"/><ellipse cx="428.48" cy="495.73" rx="50" ry="12.3" style="fill:#d0cde1"/><ellipse cx="654.06" cy="478.08" rx="29.08" ry="4.59" style="fill:#9f616a"/><ellipse cx="638.56" cy="471.38" rx="9.18" ry="4.97" style="fill:#6f35a5"/><ellipse cx="635.12" cy="471.38" rx="9.18" ry="4.97" style="fill:#6f35a5"/><ellipse cx="675.3" cy="472.53" rx="9.18" ry="4.97" style="fill:#6f35a5"/><ellipse cx="654.25" cy="471.38" rx="9.18" ry="4.97" style="fill:#6f35a5"/><ellipse cx="669.94" cy="471.38" rx="9.18" ry="4.97" style="fill:#6f35a5"/><path d="M681.8,468.32q-24.88,8.44-55.86,0v-.77a22.81,22.81,0,0,1,21.67-22.81,142.68,142.68,0,0,1,14.77,0A20.61,20.61,0,0,1,681.8,465.4Z" style="fill:#3f3d56"/><path d="M673.65,489.41a183.38,183.38,0,0,1-36.89,0,11.8,11.8,0,0,1-10.63-11.72h58.16A11.8,11.8,0,0,1,673.65,489.41Z" style="fill:#3f3d56"/><path d="M646.22,451.87a11,11,0,0,1-8.42,0A10.88,10.88,0,0,1,646.22,451.87Z" style="fill:#d0cde1"/><path d="M654.64,455.31a11,11,0,0,1-8.42,0A11,11,0,0,1,654.64,455.31Z" style="fill:#d0cde1"/><path d="M655.4,449.19a11,11,0,0,1-8.42,0A11,11,0,0,1,655.4,449.19Z" style="fill:#d0cde1"/><path d="M671.09,449.19a11,11,0,0,1-8.42,0A11,11,0,0,1,671.09,449.19Z" style="fill:#d0cde1"/><path d="M666.88,452.63a11,11,0,0,1-8.42,0A11,11,0,0,1,666.88,452.63Z" style="fill:#d0cde1"/><ellipse cx="428.06" cy="490.08" rx="29.08" ry="4.59" style="fill:#9f616a"/><ellipse cx="412.56" cy="483.38" rx="9.18" ry="4.97" style="fill:#6f35a5"/><ellipse cx="409.12" cy="483.38" rx="9.18" ry="4.97" style="fill:#6f35a5"/><ellipse cx="449.3" cy="484.53" rx="9.18" ry="4.97" style="fill:#6f35a5"/><ellipse cx="428.25" cy="483.38" rx="9.18" ry="4.97" style="fill:#6f35a5"/><ellipse cx="443.94" cy="483.38" rx="9.18" ry="4.97" style="fill:#6f35a5"/><path d="M455.8,480.32q-24.89,8.44-55.86,0v-.77a22.81,22.81,0,0,1,21.67-22.81,142.68,142.68,0,0,1,14.77,0A20.61,20.61,0,0,1,455.8,477.4Z" style="fill:#3f3d56"/><path d="M447.65,501.41a183.38,183.38,0,0,1-36.89,0,11.8,11.8,0,0,1-10.63-11.72h58.16A11.8,11.8,0,0,1,447.65,501.41Z" style="fill:#3f3d56"/><path d="M420.22,463.87a11,11,0,0,1-8.42,0A10.88,10.88,0,0,1,420.22,463.87Z" style="fill:#d0cde1"/><path d="M428.64,467.31a11,11,0,0,1-8.42,0A11,11,0,0,1,428.64,467.31Z" style="fill:#d0cde1"/><path d="M429.4,461.19a11,11,0,0,1-8.42,0A11,11,0,0,1,429.4,461.19Z" style="fill:#d0cde1"/><path d="M445.09,461.19a11,11,0,0,1-8.42,0A11,11,0,0,1,445.09,461.19Z" style="fill:#d0cde1"/><path d="M440.88,464.63a11,11,0,0,1-8.42,0A11,11,0,0,1,440.88,464.63Z" style="fill:#d0cde1"/><path d="M708,479.66l.14,3.1.18,4s-18.45,1-22.17,5a2,2,0,0,0-.24.27l-7.39-1.62,0-3.64.3-.16.16-.08A67.41,67.41,0,0,1,708,479.66Z" style="fill:#6f35a5"/><path d="M708,479.66l.14,3.1c-8.18.25-23.67,5.13-23.67,5.13l-5.67-1.29A67.12,67.12,0,0,1,708,479.66Z" style="opacity:0.10000000149011612;isolation:isolate"/><path d="M678.92,486.52l5.51,1.37,1.68,3.86a2,2,0,0,0-.24.27l-7.39-1.62,0-3.64.3-.16Z" style="fill:#fff;opacity:0.10000000149011612;isolation:isolate"/><path d="M485,492.66l.14,3.1.18,4s-18.45,1-22.17,5a2,2,0,0,0-.24.27l-7.39-1.62,0-3.64.3-.16.16-.08A67.41,67.41,0,0,1,485,492.66Z" style="fill:#6f35a5"/><path d="M485,492.66l.14,3.1c-8.18.25-23.67,5.13-23.67,5.13l-5.67-1.29A67.12,67.12,0,0,1,485,492.66Z" style="opacity:0.10000000149011612;isolation:isolate"/><path d="M455.92,499.52l5.51,1.37,1.68,3.86a2,2,0,0,0-.24.27l-7.39-1.62,0-3.64.3-.16Z" style="fill:#fff;opacity:0.10000000149011612;isolation:isolate"/><path d="M819.09,386.88a18.63,18.63,0,0,0-5.45-3.76V344.26a1.72,1.72,0,0,0-1.72-1.71H802.3a1.72,1.72,0,0,0-1.72,1.71h0v38.11a17.44,17.44,0,0,0-11.94,16.55v83.35a7.64,7.64,0,0,0,7.63,7.64h20.61a7.6,7.6,0,0,0,7.6-7.6V399.9A18.34,18.34,0,0,0,819.09,386.88Z" style="fill:#3f3d56"/><rect x="788.64" y="411.14" width="35.85" height="47.35" style="fill:#6f35a5"/><path d="M814.41,345.2h-.77v-.94a1.72,1.72,0,0,0-1.72-1.71H802.3a1.72,1.72,0,0,0-1.72,1.71h0v.94h-.77v4h.77v20.36h13.06V349.18h.77Z" style="fill:#6f35a5"/><path d="M532.08,420.61c-1-2-1.7-3.46-2-3.95-16.09,4-26.83.62-28.52,0-.83,1.57-6,11.56-8.09,21.14-1.89,8.64-.79,14.44,3.26,17.22l.12.09h0c4.47,2.95,8.73,5.55,12.67,7.75l1.5.83.05,0,0,.05a23.89,23.89,0,0,1,1.5,2.12,8.39,8.39,0,0,1,1.53,4.14V513h-.27c-10.26.21-16.62,1.95-16.62,3.44s7.62,3.46,18.55,3.46,18.55-1.83,18.55-3.46c0-1.47-6.24-3.2-16.33-3.44h-.28l.26-39.71a17.44,17.44,0,0,1,1.82-7.74c.21-.41.43-.8.65-1.17s.38-.59.58-.87l0-.05.05,0c.51-.27,1-.57,1.61-.9l.07,0c3.72-2.11,7.74-4.57,11.93-7.34,3.74-2.46,5.05-7.45,3.88-14.82C537.57,433.29,534.47,425.72,532.08,420.61Z" style="fill:#d0cde1"/><path d="M533,454.24c-4.4,2.9-8,5.07-10.8,6.64h0a63.18,63.18,0,0,0-12.14.34c-2.84-1.59-6.68-3.87-11.4-7l-.14-.09h0c-4.33-3-4.43-9.29-3-15.74,3.59-.4,9.3-.23,17,2.52,9.09,3.24,18.61,1.41,24.13-.26C537.53,446.36,537,451.64,533,454.24Z" style="fill:#6f35a5"/><circle cx="506.9" cy="434.83" r="1.24" style="fill:#6f35a5"/><circle cx="503.42" cy="446.28" r="1.24" style="fill:#fff"/><circle cx="509.89" cy="437.82" r="0.75" style="fill:#6f35a5"/><circle cx="512.88" cy="452" r="0.75" style="fill:#fff"/><circle cx="507.65" cy="452.75" r="0.75" style="fill:#fff"/><circle cx="522.83" cy="427.86" r="0.75" style="fill:#6f35a5"/><path d="M590.45,380.14c-1-2-1.69-3.45-2-3.95-16.09,4-26.82.62-28.51,0-.83,1.56-6,11.55-8.09,21.13-1.89,8.65-.79,14.44,3.26,17.23l.12.08,0,0c4.47,2.94,8.73,5.55,12.67,7.75l1.5.82,0,0,0,0a22.75,22.75,0,0,1,1.51,2.13,8.32,8.32,0,0,1,1.53,4.13V472.5h-.27c-10.26.21-16.62,1.95-16.62,3.44s7.62,3.46,18.55,3.46,18.55-1.82,18.55-3.46c0-1.47-6.25-3.2-16.34-3.43h-.27l.26-39.7a17.51,17.51,0,0,1,1.82-7.75c.21-.4.42-.8.65-1.17s.38-.59.58-.86l0,0,.05,0,1.61-.9.07,0c3.72-2.1,7.74-4.57,11.93-7.33,3.74-2.47,5-7.46,3.87-14.83C596,392.83,592.85,385.26,590.45,380.14Z" style="fill:#d0cde1"/><path d="M591.42,413.78c-4.4,2.89-8,5.07-10.8,6.63h0a64,64,0,0,0-12.14.34c-2.84-1.58-6.68-3.86-11.4-7l-.14-.09h0c-4.33-3-4.44-9.29-3-15.74,3.59-.4,9.3-.22,17,2.52,9.09,3.25,18.61,1.41,24.13-.26C595.91,405.89,595.36,411.18,591.42,413.78Z" style="fill:#6f35a5"/><circle cx="565.28" cy="394.36" r="1.24" style="fill:#6f35a5"/><circle cx="561.8" cy="405.81" r="1.24" style="fill:#fff"/><circle cx="568.27" cy="397.35" r="0.75" style="fill:#6f35a5"/><circle cx="571.25" cy="411.54" r="0.75" style="fill:#fff"/><circle cx="566.03" cy="412.28" r="0.75" style="fill:#fff"/><circle cx="581.21" cy="387.39" r="0.75" style="fill:#6f35a5"/></svg>